STARTFONT 2.1
COMMENT
COMMENT Converted from OpenType font "Better VCR 6.1.ttf" by "otf2bdf 3.0".
COMMENT
FONT -FreeType-Better VCR-Medium-R-Normal--17-120-100-100-P-98-ISO10646-1
SIZE 12 100 100
FONTBOUNDINGBOX 13 17 0 0
STARTPROPERTIES 19
FOUNDRY "FreeType"
FAMILY_NAME "Better VCR"
WEIGHT_NAME "Medium"
SLANT "R"
SETWIDTH_NAME "Normal"
ADD_STYLE_NAME ""
PIXEL_SIZE 17
POINT_SIZE 120
RESOLUTION_X 100
RESOLUTION_Y 100
SPACING "P"
AVERAGE_WIDTH 98
CHARSET_REGISTRY "ISO10646"
CHARSET_ENCODING "1"
FONT_ASCENT 17
FONT_DESCENT 0
COPYRIGHT "(c) artdzyk, 2022-2024"
_OTF_FONTFILE "Better VCR 6.1.ttf"
_OTF_PSNAME "BetterVCR"
ENDPROPERTIES
CHARS 5341
STARTCHAR 0020
ENCODING 32
SWIDTH 780 0
DWIDTH 13 0
BBX 0 0 0 0
BITMAP
ENDCHAR
STARTCHAR 0021
ENCODING 33
SWIDTH 780 0
DWIDTH 13 0
BBX 2 15 5 2
BITMAP
C0
C0
C0
C0
C0
C0
C0
C0
C0
C0
C0
00
00
C0
C0
ENDCHAR
STARTCHAR 0022
ENCODING 34
SWIDTH 780 0
DWIDTH 13 0
BBX 6 3 3 14
BITMAP
CC
CC
CC
ENDCHAR
STARTCHAR 0023
ENCODING 35
SWIDTH 780 0
DWIDTH 13 0
BBX 11 15 1 2
BITMAP
0300
3300
33E0
3FE0
FF00
F300
3300
3300
3300
33E0
3FE0
FF00
F300
3300
3000
ENDCHAR
STARTCHAR 0024
ENCODING 36
SWIDTH 780 0
DWIDTH 13 0
BBX 10 15 1 2
BITMAP
0C00
3F00
7F80
EDC0
CCC0
EC00
7F00
3F00
0D80
0CC0
CCC0
EDC0
7F80
3F00
0C00
ENDCHAR
STARTCHAR 0025
ENCODING 37
SWIDTH 780 0
DWIDTH 13 0
BBX 10 15 1 2
BITMAP
7180
F980
DB00
FB00
7600
0600
0400
0C00
0800
1800
1B80
37C0
36C0
67C0
6380
ENDCHAR
STARTCHAR 0026
ENCODING 38
SWIDTH 780 0
DWIDTH 13 0
BBX 10 15 1 2
BITMAP
1C00
3E00
7700
6300
6300
7700
3600
3C00
7C00
CC00
CEC0
C7C0
E380
7FC0
3EC0
ENDCHAR
STARTCHAR 0027
ENCODING 39
SWIDTH 780 0
DWIDTH 13 0
BBX 2 3 5 14
BITMAP
C0
C0
C0
ENDCHAR
STARTCHAR 0028
ENCODING 40
SWIDTH 780 0
DWIDTH 13 0
BBX 5 15 3 2
BITMAP
18
38
70
60
C0
C0
C0
C0
C0
C0
40
60
70
38
18
ENDCHAR
STARTCHAR 0029
ENCODING 41
SWIDTH 780 0
DWIDTH 13 0
BBX 5 15 4 2
BITMAP
C0
E0
70
30
18
18
18
18
18
18
10
30
70
E0
C0
ENDCHAR
STARTCHAR 002A
ENCODING 42
SWIDTH 780 0
DWIDTH 13 0
BBX 8 10 1 7
BITMAP
18
99
99
7E
7E
3C
5A
DB
99
18
ENDCHAR
STARTCHAR 002B
ENCODING 43
SWIDTH 780 0
DWIDTH 13 0
BBX 10 11 1 3
BITMAP
0C00
0C00
0C00
0C00
0C00
FFC0
FFC0
0C00
0C00
0C00
0C00
ENDCHAR
STARTCHAR 002C
ENCODING 44
SWIDTH 780 0
DWIDTH 13 0
BBX 3 3 4 1
BITMAP
60
60
C0
ENDCHAR
STARTCHAR 002D
ENCODING 45
SWIDTH 780 0
DWIDTH 13 0
BBX 10 2 1 8
BITMAP
FFC0
FFC0
ENDCHAR
STARTCHAR 002E
ENCODING 46
SWIDTH 780 0
DWIDTH 13 0
BBX 2 2 5 2
BITMAP
C0
C0
ENDCHAR
STARTCHAR 002F
ENCODING 47
SWIDTH 780 0
DWIDTH 13 0
BBX 8 15 2 2
BITMAP
03
03
06
06
0C
0C
08
18
10
30
30
60
60
C0
C0
ENDCHAR
STARTCHAR 0030
ENCODING 48
SWIDTH 780 0
DWIDTH 13 0
BBX 10 15 1 2
BITMAP
3F00
7F80
E1C0
C0C0
C3C0
C7C0
C6C0
CCC0
D8C0
F8C0
F0C0
C0C0
E1C0
7F80
3F00
ENDCHAR
STARTCHAR 0031
ENCODING 49
SWIDTH 780 0
DWIDTH 13 0
BBX 8 15 2 2
BITMAP
18
38
78
F8
D8
18
18
18
18
18
18
18
18
FF
FF
ENDCHAR
STARTCHAR 0032
ENCODING 50
SWIDTH 780 0
DWIDTH 13 0
BBX 10 15 1 2
BITMAP
3F00
7F80
E1C0
C0C0
00C0
01C0
3F80
7F00
E000
C000
C000
C000
C000
FFC0
FFC0
ENDCHAR
STARTCHAR 0033
ENCODING 51
SWIDTH 780 0
DWIDTH 13 0
BBX 10 15 1 2
BITMAP
FFC0
FFC0
01C0
0380
0700
0F00
0F80
0180
01C0
00C0
00C0
C0C0
E1C0
7F80
3F00
ENDCHAR
STARTCHAR 0034
ENCODING 52
SWIDTH 780 0
DWIDTH 13 0
BBX 11 15 1 2
BITMAP
0300
0700
0F00
1F00
3B00
7300
E300
C300
C300
FFE0
FFE0
0300
0300
0300
0300
ENDCHAR
STARTCHAR 0035
ENCODING 53
SWIDTH 780 0
DWIDTH 13 0
BBX 10 15 1 2
BITMAP
FFC0
FFC0
C000
C000
C000
FF00
FF80
0180
00C0
00C0
00C0
C0C0
E1C0
7F80
3F00
ENDCHAR
STARTCHAR 0036
ENCODING 54
SWIDTH 780 0
DWIDTH 13 0
BBX 10 15 1 2
BITMAP
3F00
7F80
E1C0
C0C0
C000
DF00
FF80
E180
C0C0
C0C0
C0C0
C0C0
E1C0
7F80
3F00
ENDCHAR
STARTCHAR 0037
ENCODING 55
SWIDTH 780 0
DWIDTH 13 0
BBX 10 15 1 2
BITMAP
FFC0
FFC0
0180
0180
0300
0300
0300
0600
0400
0C00
0C00
1800
1800
3000
3000
ENDCHAR
STARTCHAR 0038
ENCODING 56
SWIDTH 780 0
DWIDTH 13 0
BBX 10 15 1 2
BITMAP
3F00
7F80
E1C0
C0C0
C0C0
E1C0
7F80
7F80
6180
C0C0
C0C0
C0C0
E1C0
7F80
3F00
ENDCHAR
STARTCHAR 0039
ENCODING 57
SWIDTH 780 0
DWIDTH 13 0
BBX 10 15 1 2
BITMAP
3F00
7F80
E1C0
C0C0
C0C0
C0C0
E1C0
61C0
3EC0
3EC0
00C0
C0C0
E1C0
7F80
3F00
ENDCHAR
STARTCHAR 003A
ENCODING 58
SWIDTH 780 0
DWIDTH 13 0
BBX 2 12 5 2
BITMAP
C0
C0
00
00
00
00
00
00
00
00
C0
C0
ENDCHAR
STARTCHAR 003B
ENCODING 59
SWIDTH 780 0
DWIDTH 13 0
BBX 3 13 4 1
BITMAP
60
60
00
00
00
00
00
00
00
00
60
60
C0
ENDCHAR
STARTCHAR 003C
ENCODING 60
SWIDTH 780 0
DWIDTH 13 0
BBX 8 15 2 2
BITMAP
03
07
0E
1C
38
70
E0
E0
60
30
18
1C
0E
07
03
ENDCHAR
STARTCHAR 003D
ENCODING 61
SWIDTH 780 0
DWIDTH 13 0
BBX 10 6 1 5
BITMAP
FFC0
FFC0
0000
0000
FFC0
FFC0
ENDCHAR
STARTCHAR 003E
ENCODING 62
SWIDTH 780 0
DWIDTH 13 0
BBX 8 15 2 2
BITMAP
C0
E0
70
38
1C
0E
07
07
06
0C
18
38
70
E0
C0
ENDCHAR
STARTCHAR 003F
ENCODING 63
SWIDTH 780 0
DWIDTH 13 0
BBX 10 15 1 2
BITMAP
3F00
7F80
E1C0
C0C0
C0C0
01C0
0180
0300
0600
0E00
0C00
0000
0000
0C00
0C00
ENDCHAR
STARTCHAR 0040
ENCODING 64
SWIDTH 780 0
DWIDTH 13 0
BBX 11 15 0 2
BITMAP
3F80
7FC0
E0E0
CF60
DF60
DB60
DB60
DB60
DB60
DB60
CF80
CF80
E000
7F80
3F80
ENDCHAR
STARTCHAR 0041
ENCODING 65
SWIDTH 780 0
DWIDTH 13 0
BBX 10 15 1 2
BITMAP
1FC0
3FC0
70C0
60C0
C0C0
C0C0
C0C0
C0C0
C0C0
FFC0
FFC0
C0C0
C0C0
C0C0
C0C0
ENDCHAR
STARTCHAR 0042
ENCODING 66
SWIDTH 780 0
DWIDTH 13 0
BBX 10 15 1 2
BITMAP
FE00
FF00
C380
C180
C180
C380
FF00
FF00
C180
C1C0
C0C0
C0C0
C1C0
FF80
FF00
ENDCHAR
STARTCHAR 0043
ENCODING 67
SWIDTH 780 0
DWIDTH 13 0
BBX 10 15 1 2
BITMAP
3F00
7F80
E1C0
C0C0
C000
C000
C000
C000
C000
C000
C000
C0C0
E1C0
7F80
3F00
ENDCHAR
STARTCHAR 0044
ENCODING 68
SWIDTH 780 0
DWIDTH 13 0
BBX 10 15 1 2
BITMAP
FF00
FF80
C1C0
C0C0
C0C0
C0C0
C0C0
C0C0
C0C0
C0C0
C0C0
C0C0
C1C0
FF80
FF00
ENDCHAR
STARTCHAR 0045
ENCODING 69
SWIDTH 780 0
DWIDTH 13 0
BBX 11 15 1 2
BITMAP
FFE0
FFE0
C000
C000
C000
C000
FF80
FF80
C000
C000
C000
C000
C000
FFE0
FFE0
ENDCHAR
STARTCHAR 0046
ENCODING 70
SWIDTH 780 0
DWIDTH 13 0
BBX 11 15 1 2
BITMAP
FFE0
FFE0
C000
C000
C000
C000
FF80
FF80
C000
C000
C000
C000
C000
C000
C000
ENDCHAR
STARTCHAR 0047
ENCODING 71
SWIDTH 780 0
DWIDTH 13 0
BBX 10 15 1 2
BITMAP
3F00
7F80
E1C0
C0C0
C000
C000
C7C0
C7C0
C0C0
C0C0
C0C0
C0C0
E1C0
7FC0
3EC0
ENDCHAR
STARTCHAR 0048
ENCODING 72
SWIDTH 780 0
DWIDTH 13 0
BBX 10 15 1 2
BITMAP
C0C0
C0C0
C0C0
C0C0
C0C0
C0C0
FFC0
FFC0
C0C0
C0C0
C0C0
C0C0
C0C0
C0C0
C0C0
ENDCHAR
STARTCHAR 0049
ENCODING 73
SWIDTH 780 0
DWIDTH 13 0
BBX 6 15 3 2
BITMAP
FC
FC
30
30
30
30
30
30
30
30
30
30
30
FC
FC
ENDCHAR
STARTCHAR 004A
ENCODING 74
SWIDTH 780 0
DWIDTH 13 0
BBX 10 15 1 2
BITMAP
00C0
00C0
00C0
00C0
00C0
00C0
00C0
00C0
00C0
00C0
C0C0
C0C0
E1C0
7F80
3F00
ENDCHAR
STARTCHAR 004B
ENCODING 75
SWIDTH 780 0
DWIDTH 13 0
BBX 10 15 1 2
BITMAP
C0C0
C0C0
C1C0
C380
C700
CE00
CC00
DC00
F600
E300
E380
C1C0
C0C0
C0C0
C0C0
ENDCHAR
STARTCHAR 004C
ENCODING 76
SWIDTH 780 0
DWIDTH 13 0
BBX 11 15 1 2
BITMAP
C000
C000
C000
C000
C000
C000
C000
C000
C000
C000
C000
C000
C000
FFE0
FFE0
ENDCHAR
STARTCHAR 004D
ENCODING 77
SWIDTH 780 0
DWIDTH 13 0
BBX 10 15 1 2
BITMAP
C0C0
C0C0
E1C0
E1C0
F3C0
F3C0
D2C0
DEC0
CCC0
CCC0
CCC0
C0C0
C0C0
C0C0
C0C0
ENDCHAR
STARTCHAR 004E
ENCODING 78
SWIDTH 780 0
DWIDTH 13 0
BBX 10 15 1 2
BITMAP
C0C0
C0C0
C0C0
E0C0
F0C0
F8C0
D8C0
CCC0
C6C0
C7C0
C3C0
C1C0
C0C0
C0C0
C0C0
ENDCHAR
STARTCHAR 004F
ENCODING 79
SWIDTH 780 0
DWIDTH 13 0
BBX 10 15 1 2
BITMAP
3F00
7F80
E1C0
C0C0
C0C0
C0C0
C0C0
C0C0
C0C0
C0C0
C0C0
C0C0
E1C0
7F80
3F00
ENDCHAR
STARTCHAR 0050
ENCODING 80
SWIDTH 780 0
DWIDTH 13 0
BBX 10 15 1 2
BITMAP
FF00
FF80
C1C0
C0C0
C0C0
C0C0
C0C0
C0C0
C180
FF80
FF00
C000
C000
C000
C000
ENDCHAR
STARTCHAR 0051
ENCODING 81
SWIDTH 780 0
DWIDTH 13 0
BBX 10 15 1 2
BITMAP
3F00
7F80
E1C0
C0C0
C0C0
C0C0
C0C0
C0C0
C0C0
C0C0
C6C0
C7C0
E380
7FC0
3EC0
ENDCHAR
STARTCHAR 0052
ENCODING 82
SWIDTH 780 0
DWIDTH 13 0
BBX 10 15 1 2
BITMAP
FF00
FF80
C1C0
C0C0
C0C0
C0C0
C0C0
C180
FF80
FF00
CE00
C700
C380
C1C0
C0C0
ENDCHAR
STARTCHAR 0053
ENCODING 83
SWIDTH 780 0
DWIDTH 13 0
BBX 10 15 1 2
BITMAP
3F00
7F80
E1C0
C0C0
C000
E000
7F00
3F00
0180
00C0
00C0
C0C0
E1C0
7F80
3F00
ENDCHAR
STARTCHAR 0054
ENCODING 84
SWIDTH 780 0
DWIDTH 13 0
BBX 10 15 1 2
BITMAP
FFC0
FFC0
0C00
0C00
0C00
0C00
0C00
0C00
0C00
0C00
0C00
0C00
0C00
0C00
0C00
ENDCHAR
STARTCHAR 0055
ENCODING 85
SWIDTH 780 0
DWIDTH 13 0
BBX 10 15 1 2
BITMAP
C0C0
C0C0
C0C0
C0C0
C0C0
C0C0
C0C0
C0C0
C0C0
C0C0
C0C0
C0C0
E1C0
7F80
3F00
ENDCHAR
STARTCHAR 0056
ENCODING 86
SWIDTH 780 0
DWIDTH 13 0
BBX 10 15 1 2
BITMAP
C0C0
C0C0
C0C0
6180
6180
6180
6180
3300
3300
1200
1E00
1E00
1E00
0C00
0C00
ENDCHAR
STARTCHAR 0057
ENCODING 87
SWIDTH 780 0
DWIDTH 13 0
BBX 10 15 1 2
BITMAP
C0C0
C0C0
C0C0
C0C0
C0C0
C0C0
CCC0
CCC0
CCC0
CCC0
CCC0
CCC0
FFC0
7F80
3300
ENDCHAR
STARTCHAR 0058
ENCODING 88
SWIDTH 780 0
DWIDTH 13 0
BBX 10 15 1 2
BITMAP
C0C0
C0C0
C0C0
E1C0
7380
3F00
1E00
1E00
1E00
3300
6180
E1C0
C0C0
C0C0
C0C0
ENDCHAR
STARTCHAR 0059
ENCODING 89
SWIDTH 780 0
DWIDTH 13 0
BBX 10 15 1 2
BITMAP
C0C0
C0C0
6180
6180
3300
3300
1E00
1E00
0C00
0C00
0C00
0C00
0C00
0C00
0C00
ENDCHAR
STARTCHAR 005A
ENCODING 90
SWIDTH 780 0
DWIDTH 13 0
BBX 10 15 1 2
BITMAP
FFC0
FFC0
00C0
01C0
0380
0700
0600
0C00
1800
7000
7000
E000
C000
FFC0
FFC0
ENDCHAR
STARTCHAR 005B
ENCODING 91
SWIDTH 780 0
DWIDTH 13 0
BBX 5 15 3 2
BITMAP
F8
F8
C0
C0
C0
C0
C0
C0
C0
C0
C0
C0
C0
F8
F8
ENDCHAR
STARTCHAR 005C
ENCODING 92
SWIDTH 780 0
DWIDTH 13 0
BBX 8 15 2 2
BITMAP
C0
C0
60
60
30
30
10
18
08
0C
0C
06
06
03
03
ENDCHAR
STARTCHAR 005D
ENCODING 93
SWIDTH 780 0
DWIDTH 13 0
BBX 6 15 2 2
BITMAP
FC
FC
0C
0C
0C
0C
0C
0C
0C
0C
0C
0C
0C
FC
FC
ENDCHAR
STARTCHAR 005E
ENCODING 94
SWIDTH 780 0
DWIDTH 13 0
BBX 10 6 1 11
BITMAP
0C00
1E00
3F00
7380
E1C0
C0C0
ENDCHAR
STARTCHAR 005F
ENCODING 95
SWIDTH 780 0
DWIDTH 13 0
BBX 11 2 0 2
BITMAP
FFE0
FFE0
ENDCHAR
STARTCHAR 0060
ENCODING 96
SWIDTH 780 0
DWIDTH 13 0
BBX 4 3 4 14
BITMAP
C0
60
30
ENDCHAR
STARTCHAR 0061
ENCODING 97
SWIDTH 780 0
DWIDTH 13 0
BBX 10 12 1 2
BITMAP
3EC0
7FC0
E1C0
C0C0
C0C0
C0C0
C0C0
C0C0
C0C0
E1C0
7FC0
3EC0
ENDCHAR
STARTCHAR 0062
ENCODING 98
SWIDTH 780 0
DWIDTH 13 0
BBX 10 15 1 2
BITMAP
C000
C000
C000
DF00
FF80
E1C0
C0C0
C0C0
C0C0
C0C0
C0C0
C0C0
E1C0
FF80
DF00
ENDCHAR
STARTCHAR 0063
ENCODING 99
SWIDTH 780 0
DWIDTH 13 0
BBX 10 12 1 2
BITMAP
3F00
7F80
E1C0
C0C0
C000
C000
C000
C000
C0C0
E1C0
7F80
3F00
ENDCHAR
STARTCHAR 0064
ENCODING 100
SWIDTH 780 0
DWIDTH 13 0
BBX 10 15 1 2
BITMAP
00C0
00C0
00C0
3EC0
7FC0
E1C0
C0C0
C0C0
C0C0
C0C0
C0C0
C0C0
E1C0
7FC0
3EC0
ENDCHAR
STARTCHAR 0065
ENCODING 101
SWIDTH 780 0
DWIDTH 13 0
BBX 10 12 1 2
BITMAP
3F00
7F80
E1C0
C0C0
C0C0
C0C0
FFC0
FFC0
C000
E000
7FC0
3FC0
ENDCHAR
STARTCHAR 0066
ENCODING 102
SWIDTH 780 0
DWIDTH 13 0
BBX 10 15 1 2
BITMAP
1F00
3F80
71C0
60C0
6000
6000
FE00
FE00
6000
6000
6000
6000
6000
6000
6000
ENDCHAR
STARTCHAR 0067
ENCODING 103
SWIDTH 780 0
DWIDTH 13 0
BBX 10 14 1 0
BITMAP
3EC0
7FC0
E1C0
C0C0
C0C0
C0C0
C0C0
61C0
7FC0
3EC0
00C0
01C0
7F80
7F00
ENDCHAR
STARTCHAR 0068
ENCODING 104
SWIDTH 780 0
DWIDTH 13 0
BBX 10 15 1 2
BITMAP
C000
C000
C000
DF00
FF80
E1C0
C0C0
C0C0
C0C0
C0C0
C0C0
C0C0
C0C0
C0C0
C0C0
ENDCHAR
STARTCHAR 0069
ENCODING 105
SWIDTH 780 0
DWIDTH 13 0
BBX 6 15 3 2
BITMAP
30
30
00
F0
F0
30
30
30
30
30
30
30
30
FC
FC
ENDCHAR
STARTCHAR 006A
ENCODING 106
SWIDTH 780 0
DWIDTH 13 0
BBX 10 17 1 0
BITMAP
00C0
00C0
0000
00C0
00C0
00C0
00C0
00C0
00C0
00C0
00C0
00C0
C0C0
C0C0
E1C0
7F80
3F00
ENDCHAR
STARTCHAR 006B
ENCODING 107
SWIDTH 780 0
DWIDTH 13 0
BBX 10 15 1 2
BITMAP
C000
C000
C000
C0C0
C1C0
C380
C300
C600
CC00
DC00
FE00
F700
E380
C1C0
C0C0
ENDCHAR
STARTCHAR 006C
ENCODING 108
SWIDTH 780 0
DWIDTH 13 0
BBX 6 15 3 2
BITMAP
F0
F0
30
30
30
30
30
30
30
30
30
30
30
FC
FC
ENDCHAR
STARTCHAR 006D
ENCODING 109
SWIDTH 780 0
DWIDTH 13 0
BBX 10 12 1 2
BITMAP
DB00
FF80
EDC0
CCC0
CCC0
CCC0
CCC0
CCC0
CCC0
CCC0
CCC0
CCC0
ENDCHAR
STARTCHAR 006E
ENCODING 110
SWIDTH 780 0
DWIDTH 13 0
BBX 10 12 1 2
BITMAP
DF00
FF80
E1C0
C0C0
C0C0
C0C0
C0C0
C0C0
C0C0
C0C0
C0C0
C0C0
ENDCHAR
STARTCHAR 006F
ENCODING 111
SWIDTH 780 0
DWIDTH 13 0
BBX 10 12 1 2
BITMAP
3F00
7F80
E1C0
C0C0
C0C0
C0C0
C0C0
C0C0
C0C0
E1C0
7F80
3F00
ENDCHAR
STARTCHAR 0070
ENCODING 112
SWIDTH 780 0
DWIDTH 13 0
BBX 10 14 1 0
BITMAP
DF00
FF80
E1C0
C0C0
C0C0
C0C0
C0C0
C0C0
C0C0
E1C0
FF80
DF00
C000
C000
ENDCHAR
STARTCHAR 0071
ENCODING 113
SWIDTH 780 0
DWIDTH 13 0
BBX 10 14 1 0
BITMAP
3EC0
7FC0
E1C0
C0C0
C0C0
C0C0
C0C0
C0C0
C0C0
E1C0
7FC0
3EC0
00C0
00C0
ENDCHAR
STARTCHAR 0072
ENCODING 114
SWIDTH 780 0
DWIDTH 13 0
BBX 10 12 1 2
BITMAP
DF00
FF80
E1C0
C0C0
C0C0
C000
C000
C000
C000
C000
C000
C000
ENDCHAR
STARTCHAR 0073
ENCODING 115
SWIDTH 780 0
DWIDTH 13 0
BBX 10 12 1 2
BITMAP
3F00
7F80
E1C0
E0C0
6000
1C00
1F00
0780
C1C0
E1C0
7F80
3F00
ENDCHAR
STARTCHAR 0074
ENCODING 116
SWIDTH 780 0
DWIDTH 13 0
BBX 10 15 1 2
BITMAP
3000
3000
3000
FE00
FE00
3000
3000
3000
3000
3000
3000
30C0
39C0
1F80
0F00
ENDCHAR
STARTCHAR 0075
ENCODING 117
SWIDTH 780 0
DWIDTH 13 0
BBX 10 12 1 2
BITMAP
C0C0
C0C0
C0C0
C0C0
C0C0
C0C0
C0C0
C0C0
C0C0
E1C0
7FC0
3EC0
ENDCHAR
STARTCHAR 0076
ENCODING 118
SWIDTH 780 0
DWIDTH 13 0
BBX 10 12 1 2
BITMAP
C0C0
C0C0
C0C0
4080
6180
6180
3300
3300
1E00
1E00
0C00
0C00
ENDCHAR
STARTCHAR 0077
ENCODING 119
SWIDTH 780 0
DWIDTH 13 0
BBX 10 12 1 2
BITMAP
C0C0
C0C0
C0C0
CCC0
CCC0
CCC0
CCC0
CCC0
CCC0
FFC0
7F80
3300
ENDCHAR
STARTCHAR 0078
ENCODING 120
SWIDTH 780 0
DWIDTH 13 0
BBX 10 12 1 2
BITMAP
C0C0
E1C0
7380
3300
1E00
0C00
0C00
1E00
3F00
7380
E1C0
C0C0
ENDCHAR
STARTCHAR 0079
ENCODING 121
SWIDTH 780 0
DWIDTH 13 0
BBX 10 14 1 0
BITMAP
C0C0
C0C0
C0C0
C0C0
C0C0
C0C0
C0C0
E0C0
7FC0
3FC0
0180
0380
7F00
7E00
ENDCHAR
STARTCHAR 007A
ENCODING 122
SWIDTH 780 0
DWIDTH 13 0
BBX 10 12 1 2
BITMAP
FFC0
FFC0
0380
0300
0700
0E00
3800
3800
7000
E000
FFC0
FFC0
ENDCHAR
STARTCHAR 007B
ENCODING 123
SWIDTH 780 0
DWIDTH 13 0
BBX 7 15 2 2
BITMAP
0E
1E
38
30
30
30
E0
E0
20
30
30
30
38
1E
0E
ENDCHAR
STARTCHAR 007C
ENCODING 124
SWIDTH 780 0
DWIDTH 13 0
BBX 2 15 5 2
BITMAP
C0
C0
C0
C0
C0
C0
C0
C0
C0
C0
C0
C0
C0
C0
C0
ENDCHAR
STARTCHAR 007D
ENCODING 125
SWIDTH 780 0
DWIDTH 13 0
BBX 7 15 2 2
BITMAP
E0
F0
38
18
18
18
0E
0E
08
18
18
18
38
F0
E0
ENDCHAR
STARTCHAR 007E
ENCODING 126
SWIDTH 780 0
DWIDTH 13 0
BBX 10 4 1 6
BITMAP
78C0
FCC0
CFC0
C780
ENDCHAR
STARTCHAR 00A0
ENCODING 160
SWIDTH 780 0
DWIDTH 13 0
BBX 0 0 0 0
BITMAP
ENDCHAR
STARTCHAR 00A1
ENCODING 161
SWIDTH 780 0
DWIDTH 13 0
BBX 2 15 5 2
BITMAP
C0
C0
00
00
C0
C0
C0
C0
C0
C0
C0
C0
C0
C0
C0
ENDCHAR
STARTCHAR 00A2
ENCODING 162
SWIDTH 780 0
DWIDTH 13 0
BBX 10 14 1 1
BITMAP
0C00
3F00
7F80
EDC0
CCC0
CC00
CC00
CC00
CC00
CCC0
EDC0
7F80
3F00
0C00
ENDCHAR
STARTCHAR 00A3
ENCODING 163
SWIDTH 780 0
DWIDTH 13 0
BBX 10 15 1 2
BITMAP
0F00
1F80
39C0
30C0
3000
3000
7F00
7F00
3000
3000
7000
7000
E000
FFC0
FFC0
ENDCHAR
STARTCHAR 00A4
ENCODING 164
SWIDTH 780 0
DWIDTH 13 0
BBX 12 13 0 3
BITMAP
C030
EF70
7FE0
30C0
6060
6060
6060
6060
2040
30C0
7FE0
EF70
C030
ENDCHAR
STARTCHAR 00A5
ENCODING 165
SWIDTH 780 0
DWIDTH 13 0
BBX 10 15 1 2
BITMAP
C0C0
C0C0
6180
6180
3300
3300
1E00
1E00
1E00
7F80
7F80
0C00
7F80
7F80
0C00
ENDCHAR
STARTCHAR 00A6
ENCODING 166
SWIDTH 780 0
DWIDTH 13 0
BBX 2 15 5 2
BITMAP
C0
C0
C0
C0
C0
C0
00
00
00
C0
C0
C0
C0
C0
C0
ENDCHAR
STARTCHAR 00A7
ENCODING 167
SWIDTH 780 0
DWIDTH 13 0
BBX 10 15 1 2
BITMAP
3F00
7F80
E1C0
E000
7F00
7F80
E1C0
E1C0
6180
7F80
3F80
01C0
E1C0
7F80
3F00
ENDCHAR
STARTCHAR 00A8
ENCODING 168
SWIDTH 780 0
DWIDTH 13 0
BBX 6 2 3 15
BITMAP
CC
CC
ENDCHAR
STARTCHAR 00A9
ENCODING 169
SWIDTH 780 0
DWIDTH 13 0
BBX 10 12 1 2
BITMAP
3F00
7F80
E1C0
CCC0
DAC0
D8C0
D8C0
DAC0
CCC0
E1C0
7F80
3F00
ENDCHAR
STARTCHAR 00AA
ENCODING 170
SWIDTH 780 0
DWIDTH 13 0
BBX 6 5 3 12
BITMAP
7C
CC
CC
DC
6C
ENDCHAR
STARTCHAR 00AB
ENCODING 171
SWIDTH 780 0
DWIDTH 13 0
BBX 9 5 2 7
BITMAP
3180
6300
C600
6300
3180
ENDCHAR
STARTCHAR 00AC
ENCODING 172
SWIDTH 780 0
DWIDTH 13 0
BBX 12 4 0 10
BITMAP
FFF0
FFF0
0030
0030
ENDCHAR
STARTCHAR 00AD
ENCODING 173
SWIDTH 780 0
DWIDTH 13 0
BBX 10 2 1 12
BITMAP
FFC0
FFC0
ENDCHAR
STARTCHAR 00AE
ENCODING 174
SWIDTH 780 0
DWIDTH 13 0
BBX 10 12 1 5
BITMAP
3F00
7F80
E1C0
DCC0
DAC0
DCC0
D8C0
DAC0
C0C0
E1C0
7F80
3F00
ENDCHAR
STARTCHAR 00AF
ENCODING 175
SWIDTH 780 0
DWIDTH 13 0
BBX 6 2 3 15
BITMAP
FC
FC
ENDCHAR
STARTCHAR 00B0
ENCODING 176
SWIDTH 780 0
DWIDTH 13 0
BBX 5 4 3 13
BITMAP
70
D8
D8
70
ENDCHAR
STARTCHAR 00B1
ENCODING 177
SWIDTH 780 0
DWIDTH 13 0
BBX 10 14 1 2
BITMAP
0C00
0C00
0C00
0C00
FFC0
FFC0
0C00
0C00
0C00
0C00
0C00
0000
FFC0
FFC0
ENDCHAR
STARTCHAR 00B2
ENCODING 178
SWIDTH 780 0
DWIDTH 13 0
BBX 6 6 3 11
BITMAP
78
CC
0C
78
C0
FC
ENDCHAR
STARTCHAR 00B3
ENCODING 179
SWIDTH 780 0
DWIDTH 13 0
BBX 6 6 3 11
BITMAP
FC
0C
38
0C
CC
78
ENDCHAR
STARTCHAR 00B4
ENCODING 180
SWIDTH 780 0
DWIDTH 13 0
BBX 4 3 4 14
BITMAP
30
60
C0
ENDCHAR
STARTCHAR 00B5
ENCODING 181
SWIDTH 780 0
DWIDTH 13 0
BBX 10 14 1 0
BITMAP
C0C0
C0C0
C0C0
C0C0
C0C0
C0C0
C0C0
C0C0
C0C0
E1C0
FFC0
DEC0
C000
C000
ENDCHAR
STARTCHAR 00B6
ENCODING 182
SWIDTH 780 0
DWIDTH 13 0
BBX 9 15 2 2
BITMAP
3F80
7F80
F980
F980
F980
7980
3980
1980
1980
1980
1980
1980
1980
1980
1980
ENDCHAR
STARTCHAR 00B7
ENCODING 183
SWIDTH 780 0
DWIDTH 13 0
BBX 2 2 5 9
BITMAP
C0
C0
ENDCHAR
STARTCHAR 00B8
ENCODING 184
SWIDTH 780 0
DWIDTH 13 0
BBX 3 2 4 0
BITMAP
60
C0
ENDCHAR
STARTCHAR 00B9
ENCODING 185
SWIDTH 780 0
DWIDTH 13 0
BBX 4 6 4 11
BITMAP
60
E0
60
60
60
F0
ENDCHAR
STARTCHAR 00BA
ENCODING 186
SWIDTH 780 0
DWIDTH 13 0
BBX 6 6 3 11
BITMAP
78
CC
CC
CC
CC
78
ENDCHAR
STARTCHAR 00BB
ENCODING 187
SWIDTH 780 0
DWIDTH 13 0
BBX 9 5 2 7
BITMAP
C600
6300
3180
6300
C600
ENDCHAR
STARTCHAR 00BC
ENCODING 188
SWIDTH 780 0
DWIDTH 13 0
BBX 10 12 1 3
BITMAP
6180
E180
6180
6100
6200
F600
0C00
1AC0
36C0
66C0
C7C0
C0C0
ENDCHAR
STARTCHAR 00BD
ENCODING 189
SWIDTH 780 0
DWIDTH 13 0
BBX 10 12 1 3
BITMAP
6180
E180
6180
6100
6200
F600
0C00
1B80
30C0
6180
C300
C3C0
ENDCHAR
STARTCHAR 00BE
ENCODING 190
SWIDTH 780 0
DWIDTH 13 0
BBX 10 12 1 3
BITMAP
F180
3180
6180
3300
2200
E600
0C00
1AC0
36C0
66C0
C7C0
C0C0
ENDCHAR
STARTCHAR 00BF
ENCODING 191
SWIDTH 780 0
DWIDTH 13 0
BBX 10 15 1 2
BITMAP
0C00
0C00
0000
0000
0C00
1C00
1800
3000
6000
E000
C0C0
C0C0
E1C0
7F80
3F00
ENDCHAR
STARTCHAR 00C0
ENCODING 192
SWIDTH 780 0
DWIDTH 13 0
BBX 10 15 1 2
BITMAP
0C00
0600
1FC0
3FC0
70C0
60C0
C0C0
C0C0
C0C0
FFC0
FFC0
C0C0
C0C0
C0C0
C0C0
ENDCHAR
STARTCHAR 00C1
ENCODING 193
SWIDTH 780 0
DWIDTH 13 0
BBX 10 15 1 2
BITMAP
0300
0600
1FC0
3FC0
70C0
60C0
C0C0
C0C0
C0C0
C0C0
FFC0
FFC0
C0C0
C0C0
C0C0
ENDCHAR
STARTCHAR 00C2
ENCODING 194
SWIDTH 780 0
DWIDTH 13 0
BBX 10 15 1 2
BITMAP
1E00
3300
1FC0
3FC0
70C0
60C0
C0C0
C0C0
C0C0
FFC0
FFC0
C0C0
C0C0
C0C0
C0C0
ENDCHAR
STARTCHAR 00C3
ENCODING 195
SWIDTH 780 0
DWIDTH 13 0
BBX 10 15 1 2
BITMAP
1900
3F00
2600
1FC0
3FC0
70C0
60C0
C0C0
C0C0
FFC0
FFC0
C0C0
C0C0
C0C0
C0C0
ENDCHAR
STARTCHAR 00C4
ENCODING 196
SWIDTH 780 0
DWIDTH 13 0
BBX 10 15 1 2
BITMAP
1980
1980
1FC0
3FC0
70C0
60C0
C0C0
C0C0
C0C0
FFC0
FFC0
C0C0
C0C0
C0C0
C0C0
ENDCHAR
STARTCHAR 00C5
ENCODING 197
SWIDTH 780 0
DWIDTH 13 0
BBX 10 15 1 2
BITMAP
0F00
1980
0F00
1FC0
3FC0
70C0
60C0
C0C0
C0C0
C0C0
FFC0
FFC0
C0C0
C0C0
C0C0
ENDCHAR
STARTCHAR 00C6
ENCODING 198
SWIDTH 780 0
DWIDTH 13 0
BBX 12 15 0 2
BITMAP
1FF0
3FF0
7600
6600
C600
C600
FFE0
FFE0
C600
C600
C600
C600
C600
C7F0
C7F0
ENDCHAR
STARTCHAR 00C7
ENCODING 199
SWIDTH 780 0
DWIDTH 13 0
BBX 10 17 1 0
BITMAP
3F00
7F80
E1C0
C0C0
C000
C000
C000
C000
C000
C000
C000
C0C0
E1C0
7F80
3F00
0C00
1800
ENDCHAR
STARTCHAR 00C8
ENCODING 200
SWIDTH 780 0
DWIDTH 13 0
BBX 11 15 1 2
BITMAP
1800
0C00
FFE0
FFE0
C000
C000
C000
C000
FF80
FF80
C000
C000
C000
FFE0
FFE0
ENDCHAR
STARTCHAR 00C9
ENCODING 201
SWIDTH 780 0
DWIDTH 13 0
BBX 11 15 1 2
BITMAP
0600
0C00
FFE0
FFE0
C000
C000
C000
C000
FF80
FF80
C000
C000
C000
FFE0
FFE0
ENDCHAR
STARTCHAR 00CA
ENCODING 202
SWIDTH 780 0
DWIDTH 13 0
BBX 11 15 1 2
BITMAP
1E00
3300
FFE0
FFE0
C000
C000
C000
C000
FF00
FF00
C000
C000
C000
FFE0
FFE0
ENDCHAR
STARTCHAR 00CB
ENCODING 203
SWIDTH 780 0
DWIDTH 13 0
BBX 11 15 1 2
BITMAP
3300
3300
FFE0
FFE0
C000
C000
C000
C000
FF00
FF00
C000
C000
C000
FFE0
FFE0
ENDCHAR
STARTCHAR 00CC
ENCODING 204
SWIDTH 780 0
DWIDTH 13 0
BBX 6 15 3 2
BITMAP
60
30
FC
FC
30
30
30
30
30
30
30
30
30
FC
FC
ENDCHAR
STARTCHAR 00CD
ENCODING 205
SWIDTH 780 0
DWIDTH 13 0
BBX 6 15 3 2
BITMAP
18
30
FC
FC
30
30
30
30
30
30
30
30
30
FC
FC
ENDCHAR
STARTCHAR 00CE
ENCODING 206
SWIDTH 780 0
DWIDTH 13 0
BBX 6 15 3 2
BITMAP
78
CC
FC
FC
30
30
30
30
30
30
30
30
30
FC
FC
ENDCHAR
STARTCHAR 00CF
ENCODING 207
SWIDTH 780 0
DWIDTH 13 0
BBX 6 15 3 2
BITMAP
CC
CC
FC
FC
30
30
30
30
30
30
30
30
30
FC
FC
ENDCHAR
STARTCHAR 00D0
ENCODING 208
SWIDTH 780 0
DWIDTH 13 0
BBX 11 15 0 2
BITMAP
3F80
3FC0
30E0
3060
3060
3060
FC60
FC60
3060
3060
3060
3060
30E0
3FC0
3F80
ENDCHAR
STARTCHAR 00D1
ENCODING 209
SWIDTH 780 0
DWIDTH 13 0
BBX 10 15 1 2
BITMAP
1900
3F00
E6C0
C0C0
E0C0
F0C0
F0C0
D8C0
CCC0
CEC0
C7C0
C3C0
C1C0
C0C0
C0C0
ENDCHAR
STARTCHAR 00D2
ENCODING 210
SWIDTH 780 0
DWIDTH 13 0
BBX 10 15 1 2
BITMAP
1800
0C00
3F00
7F80
E1C0
C0C0
C0C0
C0C0
C0C0
C0C0
C0C0
C0C0
E1C0
7F80
3F00
ENDCHAR
STARTCHAR 00D3
ENCODING 211
SWIDTH 780 0
DWIDTH 13 0
BBX 10 15 1 2
BITMAP
0600
0C00
3F00
7F80
E1C0
C0C0
C0C0
C0C0
C0C0
C0C0
C0C0
C0C0
E1C0
7F80
3F00
ENDCHAR
STARTCHAR 00D4
ENCODING 212
SWIDTH 780 0
DWIDTH 13 0
BBX 10 15 1 2
BITMAP
1E00
3300
0000
3F00
7F80
E1C0
C0C0
C0C0
C0C0
C0C0
C0C0
C0C0
E1C0
7F80
3F00
ENDCHAR
STARTCHAR 00D5
ENCODING 213
SWIDTH 780 0
DWIDTH 13 0
BBX 10 15 1 2
BITMAP
1900
3F00
2600
3F00
7F80
E1C0
C0C0
C0C0
C0C0
C0C0
C0C0
C0C0
E1C0
7F80
3F00
ENDCHAR
STARTCHAR 00D6
ENCODING 214
SWIDTH 780 0
DWIDTH 13 0
BBX 10 15 1 2
BITMAP
3300
3300
3F00
7F80
E1C0
C0C0
C0C0
C0C0
C0C0
C0C0
C0C0
C0C0
E1C0
7F80
3F00
ENDCHAR
STARTCHAR 00D7
ENCODING 215
SWIDTH 780 0
DWIDTH 13 0
BBX 10 11 1 3
BITMAP
C0C0
E1C0
7380
3F00
1E00
1E00
1E00
3300
6180
E1C0
C0C0
ENDCHAR
STARTCHAR 00D8
ENCODING 216
SWIDTH 780 0
DWIDTH 13 0
BBX 10 15 1 2
BITMAP
3F00
7F80
E1C0
C3C0
C7C0
C7C0
C6C0
CCC0
D8C0
D8C0
F8C0
F0C0
E1C0
7F80
3F00
ENDCHAR
STARTCHAR 00D9
ENCODING 217
SWIDTH 780 0
DWIDTH 13 0
BBX 10 15 1 2
BITMAP
CCC0
C6C0
C0C0
C0C0
C0C0
C0C0
C0C0
C0C0
C0C0
C0C0
C0C0
C0C0
E1C0
7F80
3F00
ENDCHAR
STARTCHAR 00DA
ENCODING 218
SWIDTH 780 0
DWIDTH 13 0
BBX 10 15 1 2
BITMAP
C6C0
CCC0
C0C0
C0C0
C0C0
C0C0
C0C0
C0C0
C0C0
C0C0
C0C0
C0C0
E1C0
7F80
3F00
ENDCHAR
STARTCHAR 00DB
ENCODING 219
SWIDTH 780 0
DWIDTH 13 0
BBX 10 15 1 2
BITMAP
1E00
3300
C0C0
C0C0
C0C0
C0C0
C0C0
C0C0
C0C0
C0C0
C0C0
C0C0
E1C0
7F80
3F00
ENDCHAR
STARTCHAR 00DC
ENCODING 220
SWIDTH 780 0
DWIDTH 13 0
BBX 10 15 1 2
BITMAP
3300
3300
C0C0
C0C0
C0C0
C0C0
C0C0
C0C0
C0C0
C0C0
C0C0
C0C0
E1C0
7F80
3F00
ENDCHAR
STARTCHAR 00DD
ENCODING 221
SWIDTH 780 0
DWIDTH 13 0
BBX 10 15 1 2
BITMAP
C6C0
CCC0
6180
6180
3300
3300
1E00
1E00
0C00
0C00
0C00
0C00
0C00
0C00
0C00
ENDCHAR
STARTCHAR 00DE
ENCODING 222
SWIDTH 780 0
DWIDTH 13 0
BBX 10 15 1 2
BITMAP
C000
C000
DF00
FF80
E1C0
C0C0
C0C0
C0C0
C0C0
C0C0
E180
FF80
DF00
C000
C000
ENDCHAR
STARTCHAR 00DF
ENCODING 223
SWIDTH 780 0
DWIDTH 13 0
BBX 10 15 1 2
BITMAP
3E00
7F00
E380
C180
C180
C180
CF00
CF00
C180
C1C0
C0C0
C0C0
C1C0
DF80
DF00
ENDCHAR
STARTCHAR 00E0
ENCODING 224
SWIDTH 780 0
DWIDTH 13 0
BBX 10 15 1 2
BITMAP
0C00
0600
0000
3EC0
7FC0
E1C0
C0C0
C0C0
C0C0
C0C0
C0C0
C0C0
E1C0
7FC0
3EC0
ENDCHAR
STARTCHAR 00E1
ENCODING 225
SWIDTH 780 0
DWIDTH 13 0
BBX 10 15 1 2
BITMAP
0600
0C00
0000
3EC0
7FC0
E1C0
C0C0
C0C0
C0C0
C0C0
C0C0
C0C0
E1C0
7FC0
3EC0
ENDCHAR
STARTCHAR 00E2
ENCODING 226
SWIDTH 780 0
DWIDTH 13 0
BBX 10 15 1 2
BITMAP
1E00
3300
0000
3EC0
7FC0
E1C0
C0C0
C0C0
C0C0
C0C0
C0C0
C0C0
E1C0
7FC0
3EC0
ENDCHAR
STARTCHAR 00E3
ENCODING 227
SWIDTH 780 0
DWIDTH 13 0
BBX 10 15 1 2
BITMAP
1900
3F00
2600
3EC0
7FC0
E1C0
C0C0
C0C0
C0C0
C0C0
C0C0
C0C0
E1C0
7FC0
3EC0
ENDCHAR
STARTCHAR 00E4
ENCODING 228
SWIDTH 780 0
DWIDTH 13 0
BBX 10 15 1 2
BITMAP
3300
3300
0000
3EC0
7FC0
E1C0
C0C0
C0C0
C0C0
C0C0
C0C0
C0C0
E1C0
7FC0
3EC0
ENDCHAR
STARTCHAR 00E5
ENCODING 229
SWIDTH 780 0
DWIDTH 13 0
BBX 10 15 1 2
BITMAP
1E00
3300
1E00
3EC0
7FC0
E1C0
C0C0
C0C0
C0C0
C0C0
C0C0
C0C0
E1C0
7FC0
3EC0
ENDCHAR
STARTCHAR 00E6
ENCODING 230
SWIDTH 780 0
DWIDTH 13 0
BBX 12 12 0 2
BITMAP
79E0
FFF0
C630
0630
0630
0630
7FF0
FFF0
C600
C600
FFF0
7DF0
ENDCHAR
STARTCHAR 00E7
ENCODING 231
SWIDTH 780 0
DWIDTH 13 0
BBX 10 14 1 0
BITMAP
3F00
7F80
E1C0
C0C0
C000
C000
C000
C000
C0C0
E1C0
7F80
3F00
0C00
1800
ENDCHAR
STARTCHAR 00E8
ENCODING 232
SWIDTH 780 0
DWIDTH 13 0
BBX 10 15 1 2
BITMAP
1800
0C00
0000
3F00
7F80
E1C0
C0C0
C0C0
C0C0
FFC0
FFC0
C000
E000
7FC0
3FC0
ENDCHAR
STARTCHAR 00E9
ENCODING 233
SWIDTH 780 0
DWIDTH 13 0
BBX 10 15 1 2
BITMAP
0600
0C00
0000
3F00
7F80
E1C0
C0C0
C0C0
C0C0
FFC0
FFC0
C000
E000
7FC0
3FC0
ENDCHAR
STARTCHAR 00EA
ENCODING 234
SWIDTH 780 0
DWIDTH 13 0
BBX 10 15 1 2
BITMAP
1E00
3300
0000
3F00
7F80
E1C0
C0C0
C0C0
C0C0
FFC0
FFC0
C000
E000
7FC0
3FC0
ENDCHAR
STARTCHAR 00EB
ENCODING 235
SWIDTH 780 0
DWIDTH 13 0
BBX 10 15 1 2
BITMAP
3300
3300
0000
3F00
7F80
E1C0
C0C0
C0C0
C0C0
FFC0
FFC0
C000
E000
7FC0
3FC0
ENDCHAR
STARTCHAR 00EC
ENCODING 236
SWIDTH 780 0
DWIDTH 13 0
BBX 6 15 3 2
BITMAP
60
30
00
F0
F0
30
30
30
30
30
30
30
30
FC
FC
ENDCHAR
STARTCHAR 00ED
ENCODING 237
SWIDTH 780 0
DWIDTH 13 0
BBX 6 15 3 2
BITMAP
18
30
00
F0
F0
30
30
30
30
30
30
30
30
FC
FC
ENDCHAR
STARTCHAR 00EE
ENCODING 238
SWIDTH 780 0
DWIDTH 13 0
BBX 6 15 3 2
BITMAP
78
CC
00
F0
F0
30
30
30
30
30
30
30
30
FC
FC
ENDCHAR
STARTCHAR 00EF
ENCODING 239
SWIDTH 780 0
DWIDTH 13 0
BBX 6 15 3 2
BITMAP
CC
CC
00
F0
F0
30
30
30
30
30
30
30
30
FC
FC
ENDCHAR
STARTCHAR 00F0
ENCODING 240
SWIDTH 780 0
DWIDTH 13 0
BBX 11 15 1 2
BITMAP
0180
0180
07E0
07E0
0180
3D80
7F80
6380
C180
C180
C180
C180
E380
7F00
3E00
ENDCHAR
STARTCHAR 00F1
ENCODING 241
SWIDTH 780 0
DWIDTH 13 0
BBX 10 15 1 2
BITMAP
1900
3F00
2600
DF00
FF80
E1C0
C0C0
C0C0
C0C0
C0C0
C0C0
C0C0
C0C0
C0C0
C0C0
ENDCHAR
STARTCHAR 00F2
ENCODING 242
SWIDTH 780 0
DWIDTH 13 0
BBX 10 15 1 2
BITMAP
1800
0C00
0000
3F00
7F80
E1C0
C0C0
C0C0
C0C0
C0C0
C0C0
C0C0
E1C0
7F80
3F00
ENDCHAR
STARTCHAR 00F3
ENCODING 243
SWIDTH 780 0
DWIDTH 13 0
BBX 10 15 1 2
BITMAP
0600
0C00
0000
3F00
7F80
E1C0
C0C0
C0C0
C0C0
C0C0
C0C0
C0C0
E1C0
7F80
3F00
ENDCHAR
STARTCHAR 00F4
ENCODING 244
SWIDTH 780 0
DWIDTH 13 0
BBX 10 15 1 2
BITMAP
1E00
3300
0000
3F00
7F80
E1C0
C0C0
C0C0
C0C0
C0C0
C0C0
C0C0
E1C0
7F80
3F00
ENDCHAR
STARTCHAR 00F5
ENCODING 245
SWIDTH 780 0
DWIDTH 13 0
BBX 10 15 1 2
BITMAP
1900
3F00
2600
3F00
7F80
E1C0
C0C0
C0C0
C0C0
C0C0
C0C0
C0C0
E1C0
7F80
3F00
ENDCHAR
STARTCHAR 00F6
ENCODING 246
SWIDTH 780 0
DWIDTH 13 0
BBX 10 15 1 2
BITMAP
0E00
1B00
0000
3F00
7F80
E1C0
C0C0
C0C0
C0C0
C0C0
C0C0
C0C0
E1C0
7F80
3F00
ENDCHAR
STARTCHAR 00F7
ENCODING 247
SWIDTH 780 0
DWIDTH 13 0
BBX 10 11 1 3
BITMAP
0C00
0C00
0000
0000
FFC0
FFC0
0000
0000
0000
0C00
0C00
ENDCHAR
STARTCHAR 00F8
ENCODING 248
SWIDTH 780 0
DWIDTH 13 0
BBX 10 12 1 2
BITMAP
3F00
7F80
E3C0
C3C0
C7C0
CEC0
CCC0
DCC0
F8C0
F1C0
7F80
3F00
ENDCHAR
STARTCHAR 00F9
ENCODING 249
SWIDTH 780 0
DWIDTH 13 0
BBX 10 15 1 2
BITMAP
1800
0C00
0000
C0C0
C0C0
C0C0
C0C0
C0C0
C0C0
C0C0
C0C0
C0C0
E1C0
7FC0
3EC0
ENDCHAR
STARTCHAR 00FA
ENCODING 250
SWIDTH 780 0
DWIDTH 13 0
BBX 10 15 1 2
BITMAP
0600
0C00
0000
C0C0
C0C0
C0C0
C0C0
C0C0
C0C0
C0C0
C0C0
C0C0
E1C0
7FC0
3EC0
ENDCHAR
STARTCHAR 00FB
ENCODING 251
SWIDTH 780 0
DWIDTH 13 0
BBX 10 15 1 2
BITMAP
1E00
3300
0000
C0C0
C0C0
C0C0
C0C0
C0C0
C0C0
C0C0
C0C0
C0C0
E1C0
7FC0
3EC0
ENDCHAR
STARTCHAR 00FC
ENCODING 252
SWIDTH 780 0
DWIDTH 13 0
BBX 10 15 1 2
BITMAP
3300
3300
0000
C0C0
C0C0
C0C0
C0C0
C0C0
C0C0
C0C0
C0C0
C0C0
E1C0
7FC0
3EC0
ENDCHAR
STARTCHAR 00FD
ENCODING 253
SWIDTH 780 0
DWIDTH 13 0
BBX 10 16 1 0
BITMAP
0600
0C00
C0C0
C0C0
C0C0
C0C0
C0C0
C0C0
C0C0
E0C0
7FC0
3FC0
0180
0380
7F00
7E00
ENDCHAR
STARTCHAR 00FE
ENCODING 254
SWIDTH 780 0
DWIDTH 13 0
BBX 10 16 1 0
BITMAP
C000
C000
DF00
FF80
E1C0
C0C0
C0C0
C0C0
C0C0
C0C0
C0C0
E1C0
FF80
DF00
C000
C000
ENDCHAR
STARTCHAR 00FF
ENCODING 255
SWIDTH 780 0
DWIDTH 13 0
BBX 10 17 1 0
BITMAP
3300
3300
0000
C0C0
C0C0
C0C0
C0C0
C0C0
C0C0
C0C0
E0C0
7FC0
3FC0
0180
0380
7F00
7E00
ENDCHAR
STARTCHAR 0100
ENCODING 256
SWIDTH 780 0
DWIDTH 13 0
BBX 10 15 1 2
BITMAP
3F00
3F00
0000
1FC0
3FC0
70C0
60C0
C0C0
C0C0
FFC0
FFC0
C0C0
C0C0
C0C0
C0C0
ENDCHAR
STARTCHAR 0101
ENCODING 257
SWIDTH 780 0
DWIDTH 13 0
BBX 10 15 1 2
BITMAP
3F00
3F00
0000
3EC0
7FC0
E1C0
C0C0
C0C0
C0C0
C0C0
C0C0
C0C0
E1C0
7FC0
3EC0
ENDCHAR
STARTCHAR 0102
ENCODING 258
SWIDTH 780 0
DWIDTH 13 0
BBX 10 15 1 2
BITMAP
3300
1E00
1FC0
3FC0
70C0
60C0
C0C0
C0C0
C0C0
FFC0
FFC0
C0C0
C0C0
C0C0
C0C0
ENDCHAR
STARTCHAR 0103
ENCODING 259
SWIDTH 780 0
DWIDTH 13 0
BBX 10 15 1 2
BITMAP
3300
1E00
0000
3EC0
7FC0
E1C0
C0C0
C0C0
C0C0
C0C0
C0C0
C0C0
E1C0
7FC0
3EC0
ENDCHAR
STARTCHAR 0104
ENCODING 260
SWIDTH 780 0
DWIDTH 13 0
BBX 10 17 1 0
BITMAP
1FC0
3FC0
70C0
60C0
C0C0
C0C0
C0C0
C0C0
FFC0
FFC0
C0C0
C0C0
C0C0
C0C0
C1C0
0180
00C0
ENDCHAR
STARTCHAR 0105
ENCODING 261
SWIDTH 780 0
DWIDTH 13 0
BBX 11 14 1 0
BITMAP
3E00
3F00
0380
0180
3D80
3D80
6380
E380
C180
E380
7FC0
3EC0
00C0
0060
ENDCHAR
STARTCHAR 0106
ENCODING 262
SWIDTH 780 0
DWIDTH 13 0
BBX 10 15 1 2
BITMAP
0600
0C00
3F00
7F80
E1C0
C0C0
C000
C000
C000
C000
C000
C0C0
E1C0
7F80
3F00
ENDCHAR
STARTCHAR 0107
ENCODING 263
SWIDTH 780 0
DWIDTH 13 0
BBX 10 15 1 2
BITMAP
0600
0C00
0000
3F00
7F80
E1C0
C0C0
C000
C000
C000
C000
C0C0
E1C0
7F80
3F00
ENDCHAR
STARTCHAR 0108
ENCODING 264
SWIDTH 780 0
DWIDTH 13 0
BBX 10 15 1 2
BITMAP
1E00
3300
3F00
7F80
E1C0
C0C0
C000
C000
C000
C000
C000
C0C0
E1C0
7F80
3F00
ENDCHAR
STARTCHAR 0109
ENCODING 265
SWIDTH 780 0
DWIDTH 13 0
BBX 10 15 1 2
BITMAP
1E00
3300
0000
3F00
7F80
E1C0
C0C0
C000
C000
C000
C000
C0C0
E1C0
7F80
3F00
ENDCHAR
STARTCHAR 010A
ENCODING 266
SWIDTH 780 0
DWIDTH 13 0
BBX 10 15 1 2
BITMAP
0C00
0C00
3F00
7F80
E1C0
C0C0
C000
C000
C000
C000
C000
C0C0
E1C0
7F80
3F00
ENDCHAR
STARTCHAR 010B
ENCODING 267
SWIDTH 780 0
DWIDTH 13 0
BBX 10 15 1 2
BITMAP
0C00
0C00
0000
3F00
7F80
E1C0
C0C0
C000
C000
C000
C000
C0C0
E1C0
7F80
3F00
ENDCHAR
STARTCHAR 010C
ENCODING 268
SWIDTH 780 0
DWIDTH 13 0
BBX 10 15 1 2
BITMAP
3300
1E00
3F00
7F80
E1C0
C0C0
C000
C000
C000
C000
C000
C0C0
E1C0
7F80
3F00
ENDCHAR
STARTCHAR 010D
ENCODING 269
SWIDTH 780 0
DWIDTH 13 0
BBX 10 15 1 2
BITMAP
3300
1E00
0000
3F00
7F80
E1C0
C0C0
C000
C000
C000
C000
C0C0
E1C0
7F80
3F00
ENDCHAR
STARTCHAR 010E
ENCODING 270
SWIDTH 780 0
DWIDTH 13 0
BBX 10 15 1 2
BITMAP
3300
1E00
FF00
FF80
C1C0
C0C0
C0C0
C0C0
C0C0
C0C0
C0C0
C0C0
C1C0
FF80
FF00
ENDCHAR
STARTCHAR 010F
ENCODING 271
SWIDTH 780 0
DWIDTH 13 0
BBX 11 15 0 2
BITMAP
0360
0360
03C0
3B00
7F00
E700
C300
C300
C300
C300
C300
C300
E700
7F00
3B00
ENDCHAR
STARTCHAR 0110
ENCODING 272
SWIDTH 780 0
DWIDTH 13 0
BBX 11 15 0 2
BITMAP
3F80
3FC0
30C0
3060
3060
3060
FC60
FC60
3060
3060
3060
3060
30C0
3FC0
3F80
ENDCHAR
STARTCHAR 0111
ENCODING 273
SWIDTH 780 0
DWIDTH 13 0
BBX 11 15 1 2
BITMAP
0180
0180
07E0
07E0
0180
3D80
7F80
6380
C180
C180
C180
C180
E380
7F80
3D80
ENDCHAR
STARTCHAR 0112
ENCODING 274
SWIDTH 780 0
DWIDTH 13 0
BBX 11 15 1 2
BITMAP
3F00
3F00
0000
FFE0
FFE0
C000
C000
C000
FF00
FF00
C000
C000
C000
FFE0
FFE0
ENDCHAR
STARTCHAR 0113
ENCODING 275
SWIDTH 780 0
DWIDTH 13 0
BBX 10 15 1 2
BITMAP
3F00
3F00
0000
3F00
7F80
E1C0
C0C0
C0C0
C0C0
FFC0
FFC0
C000
E000
7FC0
3FC0
ENDCHAR
STARTCHAR 0114
ENCODING 276
SWIDTH 780 0
DWIDTH 13 0
BBX 11 15 1 2
BITMAP
3300
1E00
FFE0
FFE0
C000
C000
C000
C000
FF00
FF00
C000
C000
C000
FFE0
FFE0
ENDCHAR
STARTCHAR 0115
ENCODING 277
SWIDTH 780 0
DWIDTH 13 0
BBX 10 15 1 2
BITMAP
3300
1E00
0000
3F00
7F80
E1C0
C0C0
C0C0
C0C0
FFC0
FFC0
C000
E000
7FC0
3FC0
ENDCHAR
STARTCHAR 0116
ENCODING 278
SWIDTH 780 0
DWIDTH 13 0
BBX 11 15 1 2
BITMAP
0C00
0C00
FFE0
FFE0
C000
C000
C000
C000
FF00
FF00
C000
C000
C000
FFE0
FFE0
ENDCHAR
STARTCHAR 0117
ENCODING 279
SWIDTH 780 0
DWIDTH 13 0
BBX 10 15 1 2
BITMAP
0C00
0C00
0000
3F00
7F80
E1C0
C0C0
C0C0
C0C0
FFC0
FFC0
C000
E000
7FC0
3FC0
ENDCHAR
STARTCHAR 0118
ENCODING 280
SWIDTH 780 0
DWIDTH 13 0
BBX 10 17 1 0
BITMAP
FFC0
FFC0
C000
C000
C000
C000
FF00
FF00
C000
C000
C000
C000
C000
FF00
FF80
0180
00C0
ENDCHAR
STARTCHAR 0119
ENCODING 281
SWIDTH 780 0
DWIDTH 13 0
BBX 10 14 1 0
BITMAP
3F00
7F80
E1C0
C0C0
C0C0
FFC0
FFC0
C000
C000
E000
7E00
3F00
0300
0180
ENDCHAR
STARTCHAR 011A
ENCODING 282
SWIDTH 780 0
DWIDTH 13 0
BBX 11 15 1 2
BITMAP
3300
1E00
FFE0
FFE0
C000
C000
C000
C000
FF00
FF00
C000
C000
C000
FFE0
FFE0
ENDCHAR
STARTCHAR 011B
ENCODING 283
SWIDTH 780 0
DWIDTH 13 0
BBX 10 15 1 2
BITMAP
3300
1E00
0000
3F00
7F80
E1C0
C0C0
C0C0
C0C0
FFC0
FFC0
C000
E000
7FC0
3FC0
ENDCHAR
STARTCHAR 011C
ENCODING 284
SWIDTH 780 0
DWIDTH 13 0
BBX 10 15 1 2
BITMAP
1E00
3300
3F00
7F80
E1C0
C0C0
C000
C000
C7C0
C7C0
C0C0
C0C0
E1C0
7FC0
3EC0
ENDCHAR
STARTCHAR 011D
ENCODING 285
SWIDTH 780 0
DWIDTH 13 0
BBX 10 17 1 0
BITMAP
1E00
3300
0000
3EC0
7FC0
E1C0
C0C0
C0C0
C0C0
C0C0
61C0
7FC0
3EC0
00C0
01C0
7F80
7F00
ENDCHAR
STARTCHAR 011E
ENCODING 286
SWIDTH 780 0
DWIDTH 13 0
BBX 10 15 1 2
BITMAP
3300
1E00
3F00
7F80
E1C0
C0C0
C000
C000
C7C0
C7C0
C0C0
C0C0
E1C0
7FC0
3EC0
ENDCHAR
STARTCHAR 011F
ENCODING 287
SWIDTH 780 0
DWIDTH 13 0
BBX 10 17 1 0
BITMAP
3300
1E00
0000
3EC0
7FC0
E1C0
C0C0
C0C0
C0C0
C0C0
61C0
7FC0
3EC0
00C0
01C0
7F80
7F00
ENDCHAR
STARTCHAR 0120
ENCODING 288
SWIDTH 780 0
DWIDTH 13 0
BBX 10 15 1 2
BITMAP
0C00
0C00
3F00
7F80
E1C0
C0C0
C000
C000
C7C0
C7C0
C0C0
C0C0
E1C0
7FC0
3EC0
ENDCHAR
STARTCHAR 0121
ENCODING 289
SWIDTH 780 0
DWIDTH 13 0
BBX 10 17 1 0
BITMAP
0C00
0C00
0000
3EC0
7FC0
E1C0
C0C0
C0C0
C0C0
C0C0
61C0
7FC0
3EC0
00C0
01C0
7F80
7F00
ENDCHAR
STARTCHAR 0122
ENCODING 290
SWIDTH 780 0
DWIDTH 13 0
BBX 10 17 1 0
BITMAP
3F00
7F80
E1C0
C0C0
C000
C000
C7C0
C7C0
C0C0
C0C0
C0C0
C0C0
E1C0
7FC0
3EC0
0C00
1800
ENDCHAR
STARTCHAR 0123
ENCODING 291
SWIDTH 780 0
DWIDTH 13 0
BBX 10 17 1 0
BITMAP
0C00
0600
0600
3EC0
7FC0
E1C0
C0C0
C0C0
C0C0
C0C0
61C0
7FC0
3EC0
00C0
01C0
7F80
7F00
ENDCHAR
STARTCHAR 0124
ENCODING 292
SWIDTH 780 0
DWIDTH 13 0
BBX 10 15 1 2
BITMAP
1E00
3300
C0C0
C0C0
C0C0
C0C0
FFC0
FFC0
C0C0
C0C0
C0C0
C0C0
C0C0
C0C0
C0C0
ENDCHAR
STARTCHAR 0125
ENCODING 293
SWIDTH 780 0
DWIDTH 13 0
BBX 10 15 1 2
BITMAP
7800
CC00
3000
3000
3700
3F80
39C0
30C0
30C0
30C0
30C0
30C0
30C0
30C0
30C0
ENDCHAR
STARTCHAR 0126
ENCODING 294
SWIDTH 780 0
DWIDTH 13 0
BBX 13 15 0 2
BITMAP
30C0
30C0
FFF8
FFF8
30C0
30C0
3FC0
3FC0
30C0
30C0
30C0
30C0
30C0
30C0
30C0
ENDCHAR
STARTCHAR 0127
ENCODING 295
SWIDTH 780 0
DWIDTH 13 0
BBX 11 15 0 2
BITMAP
3000
3000
FC00
FC00
3000
3780
3FC0
38E0
3060
3060
3060
3060
3060
3060
3060
ENDCHAR
STARTCHAR 0128
ENCODING 296
SWIDTH 780 0
DWIDTH 13 0
BBX 6 15 3 2
BITMAP
64
FC
98
FC
FC
30
30
30
30
30
30
30
30
FC
FC
ENDCHAR
STARTCHAR 0129
ENCODING 297
SWIDTH 780 0
DWIDTH 13 0
BBX 6 15 3 2
BITMAP
64
FC
98
F0
F0
30
30
30
30
30
30
30
30
FC
FC
ENDCHAR
STARTCHAR 012A
ENCODING 298
SWIDTH 780 0
DWIDTH 13 0
BBX 6 15 3 2
BITMAP
FC
FC
00
FC
FC
30
30
30
30
30
30
30
30
FC
FC
ENDCHAR
STARTCHAR 012B
ENCODING 299
SWIDTH 780 0
DWIDTH 13 0
BBX 6 15 3 2
BITMAP
FC
FC
00
F0
F0
30
30
30
30
30
30
30
30
FC
FC
ENDCHAR
STARTCHAR 012C
ENCODING 300
SWIDTH 780 0
DWIDTH 13 0
BBX 6 15 3 2
BITMAP
CC
78
FC
FC
30
30
30
30
30
30
30
30
30
FC
FC
ENDCHAR
STARTCHAR 012D
ENCODING 301
SWIDTH 780 0
DWIDTH 13 0
BBX 6 15 3 2
BITMAP
CC
78
00
F0
F0
30
30
30
30
30
30
30
30
FC
FC
ENDCHAR
STARTCHAR 012E
ENCODING 302
SWIDTH 780 0
DWIDTH 13 0
BBX 6 17 3 0
BITMAP
FC
FC
30
30
30
30
30
30
30
30
30
30
30
FC
FC
30
18
ENDCHAR
STARTCHAR 012F
ENCODING 303
SWIDTH 780 0
DWIDTH 13 0
BBX 6 17 3 0
BITMAP
30
30
00
F0
F0
30
30
30
30
30
30
30
30
FC
FC
30
18
ENDCHAR
STARTCHAR 0130
ENCODING 304
SWIDTH 780 0
DWIDTH 13 0
BBX 6 15 3 2
BITMAP
30
30
FC
FC
30
30
30
30
30
30
30
30
30
FC
FC
ENDCHAR
STARTCHAR 0131
ENCODING 305
SWIDTH 780 0
DWIDTH 13 0
BBX 4 12 4 2
BITMAP
C0
E0
60
60
60
60
60
60
60
60
70
30
ENDCHAR
STARTCHAR 0132
ENCODING 306
SWIDTH 780 0
DWIDTH 13 0
BBX 11 15 0 2
BITMAP
F060
F060
6060
6060
6060
6060
F060
F060
0060
0060
0060
6060
70E0
3FC0
1F80
ENDCHAR
STARTCHAR 0133
ENCODING 307
SWIDTH 780 0
DWIDTH 13 0
BBX 11 17 0 0
BITMAP
6060
6060
0000
E060
E060
6060
6060
6060
F060
F060
0060
0060
0060
6060
70E0
3FC0
1F80
ENDCHAR
STARTCHAR 0134
ENCODING 308
SWIDTH 780 0
DWIDTH 13 0
BBX 11 15 1 2
BITMAP
03C0
0660
0000
0180
0180
0180
0180
0180
0180
0180
C180
C180
E380
7F00
3E00
ENDCHAR
STARTCHAR 0135
ENCODING 309
SWIDTH 780 0
DWIDTH 13 0
BBX 11 17 1 0
BITMAP
03C0
0660
0000
0180
0180
0180
0180
0180
0180
0180
0180
0180
C180
C180
E380
7F00
3E00
ENDCHAR
STARTCHAR 0136
ENCODING 310
SWIDTH 780 0
DWIDTH 13 0
BBX 10 17 1 0
BITMAP
C0C0
C0C0
C1C0
C380
C700
CE00
DC00
FE00
F700
E300
C180
C0C0
C0C0
C0C0
C0C0
0C00
1800
ENDCHAR
STARTCHAR 0137
ENCODING 311
SWIDTH 780 0
DWIDTH 13 0
BBX 10 17 1 0
BITMAP
C000
C000
C000
C0C0
C1C0
C380
C700
CE00
DC00
DC00
F600
E300
E380
C1C0
C0C0
0C00
1800
ENDCHAR
STARTCHAR 0138
ENCODING 312
SWIDTH 780 0
DWIDTH 13 0
BBX 10 12 1 2
BITMAP
C0C0
C1C0
C380
C300
C600
CC00
DC00
FE00
F700
E380
C1C0
C0C0
ENDCHAR
STARTCHAR 0139
ENCODING 313
SWIDTH 780 0
DWIDTH 13 0
BBX 11 15 1 2
BITMAP
6000
C000
0000
C000
C000
C000
C000
C000
C000
C000
C000
C000
C000
FFE0
FFE0
ENDCHAR
STARTCHAR 013A
ENCODING 314
SWIDTH 780 0
DWIDTH 13 0
BBX 7 15 2 2
BITMAP
18
30
00
F0
F0
30
30
30
30
30
30
30
38
1E
0E
ENDCHAR
STARTCHAR 013B
ENCODING 315
SWIDTH 780 0
DWIDTH 13 0
BBX 11 17 1 0
BITMAP
C000
C000
C000
C000
C000
C000
C000
C000
C000
C000
C000
C000
C000
FFE0
FFE0
0C00
1800
ENDCHAR
STARTCHAR 013C
ENCODING 316
SWIDTH 780 0
DWIDTH 13 0
BBX 6 17 3 0
BITMAP
F0
F0
30
30
30
30
30
30
30
30
30
30
30
FC
FC
30
60
ENDCHAR
STARTCHAR 013D
ENCODING 317
SWIDTH 780 0
DWIDTH 13 0
BBX 10 15 1 2
BITMAP
C0C0
C0C0
C180
C000
C000
C000
C000
C000
C000
C000
C000
C000
C000
FFC0
FFC0
ENDCHAR
STARTCHAR 013E
ENCODING 318
SWIDTH 780 0
DWIDTH 13 0
BBX 8 15 3 2
BITMAP
F3
F3
36
30
30
30
30
30
30
30
30
30
30
FC
FC
ENDCHAR
STARTCHAR 013F
ENCODING 319
SWIDTH 780 0
DWIDTH 13 0
BBX 10 15 1 2
BITMAP
C000
C000
C000
C000
C000
C000
C0C0
C0C0
C000
C000
C000
C000
C000
FFC0
FFC0
ENDCHAR
STARTCHAR 0140
ENCODING 320
SWIDTH 780 0
DWIDTH 13 0
BBX 8 15 3 2
BITMAP
F0
F0
30
30
30
30
33
33
30
30
30
30
30
FC
FC
ENDCHAR
STARTCHAR 0141
ENCODING 321
SWIDTH 780 0
DWIDTH 13 0
BBX 12 15 0 2
BITMAP
6000
6000
6000
6000
7000
7000
E000
E000
6000
6000
6000
6000
6000
7FF0
7FF0
ENDCHAR
STARTCHAR 0142
ENCODING 322
SWIDTH 780 0
DWIDTH 13 0
BBX 6 15 3 2
BITMAP
F0
F0
30
30
30
38
78
70
30
30
30
30
30
FC
FC
ENDCHAR
STARTCHAR 0143
ENCODING 323
SWIDTH 780 0
DWIDTH 13 0
BBX 10 15 1 2
BITMAP
C6C0
CCC0
C0C0
E0C0
F0C0
F8C0
D8C0
CCC0
C6C0
C7C0
C3C0
C1C0
C0C0
C0C0
C0C0
ENDCHAR
STARTCHAR 0144
ENCODING 324
SWIDTH 780 0
DWIDTH 13 0
BBX 10 15 1 2
BITMAP
0600
0C00
0000
DF00
FF80
E1C0
C0C0
C0C0
C0C0
C0C0
C0C0
C0C0
C0C0
C0C0
C0C0
ENDCHAR
STARTCHAR 0145
ENCODING 325
SWIDTH 780 0
DWIDTH 13 0
BBX 10 17 1 0
BITMAP
C0C0
C0C0
C0C0
E0C0
F0C0
F8C0
DCC0
CEC0
C7C0
C3C0
C1C0
C0C0
C0C0
C0C0
C0C0
0C00
1800
ENDCHAR
STARTCHAR 0146
ENCODING 326
SWIDTH 780 0
DWIDTH 13 0
BBX 10 14 1 0
BITMAP
DF00
FF80
E1C0
C0C0
C0C0
C0C0
C0C0
C0C0
C0C0
C0C0
C0C0
C0C0
0C00
1800
ENDCHAR
STARTCHAR 0147
ENCODING 327
SWIDTH 780 0
DWIDTH 13 0
BBX 10 15 1 2
BITMAP
3300
1E00
C0C0
C0C0
E0C0
F0C0
F0C0
D8C0
CCC0
CEC0
C7C0
C3C0
C1C0
C0C0
C0C0
ENDCHAR
STARTCHAR 0148
ENCODING 328
SWIDTH 780 0
DWIDTH 13 0
BBX 10 15 1 2
BITMAP
3300
1E00
0000
DF00
FF80
E1C0
C0C0
C0C0
C0C0
C0C0
C0C0
C0C0
C0C0
C0C0
C0C0
ENDCHAR
STARTCHAR 0149
ENCODING 329
SWIDTH 780 0
DWIDTH 13 0
BBX 11 15 0 2
BITMAP
6000
6000
C000
0000
6F80
7FC0
70E0
6060
6060
6060
6060
6060
6060
6060
6060
ENDCHAR
STARTCHAR 014A
ENCODING 330
SWIDTH 780 0
DWIDTH 13 0
BBX 10 17 1 0
BITMAP
C0C0
C0C0
C0C0
E0C0
F0C0
F8C0
DCC0
CEC0
C7C0
C3C0
C1C0
C0C0
C0C0
C0C0
C0C0
07C0
0780
ENDCHAR
STARTCHAR 014B
ENCODING 331
SWIDTH 780 0
DWIDTH 13 0
BBX 10 14 1 0
BITMAP
DF00
FF80
E1C0
C0C0
C0C0
C0C0
C0C0
C0C0
C0C0
C0C0
C0C0
C0C0
07C0
0780
ENDCHAR
STARTCHAR 014C
ENCODING 332
SWIDTH 780 0
DWIDTH 13 0
BBX 10 15 1 2
BITMAP
3F00
3F00
0000
3F00
7F80
E1C0
C0C0
C0C0
C0C0
C0C0
C0C0
C0C0
E1C0
7F80
3F00
ENDCHAR
STARTCHAR 014D
ENCODING 333
SWIDTH 780 0
DWIDTH 13 0
BBX 10 15 1 2
BITMAP
3F00
3F00
0000
3F00
7F80
E1C0
C0C0
C0C0
C0C0
C0C0
C0C0
C0C0
E1C0
7F80
3F00
ENDCHAR
STARTCHAR 014E
ENCODING 334
SWIDTH 780 0
DWIDTH 13 0
BBX 10 15 1 2
BITMAP
3300
1E00
3F00
7F80
E1C0
C0C0
C0C0
C0C0
C0C0
C0C0
C0C0
C0C0
E1C0
7F80
3F00
ENDCHAR
STARTCHAR 014F
ENCODING 335
SWIDTH 780 0
DWIDTH 13 0
BBX 10 15 1 2
BITMAP
3300
1E00
0000
3F00
7F80
E1C0
C0C0
C0C0
C0C0
C0C0
C0C0
C0C0
E1C0
7F80
3F00
ENDCHAR
STARTCHAR 0150
ENCODING 336
SWIDTH 780 0
DWIDTH 13 0
BBX 10 15 1 2
BITMAP
1980
3300
3F00
7F80
E1C0
C0C0
C0C0
C0C0
C0C0
C0C0
C0C0
C0C0
E1C0
7F80
3F00
ENDCHAR
STARTCHAR 0151
ENCODING 337
SWIDTH 780 0
DWIDTH 13 0
BBX 10 15 1 2
BITMAP
1980
3300
0000
3F00
7F80
E1C0
C0C0
C0C0
C0C0
C0C0
C0C0
C0C0
E1C0
7F80
3F00
ENDCHAR
STARTCHAR 0152
ENCODING 338
SWIDTH 780 0
DWIDTH 13 0
BBX 12 15 0 2
BITMAP
7BF0
FFF0
C600
C600
C600
C600
C7E0
C7E0
C600
C600
C600
C600
C600
FFF0
7BF0
ENDCHAR
STARTCHAR 0153
ENCODING 339
SWIDTH 780 0
DWIDTH 13 0
BBX 12 12 0 2
BITMAP
7BE0
FFF0
C630
C630
C630
C630
C7F0
C7F0
C600
C600
FFF0
7BF0
ENDCHAR
STARTCHAR 0154
ENCODING 340
SWIDTH 780 0
DWIDTH 13 0
BBX 10 15 1 2
BITMAP
0600
0C00
FF00
FF80
C1C0
C0C0
C0C0
C0C0
C180
FF00
FF00
C700
C380
C1C0
C0C0
ENDCHAR
STARTCHAR 0155
ENCODING 341
SWIDTH 780 0
DWIDTH 13 0
BBX 10 15 1 2
BITMAP
0600
0C00
0000
DF00
FF80
E1C0
C0C0
C0C0
C000
C000
C000
C000
C000
C000
C000
ENDCHAR
STARTCHAR 0156
ENCODING 342
SWIDTH 780 0
DWIDTH 13 0
BBX 10 17 1 0
BITMAP
FF00
FF80
C1C0
C0C0
C0C0
C0C0
C1C0
FF80
FF80
CE00
C600
C700
C380
C1C0
C0C0
0C00
1800
ENDCHAR
STARTCHAR 0157
ENCODING 343
SWIDTH 780 0
DWIDTH 13 0
BBX 11 14 0 0
BITMAP
6F80
7FC0
70E0
6060
6060
6000
6000
6000
6000
6000
6000
6000
6000
C000
ENDCHAR
STARTCHAR 0158
ENCODING 344
SWIDTH 780 0
DWIDTH 13 0
BBX 10 15 1 2
BITMAP
3300
1E00
FF00
FF80
C1C0
C0C0
C0C0
C0C0
C180
FF00
FF00
C700
C380
C1C0
C0C0
ENDCHAR
STARTCHAR 0159
ENCODING 345
SWIDTH 780 0
DWIDTH 13 0
BBX 10 15 1 2
BITMAP
3300
1E00
0000
DF00
FF80
E1C0
C0C0
C0C0
C000
C000
C000
C000
C000
C000
C000
ENDCHAR
STARTCHAR 015A
ENCODING 346
SWIDTH 780 0
DWIDTH 13 0
BBX 10 15 1 2
BITMAP
0600
0C00
3F00
7F80
E1C0
C0C0
C000
6000
3F00
3F80
01C0
C0C0
E1C0
7F80
3F00
ENDCHAR
STARTCHAR 015B
ENCODING 347
SWIDTH 780 0
DWIDTH 13 0
BBX 10 15 1 2
BITMAP
0600
0C00
0000
3F00
7F80
E1C0
E0C0
6000
1C00
1F00
0780
C1C0
E1C0
7F80
3F00
ENDCHAR
STARTCHAR 015C
ENCODING 348
SWIDTH 780 0
DWIDTH 13 0
BBX 10 15 1 2
BITMAP
1E00
3300
3F00
7F80
E1C0
C0C0
C000
6000
3F00
3F80
01C0
C0C0
E1C0
7F80
3F00
ENDCHAR
STARTCHAR 015D
ENCODING 349
SWIDTH 780 0
DWIDTH 13 0
BBX 10 15 1 2
BITMAP
1E00
3300
0000
3F00
7F80
E1C0
E0C0
6000
1C00
1F00
0780
C1C0
E1C0
7F80
3F00
ENDCHAR
STARTCHAR 015E
ENCODING 350
SWIDTH 780 0
DWIDTH 13 0
BBX 10 17 1 0
BITMAP
3F00
7F80
E1C0
C0C0
C000
E000
7F00
3F00
0180
00C0
00C0
C0C0
E1C0
7F80
3F00
0C00
1800
ENDCHAR
STARTCHAR 015F
ENCODING 351
SWIDTH 780 0
DWIDTH 13 0
BBX 10 14 1 0
BITMAP
3F00
7F80
E1C0
E0C0
7C00
1F00
0700
0180
C1C0
E1C0
7F80
3F00
0C00
1800
ENDCHAR
STARTCHAR 0160
ENCODING 352
SWIDTH 780 0
DWIDTH 13 0
BBX 10 15 1 2
BITMAP
3300
1E00
3F00
7F80
E1C0
C0C0
C000
6000
3F00
3F80
01C0
C0C0
E1C0
7F80
3F00
ENDCHAR
STARTCHAR 0161
ENCODING 353
SWIDTH 780 0
DWIDTH 13 0
BBX 10 15 1 2
BITMAP
3300
1E00
0000
3F00
7F80
E1C0
E0C0
6000
1C00
1F00
0780
C1C0
E1C0
7F80
3F00
ENDCHAR
STARTCHAR 0162
ENCODING 354
SWIDTH 780 0
DWIDTH 13 0
BBX 10 17 1 0
BITMAP
FFC0
FFC0
0C00
0C00
0C00
0C00
0C00
0C00
0C00
0C00
0C00
0C00
0C00
0C00
0C00
0C00
1800
ENDCHAR
STARTCHAR 0163
ENCODING 355
SWIDTH 780 0
DWIDTH 13 0
BBX 10 17 1 0
BITMAP
3000
3000
3000
FE00
FE00
3000
3000
3000
3000
3000
3000
30C0
39C0
1F80
0F00
0600
0C00
ENDCHAR
STARTCHAR 0164
ENCODING 356
SWIDTH 780 0
DWIDTH 13 0
BBX 10 15 1 2
BITMAP
3300
1E00
FFC0
FFC0
0C00
0C00
0C00
0C00
0C00
0C00
0C00
0C00
0C00
0C00
0C00
ENDCHAR
STARTCHAR 0165
ENCODING 357
SWIDTH 780 0
DWIDTH 13 0
BBX 10 15 1 2
BITMAP
30C0
30C0
3180
FE00
FE00
3000
3000
3000
3000
3000
3000
30C0
39C0
1F80
0F00
ENDCHAR
STARTCHAR 0166
ENCODING 358
SWIDTH 780 0
DWIDTH 13 0
BBX 10 15 1 2
BITMAP
FFC0
FFC0
0C00
0C00
0C00
0C00
3F00
3F00
0C00
0C00
0C00
0C00
0C00
0C00
0C00
ENDCHAR
STARTCHAR 0167
ENCODING 359
SWIDTH 780 0
DWIDTH 13 0
BBX 10 15 1 2
BITMAP
3000
3000
3000
FC00
FC00
3000
3000
3000
FC00
FC00
3000
30C0
39C0
1F80
0F00
ENDCHAR
STARTCHAR 0168
ENCODING 360
SWIDTH 780 0
DWIDTH 13 0
BBX 10 15 1 2
BITMAP
1900
3F00
2600
C0C0
C0C0
C0C0
C0C0
C0C0
C0C0
C0C0
C0C0
C0C0
E1C0
7F80
3F00
ENDCHAR
STARTCHAR 0169
ENCODING 361
SWIDTH 780 0
DWIDTH 13 0
BBX 10 15 1 2
BITMAP
1900
3F00
2600
C0C0
C0C0
C0C0
C0C0
C0C0
C0C0
C0C0
C0C0
C0C0
E1C0
7FC0
3EC0
ENDCHAR
STARTCHAR 016A
ENCODING 362
SWIDTH 780 0
DWIDTH 13 0
BBX 10 15 1 2
BITMAP
3F00
3F00
0000
C0C0
C0C0
C0C0
C0C0
C0C0
C0C0
C0C0
C0C0
C0C0
E1C0
7F80
3F00
ENDCHAR
STARTCHAR 016B
ENCODING 363
SWIDTH 780 0
DWIDTH 13 0
BBX 10 15 1 2
BITMAP
3F00
3F00
0000
C0C0
C0C0
C0C0
C0C0
C0C0
C0C0
C0C0
C0C0
C0C0
E1C0
7FC0
3EC0
ENDCHAR
STARTCHAR 016C
ENCODING 364
SWIDTH 780 0
DWIDTH 13 0
BBX 10 15 1 2
BITMAP
3300
1E00
C0C0
C0C0
C0C0
C0C0
C0C0
C0C0
C0C0
C0C0
C0C0
C0C0
E1C0
7F80
3F00
ENDCHAR
STARTCHAR 016D
ENCODING 365
SWIDTH 780 0
DWIDTH 13 0
BBX 10 15 1 2
BITMAP
3300
1E00
C0C0
C0C0
C0C0
C0C0
C0C0
C0C0
C0C0
C0C0
C0C0
C0C0
E1C0
7FC0
3EC0
ENDCHAR
STARTCHAR 016E
ENCODING 366
SWIDTH 780 0
DWIDTH 13 0
BBX 10 15 1 2
BITMAP
1E00
3300
1E00
C0C0
C0C0
C0C0
C0C0
C0C0
C0C0
C0C0
C0C0
C0C0
E1C0
7F80
3F00
ENDCHAR
STARTCHAR 016F
ENCODING 367
SWIDTH 780 0
DWIDTH 13 0
BBX 10 15 1 2
BITMAP
1E00
3300
1E00
C0C0
C0C0
C0C0
C0C0
C0C0
C0C0
C0C0
C0C0
C0C0
E1C0
7FC0
3EC0
ENDCHAR
STARTCHAR 0170
ENCODING 368
SWIDTH 780 0
DWIDTH 13 0
BBX 10 15 1 2
BITMAP
1980
3300
C0C0
C0C0
C0C0
C0C0
C0C0
C0C0
C0C0
C0C0
C0C0
C0C0
E1C0
7F80
3F00
ENDCHAR
STARTCHAR 0171
ENCODING 369
SWIDTH 780 0
DWIDTH 13 0
BBX 10 15 1 2
BITMAP
1980
3300
0000
C0C0
C0C0
C0C0
C0C0
C0C0
C0C0
C0C0
C0C0
C0C0
E1C0
7FC0
3EC0
ENDCHAR
STARTCHAR 0172
ENCODING 370
SWIDTH 780 0
DWIDTH 13 0
BBX 10 17 1 0
BITMAP
C0C0
C0C0
C0C0
C0C0
C0C0
C0C0
C0C0
C0C0
C0C0
C0C0
C0C0
C0C0
E1C0
7F80
3F00
0C00
0600
ENDCHAR
STARTCHAR 0173
ENCODING 371
SWIDTH 780 0
DWIDTH 13 0
BBX 11 14 1 0
BITMAP
C0C0
C0C0
C0C0
C0C0
C0C0
C0C0
C0C0
C0C0
C0C0
E1C0
7FC0
3EC0
00C0
0060
ENDCHAR
STARTCHAR 0174
ENCODING 372
SWIDTH 780 0
DWIDTH 13 0
BBX 10 15 1 2
BITMAP
1E00
3300
C0C0
C0C0
CCC0
CCC0
CCC0
CCC0
CCC0
CCC0
CCC0
CCC0
FFC0
7F80
3300
ENDCHAR
STARTCHAR 0175
ENCODING 373
SWIDTH 780 0
DWIDTH 13 0
BBX 10 15 1 2
BITMAP
1E00
3300
0000
C0C0
CCC0
CCC0
CCC0
CCC0
CCC0
CCC0
CCC0
CCC0
FFC0
7F80
3300
ENDCHAR
STARTCHAR 0176
ENCODING 374
SWIDTH 780 0
DWIDTH 13 0
BBX 10 15 1 2
BITMAP
1E00
3300
C0C0
C0C0
6180
6180
6180
3300
1200
1E00
1E00
0C00
0C00
0C00
0C00
ENDCHAR
STARTCHAR 0177
ENCODING 375
SWIDTH 780 0
DWIDTH 13 0
BBX 10 17 1 0
BITMAP
1E00
3300
0000
C0C0
C0C0
C0C0
C0C0
C0C0
C0C0
C0C0
E0C0
7FC0
3FC0
0180
0380
7F00
7E00
ENDCHAR
STARTCHAR 0178
ENCODING 376
SWIDTH 780 0
DWIDTH 13 0
BBX 10 15 1 2
BITMAP
3300
3300
C0C0
C0C0
6180
6180
6180
3300
1200
1E00
1E00
0C00
0C00
0C00
0C00
ENDCHAR
STARTCHAR 0179
ENCODING 377
SWIDTH 780 0
DWIDTH 13 0
BBX 10 15 1 2
BITMAP
0600
0C00
FFC0
FFC0
01C0
0380
0380
0700
0C00
3800
3800
7000
E000
FFC0
FFC0
ENDCHAR
STARTCHAR 017A
ENCODING 378
SWIDTH 780 0
DWIDTH 13 0
BBX 10 15 1 2
BITMAP
0600
0C00
0000
FFC0
FFC0
0380
0300
0700
0E00
3800
3800
7000
E000
FFC0
FFC0
ENDCHAR
STARTCHAR 017B
ENCODING 379
SWIDTH 780 0
DWIDTH 13 0
BBX 10 15 1 2
BITMAP
0C00
0C00
FFC0
FFC0
01C0
0380
0380
0700
0C00
3800
3800
7000
E000
FFC0
FFC0
ENDCHAR
STARTCHAR 017C
ENCODING 380
SWIDTH 780 0
DWIDTH 13 0
BBX 10 15 1 2
BITMAP
0C00
0C00
0000
FFC0
FFC0
0380
0300
0700
0E00
3800
3800
7000
E000
FFC0
FFC0
ENDCHAR
STARTCHAR 017D
ENCODING 381
SWIDTH 780 0
DWIDTH 13 0
BBX 10 15 1 2
BITMAP
3300
1E00
FFC0
FFC0
01C0
0380
0300
0700
0C00
3800
3800
7000
E000
FFC0
FFC0
ENDCHAR
STARTCHAR 017E
ENCODING 382
SWIDTH 780 0
DWIDTH 13 0
BBX 10 15 1 2
BITMAP
3300
1E00
0000
FFC0
FFC0
0380
0300
0700
0E00
3800
3800
7000
E000
FFC0
FFC0
ENDCHAR
STARTCHAR 017F
ENCODING 383
SWIDTH 780 0
DWIDTH 13 0
BBX 11 15 0 2
BITMAP
0F80
1FC0
38E0
3060
3000
F000
F000
3000
3000
3000
3000
3000
3000
3000
3000
ENDCHAR
STARTCHAR 0180
ENCODING 384
SWIDTH 780 0
DWIDTH 13 0
BBX 11 15 0 2
BITMAP
3000
3000
FC00
FC00
3000
3780
3FC0
38C0
3060
3060
3060
3060
38E0
3FC0
3780
ENDCHAR
STARTCHAR 0181
ENCODING 385
SWIDTH 780 0
DWIDTH 13 0
BBX 11 15 0 2
BITMAP
7F00
FF80
B1C0
30C0
30C0
31C0
3F80
3F80
30C0
30E0
3060
3060
30E0
3FC0
3F80
ENDCHAR
STARTCHAR 0182
ENCODING 386
SWIDTH 780 0
DWIDTH 13 0
BBX 10 15 1 2
BITMAP
FFC0
FFC0
C000
C000
C000
C000
FF00
FF00
C180
C0C0
C0C0
C0C0
C1C0
FF80
FF00
ENDCHAR
STARTCHAR 0183
ENCODING 387
SWIDTH 780 0
DWIDTH 13 0
BBX 10 15 1 2
BITMAP
FFC0
FFC0
C000
C000
DF00
FF80
E180
C0C0
C0C0
C0C0
C0C0
C0C0
E1C0
FF80
DF00
ENDCHAR
STARTCHAR 0184
ENCODING 388
SWIDTH 780 0
DWIDTH 13 0
BBX 10 15 1 2
BITMAP
6000
E000
E000
E000
6000
7F00
7F80
6180
60C0
60C0
60C0
60C0
61C0
7F80
7F00
ENDCHAR
STARTCHAR 0185
ENCODING 389
SWIDTH 780 0
DWIDTH 13 0
BBX 10 15 1 2
BITMAP
6000
E000
E000
E000
6F00
7F80
7180
60C0
60C0
60C0
60C0
60C0
71C0
7F80
6F00
ENDCHAR
STARTCHAR 0186
ENCODING 390
SWIDTH 780 0
DWIDTH 13 0
BBX 10 15 1 2
BITMAP
3F00
7F80
E1C0
C0C0
00C0
00C0
00C0
00C0
00C0
00C0
00C0
C0C0
E1C0
7F80
3F00
ENDCHAR
STARTCHAR 0187
ENCODING 391
SWIDTH 780 0
DWIDTH 13 0
BBX 12 15 1 2
BITMAP
3E10
7F70
E3C0
C180
C000
C000
C000
C000
C000
C000
C000
C180
E380
7F00
3E00
ENDCHAR
STARTCHAR 0188
ENCODING 392
SWIDTH 780 0
DWIDTH 13 0
BBX 12 12 1 2
BITMAP
3E00
7F10
E3F0
C1C0
C000
C000
C000
C000
C180
E380
7F00
3E00
ENDCHAR
STARTCHAR 0189
ENCODING 393
SWIDTH 780 0
DWIDTH 13 0
BBX 11 15 0 2
BITMAP
3F00
3FC0
30C0
3060
3060
3060
FC60
FC60
3060
3060
3060
3060
30C0
3FC0
3F00
ENDCHAR
STARTCHAR 018A
ENCODING 394
SWIDTH 780 0
DWIDTH 13 0
BBX 11 15 0 2
BITMAP
7F80
FFC0
B0E0
3060
3060
3060
3060
3060
3060
3060
3060
3060
30E0
3FC0
3F80
ENDCHAR
STARTCHAR 018B
ENCODING 395
SWIDTH 780 0
DWIDTH 13 0
BBX 10 15 1 2
BITMAP
FFC0
FFC0
00C0
00C0
00C0
00C0
3FC0
3FC0
60C0
C0C0
C0C0
C0C0
E0C0
7FC0
3FC0
ENDCHAR
STARTCHAR 018C
ENCODING 396
SWIDTH 780 0
DWIDTH 13 0
BBX 10 15 1 2
BITMAP
FFC0
FFC0
00C0
00C0
3EC0
7FC0
61C0
C0C0
C0C0
C0C0
C0C0
C0C0
E1C0
7FC0
3EC0
ENDCHAR
STARTCHAR 018D
ENCODING 397
SWIDTH 780 0
DWIDTH 13 0
BBX 10 15 1 2
BITMAP
3F00
7F80
E1C0
C0C0
C0C0
C1C0
C180
6300
3E00
3E00
3000
6000
7F80
3FC0
00C0
ENDCHAR
STARTCHAR 018E
ENCODING 398
SWIDTH 780 0
DWIDTH 13 0
BBX 11 15 1 2
BITMAP
FFE0
FFE0
0060
0060
0060
0060
1FE0
1FE0
0060
0060
0060
0060
0060
FFE0
FFE0
ENDCHAR
STARTCHAR 018F
ENCODING 399
SWIDTH 780 0
DWIDTH 13 0
BBX 10 15 1 2
BITMAP
3F00
7F80
E1C0
C0C0
00C0
00C0
FFC0
FFC0
C0C0
C0C0
C0C0
C0C0
E1C0
7F80
3F00
ENDCHAR
STARTCHAR 0190
ENCODING 400
SWIDTH 780 0
DWIDTH 13 0
BBX 10 15 1 2
BITMAP
3F00
7F80
E1C0
C0C0
C000
E000
7E00
7E00
6000
C000
C000
C0C0
E1C0
7F80
3F00
ENDCHAR
STARTCHAR 0191
ENCODING 401
SWIDTH 780 0
DWIDTH 13 0
BBX 12 17 0 0
BITMAP
1FF0
1FF0
1800
1800
1800
1800
1FC0
1FC0
1800
1800
1800
1800
1800
1800
1800
F800
F000
ENDCHAR
STARTCHAR 0192
ENCODING 402
SWIDTH 780 0
DWIDTH 13 0
BBX 10 17 1 0
BITMAP
0700
0F80
1DC0
18C0
1800
1800
3F00
3F00
1800
1800
1800
1800
1800
1800
3800
F000
E000
ENDCHAR
STARTCHAR 0193
ENCODING 403
SWIDTH 780 0
DWIDTH 13 0
BBX 12 15 1 2
BITMAP
3E10
7F70
E3C0
C180
C000
C000
CF80
CF80
C180
C180
C180
C180
E380
7F00
3E00
ENDCHAR
STARTCHAR 0194
ENCODING 404
SWIDTH 780 0
DWIDTH 13 0
BBX 10 17 1 0
BITMAP
C0C0
C0C0
C0C0
6180
6180
3300
3300
1E00
1E00
0C00
0C00
1E00
1200
3300
3300
3300
1E00
ENDCHAR
STARTCHAR 0195
ENCODING 405
SWIDTH 780 0
DWIDTH 13 0
BBX 12 15 0 2
BITMAP
C000
C000
C000
DC30
FE30
E630
C630
C630
C630
C630
C630
C630
C770
C3E0
C1C0
ENDCHAR
STARTCHAR 0196
ENCODING 406
SWIDTH 780 0
DWIDTH 13 0
BBX 6 15 3 2
BITMAP
C0
C0
C0
C0
C0
C0
C0
C0
C0
C0
C0
C0
CC
FC
78
ENDCHAR
STARTCHAR 0197
ENCODING 407
SWIDTH 780 0
DWIDTH 13 0
BBX 6 15 3 2
BITMAP
FC
FC
30
30
30
30
FC
FC
30
30
30
30
30
FC
FC
ENDCHAR
STARTCHAR 0198
ENCODING 408
SWIDTH 780 0
DWIDTH 13 0
BBX 12 15 1 2
BITMAP
C0C0
C1F0
C390
C700
C600
DC00
D800
F800
EC00
EE00
C700
C380
C1C0
C0C0
C0C0
ENDCHAR
STARTCHAR 0199
ENCODING 409
SWIDTH 780 0
DWIDTH 13 0
BBX 10 15 1 2
BITMAP
3C00
7C00
E000
C0C0
C1C0
C380
C300
C600
CC00
DC00
FE00
F700
E380
C1C0
C0C0
ENDCHAR
STARTCHAR 019A
ENCODING 410
SWIDTH 780 0
DWIDTH 13 0
BBX 6 15 3 2
BITMAP
F0
F0
30
30
30
30
FC
FC
30
30
30
30
30
FC
FC
ENDCHAR
STARTCHAR 019B
ENCODING 411
SWIDTH 780 0
DWIDTH 13 0
BBX 10 15 1 2
BITMAP
1800
1800
0C00
0C00
3F00
3F00
1E00
1A00
1B00
3300
3300
6180
6180
C0C0
C0C0
ENDCHAR
STARTCHAR 019C
ENCODING 412
SWIDTH 780 0
DWIDTH 13 0
BBX 10 15 1 2
BITMAP
CCC0
CCC0
CCC0
CCC0
CCC0
CCC0
CCC0
CCC0
CCC0
CCC0
CCC0
CCC0
EDC0
7FC0
36C0
ENDCHAR
STARTCHAR 019D
ENCODING 413
SWIDTH 780 0
DWIDTH 13 0
BBX 11 17 0 0
BITMAP
3060
3860
3860
3C60
3C60
3660
3660
3360
3360
3160
31E0
30E0
30E0
30E0
3060
F000
E000
ENDCHAR
STARTCHAR 019E
ENCODING 414
SWIDTH 780 0
DWIDTH 13 0
BBX 10 14 1 0
BITMAP
DF00
FF80
E1C0
C0C0
C0C0
C0C0
C0C0
C0C0
C0C0
C0C0
C0C0
C0C0
00C0
00C0
ENDCHAR
STARTCHAR 019F
ENCODING 415
SWIDTH 780 0
DWIDTH 13 0
BBX 10 15 1 2
BITMAP
3F00
7F80
E1C0
C0C0
C0C0
C0C0
FFC0
FFC0
C0C0
C0C0
C0C0
C0C0
E1C0
7F80
3F00
ENDCHAR
STARTCHAR 01A0
ENCODING 416
SWIDTH 780 0
DWIDTH 13 0
BBX 12 15 1 2
BITMAP
3E10
7F70
E3C0
C180
C180
C180
C180
C180
C180
C180
C180
C180
E380
7F00
3E00
ENDCHAR
STARTCHAR 01A1
ENCODING 417
SWIDTH 780 0
DWIDTH 13 0
BBX 12 12 1 2
BITMAP
3E10
7F70
E3C0
C180
C180
C180
C180
C180
C180
E380
7F00
3E00
ENDCHAR
STARTCHAR 01A2
ENCODING 418
SWIDTH 780 0
DWIDTH 13 0
BBX 10 17 1 0
BITMAP
3B80
7FC0
EEC0
C6C0
C6C0
C6C0
C6C0
C6C0
C6C0
C6C0
C6C0
C6C0
EEC0
7CC0
38C0
00C0
00C0
ENDCHAR
STARTCHAR 01A3
ENCODING 419
SWIDTH 780 0
DWIDTH 13 0
BBX 10 14 1 0
BITMAP
3B80
7FC0
EEC0
C6C0
C6C0
C6C0
C6C0
C6C0
C6C0
EEC0
7CC0
38C0
00C0
00C0
ENDCHAR
STARTCHAR 01A4
ENCODING 420
SWIDTH 780 0
DWIDTH 13 0
BBX 11 15 0 2
BITMAP
7F80
FFC0
B0E0
3060
3060
3060
3060
3060
3060
30E0
3FC0
3F80
3000
3000
3000
ENDCHAR
STARTCHAR 01A5
ENCODING 421
SWIDTH 780 0
DWIDTH 13 0
BBX 10 17 1 0
BITMAP
3C00
7C00
E000
C000
DF00
FF80
E1C0
C0C0
C0C0
C0C0
C0C0
C0C0
E180
FF80
DF00
C000
C000
ENDCHAR
STARTCHAR 01A6
ENCODING 422
SWIDTH 780 0
DWIDTH 13 0
BBX 10 17 1 0
BITMAP
C000
FF00
FF80
C1C0
C0C0
C0C0
C1C0
FF80
FF00
DC00
CC00
CE00
C700
C380
C1C0
00C0
00C0
ENDCHAR
STARTCHAR 01A7
ENCODING 423
SWIDTH 780 0
DWIDTH 13 0
BBX 11 15 0 2
BITMAP
3F80
7FC0
E0E0
C060
0060
00E0
3FC0
3F80
6000
C000
C000
C060
E0E0
7FC0
3F80
ENDCHAR
STARTCHAR 01A8
ENCODING 424
SWIDTH 780 0
DWIDTH 13 0
BBX 10 12 1 2
BITMAP
3F00
7F80
E1C0
C1C0
0180
0E00
3E00
7800
E0C0
E1C0
7F80
3F00
ENDCHAR
STARTCHAR 01A9
ENCODING 425
SWIDTH 780 0
DWIDTH 13 0
BBX 11 15 1 2
BITMAP
FFE0
FFE0
C000
E000
7000
3800
1C00
1C00
1800
7000
E000
E000
C000
FFE0
FFE0
ENDCHAR
STARTCHAR 01AA
ENCODING 426
SWIDTH 780 0
DWIDTH 13 0
BBX 10 17 1 0
BITMAP
3800
7C00
EE00
C600
C600
E600
7E00
3E00
0600
0600
0600
0600
0600
0600
0740
03C0
0180
ENDCHAR
STARTCHAR 01AB
ENCODING 427
SWIDTH 780 0
DWIDTH 13 0
BBX 10 17 1 0
BITMAP
3000
3000
3000
FE00
FE00
3000
3000
3000
3000
3000
3000
3000
3800
1F80
0FC0
00C0
0180
ENDCHAR
STARTCHAR 01AC
ENCODING 428
SWIDTH 780 0
DWIDTH 13 0
BBX 10 15 1 2
BITMAP
3FC0
7FC0
C600
8600
0600
0600
0600
0600
0600
0600
0600
0600
0600
0600
0600
ENDCHAR
STARTCHAR 01AD
ENCODING 429
SWIDTH 780 0
DWIDTH 13 0
BBX 10 15 1 2
BITMAP
1C00
3C00
7000
6000
FC00
FC00
6000
6000
6000
6000
6000
60C0
71C0
3F80
1F00
ENDCHAR
STARTCHAR 01AE
ENCODING 430
SWIDTH 780 0
DWIDTH 13 0
BBX 10 15 1 2
BITMAP
FFC0
FFC0
0C00
0C00
0C00
0C00
0C00
0C00
0C00
0C00
0C00
0C00
0C00
0F00
0700
ENDCHAR
STARTCHAR 01AF
ENCODING 431
SWIDTH 780 0
DWIDTH 13 0
BBX 12 15 1 2
BITMAP
C190
C1F0
C1E0
C180
C180
C180
C180
C180
C180
C180
C180
C180
E380
7F00
3E00
ENDCHAR
STARTCHAR 01B0
ENCODING 432
SWIDTH 780 0
DWIDTH 13 0
BBX 12 14 1 2
BITMAP
0010
0070
C1E0
C180
C180
C180
C180
C180
C180
C180
C180
E380
7F80
3D80
ENDCHAR
STARTCHAR 01B1
ENCODING 433
SWIDTH 780 0
DWIDTH 13 0
BBX 10 15 1 2
BITMAP
F3C0
F3C0
3300
3300
7380
E1C0
C0C0
C0C0
C0C0
C0C0
C0C0
C0C0
E1C0
7F80
3F00
ENDCHAR
STARTCHAR 01B2
ENCODING 434
SWIDTH 780 0
DWIDTH 13 0
BBX 10 15 1 2
BITMAP
C300
C380
C1C0
C0C0
C0C0
C0C0
C0C0
C0C0
C0C0
C0C0
C0C0
C0C0
E1C0
7F80
3F00
ENDCHAR
STARTCHAR 01B3
ENCODING 435
SWIDTH 780 0
DWIDTH 13 0
BBX 11 15 0 2
BITMAP
C060
E060
70C0
30C0
1980
1980
0F00
0F00
0600
0600
0600
0600
0600
0600
0600
ENDCHAR
STARTCHAR 01B4
ENCODING 436
SWIDTH 780 0
DWIDTH 13 0
BBX 12 17 1 0
BITMAP
0010
0070
0040
C0C0
C0C0
C0C0
C0C0
C0C0
C0C0
C0C0
E0C0
7FC0
3FC0
0180
0380
7F00
7E00
ENDCHAR
STARTCHAR 01B5
ENCODING 437
SWIDTH 780 0
DWIDTH 13 0
BBX 10 15 1 2
BITMAP
FFC0
FFC0
00C0
01C0
0380
0700
7F80
7F80
3800
7000
F000
E000
C000
FFC0
FFC0
ENDCHAR
STARTCHAR 01B6
ENCODING 438
SWIDTH 780 0
DWIDTH 13 0
BBX 10 12 1 2
BITMAP
FFC0
FFC0
0380
0300
0700
7F80
7F80
3800
7000
E000
FFC0
FFC0
ENDCHAR
STARTCHAR 01B7
ENCODING 439
SWIDTH 780 0
DWIDTH 13 0
BBX 10 15 1 2
BITMAP
FFC0
FFC0
01C0
0380
0700
0700
0E00
1F00
1F80
01C0
00C0
C0C0
E1C0
7F80
3F00
ENDCHAR
STARTCHAR 01B8
ENCODING 440
SWIDTH 780 0
DWIDTH 13 0
BBX 10 15 1 2
BITMAP
FFC0
FFC0
E000
7000
3800
3800
1C00
3E00
7E00
E000
C000
C0C0
E1C0
7F80
3F00
ENDCHAR
STARTCHAR 01B9
ENCODING 441
SWIDTH 780 0
DWIDTH 13 0
BBX 10 14 1 0
BITMAP
FFC0
FFC0
E000
7000
7000
3800
1C00
3E00
7E00
E000
C0C0
E1C0
7F80
3F00
ENDCHAR
STARTCHAR 01BA
ENCODING 442
SWIDTH 780 0
DWIDTH 13 0
BBX 10 14 1 0
BITMAP
FFC0
FFC0
01C0
0380
0700
1F00
1F00
0180
01C0
60C0
F1C0
9F80
CF00
6000
ENDCHAR
STARTCHAR 01BB
ENCODING 443
SWIDTH 780 0
DWIDTH 13 0
BBX 10 15 1 2
BITMAP
3F00
7F80
E1C0
C0C0
01C0
0380
FFC0
FFC0
1C00
3800
3800
7000
E000
FFC0
FFC0
ENDCHAR
STARTCHAR 01BC
ENCODING 444
SWIDTH 780 0
DWIDTH 13 0
BBX 10 15 1 2
BITMAP
FFC0
FFC0
C000
C000
C000
C000
FF00
FF00
0180
00C0
00C0
C0C0
E1C0
7F80
3F00
ENDCHAR
STARTCHAR 01BD
ENCODING 445
SWIDTH 780 0
DWIDTH 13 0
BBX 10 12 1 2
BITMAP
FFC0
FFC0
C000
FF00
FF00
0180
00C0
00C0
C0C0
E1C0
7F80
3F00
ENDCHAR
STARTCHAR 01BE
ENCODING 446
SWIDTH 780 0
DWIDTH 13 0
BBX 10 15 1 2
BITMAP
0C00
0C00
7F80
7F80
0C00
0E00
0600
0300
0180
01C0
C0C0
C0C0
E1C0
7F80
3F00
ENDCHAR
STARTCHAR 01BF
ENCODING 447
SWIDTH 780 0
DWIDTH 13 0
BBX 10 14 1 0
BITMAP
CF00
DF80
F1C0
E0C0
C0C0
C0C0
C0C0
C180
CF80
DF00
F000
E000
C000
C000
ENDCHAR
STARTCHAR 01C0
ENCODING 448
SWIDTH 780 0
DWIDTH 13 0
BBX 2 15 5 2
BITMAP
C0
C0
C0
C0
C0
C0
C0
C0
C0
C0
C0
C0
C0
C0
C0
ENDCHAR
STARTCHAR 01C1
ENCODING 449
SWIDTH 780 0
DWIDTH 13 0
BBX 6 15 3 2
BITMAP
CC
CC
CC
CC
CC
CC
CC
CC
CC
CC
CC
CC
CC
CC
CC
ENDCHAR
STARTCHAR 01C2
ENCODING 450
SWIDTH 780 0
DWIDTH 13 0
BBX 8 15 2 2
BITMAP
18
18
18
18
FF
FF
18
18
18
FF
FF
18
18
18
18
ENDCHAR
STARTCHAR 01C3
ENCODING 451
SWIDTH 780 0
DWIDTH 13 0
BBX 2 15 5 2
BITMAP
C0
C0
C0
C0
C0
C0
C0
C0
C0
C0
C0
00
00
C0
C0
ENDCHAR
STARTCHAR 01CD
ENCODING 461
SWIDTH 780 0
DWIDTH 13 0
BBX 10 15 1 2
BITMAP
3300
1E00
1FC0
3FC0
70C0
60C0
C0C0
C0C0
C0C0
FFC0
FFC0
C0C0
C0C0
C0C0
C0C0
ENDCHAR
STARTCHAR 01CE
ENCODING 462
SWIDTH 780 0
DWIDTH 13 0
BBX 10 15 1 2
BITMAP
3300
1E00
0000
3EC0
7FC0
E1C0
C0C0
C0C0
C0C0
C0C0
C0C0
C0C0
E1C0
7FC0
3EC0
ENDCHAR
STARTCHAR 01CF
ENCODING 463
SWIDTH 780 0
DWIDTH 13 0
BBX 6 15 3 2
BITMAP
CC
78
FC
FC
30
30
30
30
30
30
30
30
30
FC
FC
ENDCHAR
STARTCHAR 01D0
ENCODING 464
SWIDTH 780 0
DWIDTH 13 0
BBX 6 15 3 2
BITMAP
CC
78
00
F0
F0
30
30
30
30
30
30
30
30
FC
FC
ENDCHAR
STARTCHAR 01D1
ENCODING 465
SWIDTH 780 0
DWIDTH 13 0
BBX 10 15 1 2
BITMAP
3300
1E00
3F00
7F80
E1C0
C0C0
C0C0
C0C0
C0C0
C0C0
C0C0
C0C0
E1C0
7F80
3F00
ENDCHAR
STARTCHAR 01D2
ENCODING 466
SWIDTH 780 0
DWIDTH 13 0
BBX 10 15 1 2
BITMAP
3300
1E00
0000
3F00
7F80
E1C0
C0C0
C0C0
C0C0
C0C0
C0C0
C0C0
E1C0
7F80
3F00
ENDCHAR
STARTCHAR 01D3
ENCODING 467
SWIDTH 780 0
DWIDTH 13 0
BBX 10 15 1 2
BITMAP
3300
1E00
C0C0
C0C0
C0C0
C0C0
C0C0
C0C0
C0C0
C0C0
C0C0
C0C0
E1C0
7F80
3F00
ENDCHAR
STARTCHAR 01D4
ENCODING 468
SWIDTH 780 0
DWIDTH 13 0
BBX 10 15 1 2
BITMAP
3300
1E00
0000
C0C0
C0C0
C0C0
C0C0
C0C0
C0C0
C0C0
C0C0
C0C0
E1C0
7FC0
3EC0
ENDCHAR
STARTCHAR 01D5
ENCODING 469
SWIDTH 780 0
DWIDTH 13 0
BBX 10 15 1 2
BITMAP
3F00
3F00
3300
C0C0
C0C0
C0C0
C0C0
C0C0
C0C0
C0C0
C0C0
C0C0
E1C0
7F80
3F00
ENDCHAR
STARTCHAR 01D6
ENCODING 470
SWIDTH 780 0
DWIDTH 13 0
BBX 10 15 1 2
BITMAP
3F00
3F00
3300
C0C0
C0C0
C0C0
C0C0
C0C0
C0C0
C0C0
C0C0
C0C0
E1C0
7FC0
3EC0
ENDCHAR
STARTCHAR 01D7
ENCODING 471
SWIDTH 780 0
DWIDTH 13 0
BBX 10 15 1 2
BITMAP
0600
0C00
3300
3300
C0C0
C0C0
C0C0
C0C0
C0C0
C0C0
C0C0
C0C0
E1C0
7F80
3F00
ENDCHAR
STARTCHAR 01D8
ENCODING 472
SWIDTH 780 0
DWIDTH 13 0
BBX 10 15 1 2
BITMAP
0600
0C00
3300
3300
C0C0
C0C0
C0C0
C0C0
C0C0
C0C0
C0C0
C0C0
E1C0
7FC0
3EC0
ENDCHAR
STARTCHAR 01D9
ENCODING 473
SWIDTH 780 0
DWIDTH 13 0
BBX 10 15 1 2
BITMAP
3300
1E00
3300
3300
C0C0
C0C0
C0C0
C0C0
C0C0
C0C0
C0C0
C0C0
E1C0
7F80
3F00
ENDCHAR
STARTCHAR 01DA
ENCODING 474
SWIDTH 780 0
DWIDTH 13 0
BBX 10 15 1 2
BITMAP
3300
1E00
3300
3300
C0C0
C0C0
C0C0
C0C0
C0C0
C0C0
C0C0
C0C0
E1C0
7FC0
3EC0
ENDCHAR
STARTCHAR 01DB
ENCODING 475
SWIDTH 780 0
DWIDTH 13 0
BBX 10 15 1 2
BITMAP
1800
0C00
3300
3300
C0C0
C0C0
C0C0
C0C0
C0C0
C0C0
C0C0
C0C0
E1C0
7F80
3F00
ENDCHAR
STARTCHAR 01DC
ENCODING 476
SWIDTH 780 0
DWIDTH 13 0
BBX 10 15 1 2
BITMAP
1800
0C00
3300
3300
C0C0
C0C0
C0C0
C0C0
C0C0
C0C0
C0C0
C0C0
E1C0
7FC0
3EC0
ENDCHAR
STARTCHAR 01DD
ENCODING 477
SWIDTH 780 0
DWIDTH 13 0
BBX 10 12 1 2
BITMAP
FF00
FF80
01C0
00C0
00C0
FFC0
FFC0
C0C0
C0C0
E1C0
7F80
3F00
ENDCHAR
STARTCHAR 01DE
ENCODING 478
SWIDTH 780 0
DWIDTH 13 0
BBX 10 15 1 2
BITMAP
1F80
1F80
1980
1FC0
3FC0
70C0
60C0
C0C0
C0C0
C0C0
FFC0
FFC0
C0C0
C0C0
C0C0
ENDCHAR
STARTCHAR 01DF
ENCODING 479
SWIDTH 780 0
DWIDTH 13 0
BBX 10 15 1 2
BITMAP
3F00
3F00
3300
3E00
3F00
0380
0380
0180
3D80
7F80
E380
C180
E380
7FC0
3EC0
ENDCHAR
STARTCHAR 01E0
ENCODING 480
SWIDTH 780 0
DWIDTH 13 0
BBX 10 15 1 2
BITMAP
1F80
1F80
0600
1FC0
3FC0
70C0
60C0
C0C0
C0C0
C0C0
FFC0
FFC0
C0C0
C0C0
C0C0
ENDCHAR
STARTCHAR 01E1
ENCODING 481
SWIDTH 780 0
DWIDTH 13 0
BBX 10 15 1 2
BITMAP
3F00
3F00
0C00
3E00
3F00
0380
0180
0180
3D80
7F80
E380
C180
E380
7FC0
3EC0
ENDCHAR
STARTCHAR 01E2
ENCODING 482
SWIDTH 780 0
DWIDTH 13 0
BBX 12 15 0 2
BITMAP
1F80
1F80
0000
3FF0
7FF0
E600
C600
C600
FFE0
FFE0
C600
C600
C600
C7F0
C7F0
ENDCHAR
STARTCHAR 01E3
ENCODING 483
SWIDTH 780 0
DWIDTH 13 0
BBX 12 15 0 2
BITMAP
1F80
1F80
0000
79E0
FFF0
C630
0630
0630
0630
7FF0
FFF0
C600
C600
FFF0
7DF0
ENDCHAR
STARTCHAR 01E4
ENCODING 484
SWIDTH 780 0
DWIDTH 13 0
BBX 11 15 1 2
BITMAP
3E00
7F00
E380
C180
C000
C000
C180
C180
C7E0
C7E0
C180
C180
E380
7F80
3D80
ENDCHAR
STARTCHAR 01E5
ENCODING 485
SWIDTH 780 0
DWIDTH 13 0
BBX 11 14 1 0
BITMAP
3FC0
7FC0
E0C0
C1E0
C1E0
C0C0
C0C0
61C0
7FC0
3EC0
00C0
01C0
7F80
7F00
ENDCHAR
STARTCHAR 01E6
ENCODING 486
SWIDTH 780 0
DWIDTH 13 0
BBX 10 15 1 2
BITMAP
3300
1E00
3F00
7F80
E1C0
C0C0
C000
C000
C7C0
C7C0
C0C0
C0C0
E1C0
7FC0
3EC0
ENDCHAR
STARTCHAR 01E7
ENCODING 487
SWIDTH 780 0
DWIDTH 13 0
BBX 10 17 1 0
BITMAP
3300
1E00
0000
3EC0
7FC0
E1C0
C0C0
C0C0
C0C0
C0C0
61C0
7FC0
3EC0
00C0
01C0
7F80
7F00
ENDCHAR
STARTCHAR 01E8
ENCODING 488
SWIDTH 780 0
DWIDTH 13 0
BBX 10 15 1 2
BITMAP
3300
1E00
C0C0
C1C0
C380
C300
C600
CC00
DC00
FE00
F700
E380
C1C0
C0C0
C0C0
ENDCHAR
STARTCHAR 01E9
ENCODING 489
SWIDTH 780 0
DWIDTH 13 0
BBX 10 15 1 2
BITMAP
3300
1E00
C000
C0C0
C1C0
C380
C300
C600
CC00
DC00
FE00
F700
E380
C1C0
C0C0
ENDCHAR
STARTCHAR 01EA
ENCODING 490
SWIDTH 780 0
DWIDTH 13 0
BBX 10 17 1 0
BITMAP
3F00
7F80
E1C0
C0C0
C0C0
C0C0
C0C0
C0C0
C0C0
C0C0
C0C0
C0C0
E1C0
7F80
3F00
0C00
0600
ENDCHAR
STARTCHAR 01EB
ENCODING 491
SWIDTH 780 0
DWIDTH 13 0
BBX 10 14 1 0
BITMAP
3F00
7F80
E1C0
C0C0
C0C0
C0C0
C0C0
C0C0
C0C0
E1C0
7F80
3F00
0C00
0600
ENDCHAR
STARTCHAR 01EC
ENCODING 492
SWIDTH 780 0
DWIDTH 13 0
BBX 10 17 1 0
BITMAP
3F00
3F00
0000
3F00
7F80
E1C0
C0C0
C0C0
C0C0
C0C0
C0C0
C0C0
E1C0
7F80
3F00
0C00
0600
ENDCHAR
STARTCHAR 01ED
ENCODING 493
SWIDTH 780 0
DWIDTH 13 0
BBX 10 17 1 0
BITMAP
3F00
3F00
0000
3F00
7F80
E1C0
C0C0
C0C0
C0C0
C0C0
C0C0
C0C0
E1C0
7F80
3F00
0C00
0600
ENDCHAR
STARTCHAR 01EE
ENCODING 494
SWIDTH 780 0
DWIDTH 13 0
BBX 10 15 1 2
BITMAP
3300
1E00
FFC0
FFC0
0180
0100
0300
0600
1F00
1F80
01C0
C0C0
E1C0
7F80
3F00
ENDCHAR
STARTCHAR 01EF
ENCODING 495
SWIDTH 780 0
DWIDTH 13 0
BBX 10 17 1 0
BITMAP
3300
1E00
0000
FFC0
FFC0
0180
0300
0600
1F00
1F00
0180
00C0
00C0
C0C0
E1C0
7F80
3F00
ENDCHAR
STARTCHAR 01F0
ENCODING 496
SWIDTH 780 0
DWIDTH 13 0
BBX 10 17 1 0
BITMAP
0CC0
0780
0000
0300
0300
0300
0300
0300
0300
0300
0300
0300
C300
C300
E700
7E00
3C00
ENDCHAR
STARTCHAR 01F4
ENCODING 500
SWIDTH 780 0
DWIDTH 13 0
BBX 10 15 1 2
BITMAP
0600
0C00
3F00
7F80
E1C0
C0C0
C000
C000
C7C0
C7C0
C0C0
C0C0
E1C0
7FC0
3EC0
ENDCHAR
STARTCHAR 01F5
ENCODING 501
SWIDTH 780 0
DWIDTH 13 0
BBX 10 17 1 0
BITMAP
0600
0C00
0000
3EC0
7FC0
E1C0
C0C0
C0C0
C0C0
C0C0
61C0
7FC0
3EC0
00C0
01C0
7F80
7F00
ENDCHAR
STARTCHAR 01F6
ENCODING 502
SWIDTH 780 0
DWIDTH 13 0
BBX 11 15 0 2
BITMAP
C600
C600
C600
C600
C600
C600
FE60
FE60
C660
C660
C660
C660
C660
C7E0
C3C0
ENDCHAR
STARTCHAR 01F7
ENCODING 503
SWIDTH 780 0
DWIDTH 13 0
BBX 10 15 1 2
BITMAP
FF00
FF80
C1C0
C0C0
C0C0
C0C0
C0C0
C180
CF80
DF00
F800
F000
E000
C000
C000
ENDCHAR
STARTCHAR 01F8
ENCODING 504
SWIDTH 780 0
DWIDTH 13 0
BBX 10 15 1 2
BITMAP
ECC0
E6C0
F0C0
F0C0
D8C0
D8C0
C8C0
CCC0
C4C0
C6C0
C6C0
C3C0
C3C0
C1C0
C1C0
ENDCHAR
STARTCHAR 01F9
ENCODING 505
SWIDTH 780 0
DWIDTH 13 0
BBX 10 15 1 2
BITMAP
0C00
0600
0000
DF00
FF80
E1C0
C0C0
C0C0
C0C0
C0C0
C0C0
C0C0
C0C0
C0C0
C0C0
ENDCHAR
STARTCHAR 01FA
ENCODING 506
SWIDTH 780 0
DWIDTH 13 0
BBX 10 15 1 2
BITMAP
1B00
2600
1800
1FC0
3FC0
70C0
60C0
C0C0
C0C0
C0C0
FFC0
FFC0
C0C0
C0C0
C0C0
ENDCHAR
STARTCHAR 01FB
ENCODING 507
SWIDTH 780 0
DWIDTH 13 0
BBX 10 15 1 2
BITMAP
1B00
2600
1800
3EC0
7FC0
E1C0
C0C0
C0C0
C0C0
C0C0
C0C0
C0C0
E1C0
7FC0
3EC0
ENDCHAR
STARTCHAR 01FC
ENCODING 508
SWIDTH 780 0
DWIDTH 13 0
BBX 12 15 0 2
BITMAP
0300
0600
3FF0
7FF0
E600
C600
C600
C600
FFE0
FFE0
C600
C600
C600
C7F0
C7F0
ENDCHAR
STARTCHAR 01FD
ENCODING 509
SWIDTH 780 0
DWIDTH 13 0
BBX 12 15 0 2
BITMAP
0300
0600
0000
79E0
FFF0
C630
0630
0630
0630
7FF0
FFF0
C600
C600
FFF0
7DF0
ENDCHAR
STARTCHAR 01FE
ENCODING 510
SWIDTH 780 0
DWIDTH 13 0
BBX 10 15 1 2
BITMAP
0600
0C00
3F00
7F80
E1C0
C3C0
C3C0
C7C0
CCC0
F8C0
F8C0
F0C0
E1C0
7F80
3F00
ENDCHAR
STARTCHAR 01FF
ENCODING 511
SWIDTH 780 0
DWIDTH 13 0
BBX 10 15 1 2
BITMAP
0600
0C00
0000
3F00
7F80
E1C0
C1C0
C3C0
C7C0
DCC0
DCC0
F8C0
F1C0
7F80
3F00
ENDCHAR
STARTCHAR 0200
ENCODING 512
SWIDTH 780 0
DWIDTH 13 0
BBX 10 15 1 2
BITMAP
3600
1B00
1FC0
3FC0
70C0
60C0
C0C0
C0C0
C0C0
FFC0
FFC0
C0C0
C0C0
C0C0
C0C0
ENDCHAR
STARTCHAR 0201
ENCODING 513
SWIDTH 780 0
DWIDTH 13 0
BBX 10 15 1 2
BITMAP
6600
3300
0000
3EC0
7FC0
E1C0
C0C0
C0C0
C0C0
C0C0
C0C0
C0C0
E1C0
7FC0
3EC0
ENDCHAR
STARTCHAR 0202
ENCODING 514
SWIDTH 780 0
DWIDTH 13 0
BBX 10 15 1 2
BITMAP
1E00
3300
1FC0
3FC0
70C0
60C0
C0C0
C0C0
C0C0
FFC0
FFC0
C0C0
C0C0
C0C0
C0C0
ENDCHAR
STARTCHAR 0203
ENCODING 515
SWIDTH 780 0
DWIDTH 13 0
BBX 10 15 1 2
BITMAP
1E00
3300
0000
3EC0
7FC0
E1C0
C0C0
C0C0
C0C0
C0C0
C0C0
C0C0
E1C0
7FC0
3EC0
ENDCHAR
STARTCHAR 0204
ENCODING 516
SWIDTH 780 0
DWIDTH 13 0
BBX 11 15 1 2
BITMAP
3600
1B00
FFE0
FFE0
C000
C000
C000
C000
FF00
FF00
C000
C000
C000
FFE0
FFE0
ENDCHAR
STARTCHAR 0205
ENCODING 517
SWIDTH 780 0
DWIDTH 13 0
BBX 10 15 1 2
BITMAP
3600
1B00
0000
3F00
7F80
E1C0
C0C0
C0C0
C0C0
FFC0
FFC0
C000
E000
7FC0
3FC0
ENDCHAR
STARTCHAR 0206
ENCODING 518
SWIDTH 780 0
DWIDTH 13 0
BBX 11 15 1 2
BITMAP
1E00
3300
FFE0
FFE0
C000
C000
C000
C000
FF00
FF00
C000
C000
C000
FFE0
FFE0
ENDCHAR
STARTCHAR 0207
ENCODING 519
SWIDTH 780 0
DWIDTH 13 0
BBX 10 15 1 2
BITMAP
1E00
3300
0000
3F00
7F80
E1C0
C0C0
C0C0
C0C0
FFC0
FFC0
C000
E000
7FC0
3FC0
ENDCHAR
STARTCHAR 0208
ENCODING 520
SWIDTH 780 0
DWIDTH 13 0
BBX 6 15 3 2
BITMAP
D8
6C
FC
FC
30
30
30
30
30
30
30
30
30
FC
FC
ENDCHAR
STARTCHAR 0209
ENCODING 521
SWIDTH 780 0
DWIDTH 13 0
BBX 6 15 3 2
BITMAP
D8
6C
00
F0
F0
30
30
30
30
30
30
30
30
FC
FC
ENDCHAR
STARTCHAR 020A
ENCODING 522
SWIDTH 780 0
DWIDTH 13 0
BBX 6 15 3 2
BITMAP
78
CC
FC
FC
30
30
30
30
30
30
30
30
30
FC
FC
ENDCHAR
STARTCHAR 020B
ENCODING 523
SWIDTH 780 0
DWIDTH 13 0
BBX 6 15 3 2
BITMAP
78
CC
00
F0
F0
30
30
30
30
30
30
30
30
FC
FC
ENDCHAR
STARTCHAR 020C
ENCODING 524
SWIDTH 780 0
DWIDTH 13 0
BBX 10 15 1 2
BITMAP
6600
3300
3F00
7F80
E1C0
C0C0
C0C0
C0C0
C0C0
C0C0
C0C0
C0C0
E1C0
7F80
3F00
ENDCHAR
STARTCHAR 020D
ENCODING 525
SWIDTH 780 0
DWIDTH 13 0
BBX 10 15 1 2
BITMAP
6600
3300
0000
3F00
7F80
E1C0
C0C0
C0C0
C0C0
C0C0
C0C0
C0C0
E1C0
7F80
3F00
ENDCHAR
STARTCHAR 020E
ENCODING 526
SWIDTH 780 0
DWIDTH 13 0
BBX 10 15 1 2
BITMAP
1E00
3300
3F00
7F80
E1C0
C0C0
C0C0
C0C0
C0C0
C0C0
C0C0
C0C0
E1C0
7F80
3F00
ENDCHAR
STARTCHAR 020F
ENCODING 527
SWIDTH 780 0
DWIDTH 13 0
BBX 10 15 1 2
BITMAP
1E00
3300
0000
3F00
7F80
E1C0
C0C0
C0C0
C0C0
C0C0
C0C0
C0C0
E1C0
7F80
3F00
ENDCHAR
STARTCHAR 0210
ENCODING 528
SWIDTH 780 0
DWIDTH 13 0
BBX 10 15 1 2
BITMAP
6600
3300
FF00
FF80
C1C0
C0C0
C0C0
C0C0
C180
FF00
FF00
C700
C380
C1C0
C0C0
ENDCHAR
STARTCHAR 0211
ENCODING 529
SWIDTH 780 0
DWIDTH 13 0
BBX 10 15 1 2
BITMAP
6600
3300
0000
DF00
FF80
E1C0
C0C0
C000
C000
C000
C000
C000
C000
C000
C000
ENDCHAR
STARTCHAR 0212
ENCODING 530
SWIDTH 780 0
DWIDTH 13 0
BBX 10 15 1 2
BITMAP
1E00
3300
FF00
FF80
C1C0
C0C0
C0C0
C0C0
C180
FF00
FF00
C700
C380
C1C0
C0C0
ENDCHAR
STARTCHAR 0213
ENCODING 531
SWIDTH 780 0
DWIDTH 13 0
BBX 10 15 1 2
BITMAP
1E00
3300
0000
DF00
FF80
E1C0
C0C0
C000
C000
C000
C000
C000
C000
C000
C000
ENDCHAR
STARTCHAR 0214
ENCODING 532
SWIDTH 780 0
DWIDTH 13 0
BBX 10 15 1 2
BITMAP
6600
3300
C0C0
C0C0
C0C0
C0C0
C0C0
C0C0
C0C0
C0C0
C0C0
C0C0
E1C0
7F80
3F00
ENDCHAR
STARTCHAR 0215
ENCODING 533
SWIDTH 780 0
DWIDTH 13 0
BBX 10 15 1 2
BITMAP
6600
3300
0000
C0C0
C0C0
C0C0
C0C0
C0C0
C0C0
C0C0
C0C0
C0C0
E1C0
7FC0
3EC0
ENDCHAR
STARTCHAR 0216
ENCODING 534
SWIDTH 780 0
DWIDTH 13 0
BBX 10 15 1 2
BITMAP
1E00
3300
C0C0
C0C0
C0C0
C0C0
C0C0
C0C0
C0C0
C0C0
C0C0
C0C0
E1C0
7F80
3F00
ENDCHAR
STARTCHAR 0217
ENCODING 535
SWIDTH 780 0
DWIDTH 13 0
BBX 10 15 1 2
BITMAP
1E00
3300
0000
C0C0
C0C0
C0C0
C0C0
C0C0
C0C0
C0C0
C0C0
C0C0
E1C0
7FC0
3EC0
ENDCHAR
STARTCHAR 0218
ENCODING 536
SWIDTH 780 0
DWIDTH 13 0
BBX 10 17 1 0
BITMAP
3F00
7F80
E1C0
C0C0
E000
7F00
3F80
0180
00C0
00C0
C0C0
E1C0
3F00
3F00
0C00
0C00
1800
ENDCHAR
STARTCHAR 0219
ENCODING 537
SWIDTH 780 0
DWIDTH 13 0
BBX 10 14 1 0
BITMAP
3FC0
7FC0
E000
E000
7F00
3F00
0180
01C0
01C0
FF80
FF00
0C00
0C00
1800
ENDCHAR
STARTCHAR 021A
ENCODING 538
SWIDTH 780 0
DWIDTH 13 0
BBX 10 17 1 0
BITMAP
FFC0
FFC0
0C00
0C00
0C00
0C00
0C00
0C00
0C00
0C00
0C00
0C00
0C00
0000
0C00
0C00
1800
ENDCHAR
STARTCHAR 021B
ENCODING 539
SWIDTH 780 0
DWIDTH 13 0
BBX 10 17 1 0
BITMAP
3000
3000
3000
FE00
FE00
3000
3000
3000
3000
3000
30C0
39C0
1F80
0F00
0600
0600
0C00
ENDCHAR
STARTCHAR 021C
ENCODING 540
SWIDTH 780 0
DWIDTH 13 0
BBX 10 15 1 2
BITMAP
3F00
7F80
E1C0
C0C0
00C0
01C0
1F80
1F80
0180
00C0
00C0
00C0
C1C0
FF80
7F00
ENDCHAR
STARTCHAR 021D
ENCODING 541
SWIDTH 780 0
DWIDTH 13 0
BBX 10 14 1 0
BITMAP
3F00
7F80
E1C0
C0C0
01C0
1F80
1F80
0180
00C0
00C0
00C0
C1C0
FF80
7F00
ENDCHAR
STARTCHAR 021E
ENCODING 542
SWIDTH 780 0
DWIDTH 13 0
BBX 10 15 1 2
BITMAP
3300
1E00
C0C0
C0C0
C0C0
C0C0
C0C0
C0C0
FFC0
FFC0
C0C0
C0C0
C0C0
C0C0
C0C0
ENDCHAR
STARTCHAR 021F
ENCODING 543
SWIDTH 780 0
DWIDTH 13 0
BBX 9 15 1 2
BITMAP
3300
1E00
C000
C000
DE00
FF00
E380
C180
C180
C180
C180
C180
C180
C180
C180
ENDCHAR
STARTCHAR 0220
ENCODING 544
SWIDTH 780 0
DWIDTH 13 0
BBX 10 17 1 0
BITMAP
DF00
FF80
E1C0
C0C0
C0C0
C0C0
C0C0
C0C0
C0C0
C0C0
C0C0
C0C0
C0C0
C0C0
C0C0
00C0
00C0
ENDCHAR
STARTCHAR 0221
ENCODING 545
SWIDTH 780 0
DWIDTH 13 0
BBX 10 17 1 0
BITMAP
0300
0300
0300
3B00
7F00
E700
C300
C300
C300
C300
C300
C300
E780
7FC0
3B40
06C0
0380
ENDCHAR
STARTCHAR 0222
ENCODING 546
SWIDTH 780 0
DWIDTH 13 0
BBX 10 15 1 2
BITMAP
3300
6180
6180
3300
3F00
7F80
6180
E1C0
C0C0
C0C0
C0C0
C0C0
E1C0
7F80
3F00
ENDCHAR
STARTCHAR 0223
ENCODING 547
SWIDTH 780 0
DWIDTH 13 0
BBX 10 15 1 2
BITMAP
6180
6180
6180
3300
3F00
7F80
6180
E1C0
C0C0
C0C0
C0C0
C0C0
E1C0
7F80
3F00
ENDCHAR
STARTCHAR 0224
ENCODING 548
SWIDTH 780 0
DWIDTH 13 0
BBX 11 17 1 0
BITMAP
FFC0
FFC0
00C0
01C0
0380
0700
0E00
1C00
3800
7000
E000
C000
C000
FFC0
FFE0
0060
0060
ENDCHAR
STARTCHAR 0225
ENCODING 549
SWIDTH 780 0
DWIDTH 13 0
BBX 11 17 1 0
BITMAP
FFC0
FFC0
00C0
01C0
0380
0700
0E00
1C00
3800
7000
E000
C000
C000
FFC0
FFE0
0060
0060
ENDCHAR
STARTCHAR 0226
ENCODING 550
SWIDTH 780 0
DWIDTH 13 0
BBX 10 15 1 2
BITMAP
0600
0600
1FC0
3FC0
70C0
60C0
C0C0
C0C0
C0C0
FFC0
FFC0
C0C0
C0C0
C0C0
C0C0
ENDCHAR
STARTCHAR 0227
ENCODING 551
SWIDTH 780 0
DWIDTH 13 0
BBX 10 15 1 2
BITMAP
0C00
0C00
0000
3EC0
7FC0
E1C0
C0C0
C0C0
C0C0
C0C0
C0C0
C0C0
E1C0
7FC0
3EC0
ENDCHAR
STARTCHAR 0228
ENCODING 552
SWIDTH 780 0
DWIDTH 13 0
BBX 11 17 1 0
BITMAP
FFE0
FFE0
C000
C000
C000
C000
FF80
FF80
C000
C000
C000
C000
C000
FFE0
FFE0
0C00
1800
ENDCHAR
STARTCHAR 0229
ENCODING 553
SWIDTH 780 0
DWIDTH 13 0
BBX 10 14 1 0
BITMAP
3F00
7F80
E1C0
C0C0
C0C0
FFC0
FFC0
C000
E000
E000
7FC0
3FC0
0C00
1800
ENDCHAR
STARTCHAR 022A
ENCODING 554
SWIDTH 780 0
DWIDTH 13 0
BBX 10 15 1 2
BITMAP
3300
3F00
3F00
0000
3F00
7F80
6180
C0C0
C0C0
C0C0
C0C0
C0C0
E1C0
7F80
3F00
ENDCHAR
STARTCHAR 022B
ENCODING 555
SWIDTH 780 0
DWIDTH 13 0
BBX 10 15 1 2
BITMAP
3300
3F00
3F00
0000
3F00
7F80
6180
C0C0
C0C0
C0C0
C0C0
C0C0
E1C0
7F80
3F00
ENDCHAR
STARTCHAR 022C
ENCODING 556
SWIDTH 780 0
DWIDTH 13 0
BBX 10 15 1 2
BITMAP
1900
2600
3F00
0000
3F00
7F80
6180
C0C0
C0C0
C0C0
C0C0
C0C0
E1C0
7F80
3F00
ENDCHAR
STARTCHAR 022D
ENCODING 557
SWIDTH 780 0
DWIDTH 13 0
BBX 10 15 1 2
BITMAP
1900
2600
3F00
0000
3F00
7F80
6180
C0C0
C0C0
C0C0
C0C0
C0C0
E1C0
7F80
3F00
ENDCHAR
STARTCHAR 022E
ENCODING 558
SWIDTH 780 0
DWIDTH 13 0
BBX 10 15 1 2
BITMAP
0C00
0C00
3F00
7F80
E1C0
C0C0
C0C0
C0C0
C0C0
C0C0
C0C0
C0C0
E1C0
7F80
3F00
ENDCHAR
STARTCHAR 022F
ENCODING 559
SWIDTH 780 0
DWIDTH 13 0
BBX 10 15 1 2
BITMAP
0C00
0C00
0000
3F00
7F80
E1C0
C0C0
C0C0
C0C0
C0C0
C0C0
C0C0
E1C0
7F80
3F00
ENDCHAR
STARTCHAR 0230
ENCODING 560
SWIDTH 780 0
DWIDTH 13 0
BBX 10 15 1 2
BITMAP
0C00
3F00
3F00
0000
3F00
7F80
6180
C0C0
C0C0
C0C0
C0C0
C0C0
E1C0
7F80
3F00
ENDCHAR
STARTCHAR 0231
ENCODING 561
SWIDTH 780 0
DWIDTH 13 0
BBX 10 15 1 2
BITMAP
0C00
3F00
3F00
0000
3F00
7F80
6180
C0C0
C0C0
C0C0
C0C0
C0C0
E1C0
7F80
3F00
ENDCHAR
STARTCHAR 0232
ENCODING 562
SWIDTH 780 0
DWIDTH 13 0
BBX 10 15 1 2
BITMAP
3F00
3F00
C0C0
C0C0
6180
6180
6180
3300
1200
1E00
1E00
0C00
0C00
0C00
0C00
ENDCHAR
STARTCHAR 0233
ENCODING 563
SWIDTH 780 0
DWIDTH 13 0
BBX 10 17 1 0
BITMAP
3F00
3F00
0000
C0C0
C0C0
C0C0
C0C0
C0C0
C0C0
C0C0
E0C0
7FC0
3FC0
0180
0380
7F00
7E00
ENDCHAR
STARTCHAR 0234
ENCODING 564
SWIDTH 780 0
DWIDTH 13 0
BBX 7 17 3 0
BITMAP
F0
F0
30
30
30
30
30
30
30
30
30
30
7C
FE
B6
3E
1C
ENDCHAR
STARTCHAR 0235
ENCODING 565
SWIDTH 780 0
DWIDTH 13 0
BBX 12 14 0 0
BITMAP
DE00
FF00
E380
C180
C180
C180
C180
C180
C180
C3E0
C7F0
C5B0
01F0
00E0
ENDCHAR
STARTCHAR 0236
ENCODING 566
SWIDTH 780 0
DWIDTH 13 0
BBX 7 17 2 0
BITMAP
30
30
30
FE
FE
30
30
30
30
30
30
30
7C
FE
B6
3E
1C
ENDCHAR
STARTCHAR 0237
ENCODING 567
SWIDTH 780 0
DWIDTH 13 0
BBX 9 14 2 0
BITMAP
0780
0780
0180
0180
0180
0180
0180
0180
0180
C180
C180
E380
7F00
3E00
ENDCHAR
STARTCHAR 0238
ENCODING 568
SWIDTH 780 0
DWIDTH 13 0
BBX 12 15 0 2
BITMAP
0600
0600
0600
36C0
7FE0
EF70
C630
C630
C630
C630
C630
C630
EF70
7FE0
36C0
ENDCHAR
STARTCHAR 0239
ENCODING 569
SWIDTH 780 0
DWIDTH 13 0
BBX 12 14 0 0
BITMAP
36C0
7FE0
EF70
C630
C630
C630
C630
C630
C630
EF70
7FE0
36C0
0600
0600
ENDCHAR
STARTCHAR 023A
ENCODING 570
SWIDTH 780 0
DWIDTH 13 0
BBX 10 15 1 2
BITMAP
1FC0
3FC0
70C0
63C0
C3C0
C6C0
C6C0
C6C0
FFC0
FFC0
D8C0
D8C0
F0C0
F0C0
C0C0
ENDCHAR
STARTCHAR 023B
ENCODING 571
SWIDTH 780 0
DWIDTH 13 0
BBX 10 15 1 2
BITMAP
3F00
7F80
E1C0
C3C0
C700
C700
C600
CC00
D800
F800
F800
F0C0
E1C0
7F80
3F00
ENDCHAR
STARTCHAR 023C
ENCODING 572
SWIDTH 780 0
DWIDTH 13 0
BBX 10 12 1 2
BITMAP
3F00
7F80
E1C0
C1C0
C300
C700
DC00
DC00
F8C0
F1C0
7F80
3F00
ENDCHAR
STARTCHAR 023D
ENCODING 573
SWIDTH 780 0
DWIDTH 13 0
BBX 12 15 0 2
BITMAP
3000
3000
3000
FC00
FC00
3000
3000
3000
3000
3000
3000
3000
3000
3FF0
3FF0
ENDCHAR
STARTCHAR 023E
ENCODING 574
SWIDTH 780 0
DWIDTH 13 0
BBX 10 15 1 2
BITMAP
FFC0
FFC0
0C00
0C00
0C00
0C00
0F00
0F00
3C00
3C00
0C00
0C00
0C00
0C00
0C00
ENDCHAR
STARTCHAR 023F
ENCODING 575
SWIDTH 780 0
DWIDTH 13 0
BBX 10 14 1 0
BITMAP
3F00
7F80
E1C0
E0C0
7C00
1F00
0700
0180
C1C0
E1C0
7F80
3F00
1C00
0F00
ENDCHAR
STARTCHAR 0240
ENCODING 576
SWIDTH 780 0
DWIDTH 13 0
BBX 10 14 1 0
BITMAP
FFC0
FFC0
0380
0700
0E00
1C00
3800
3000
6000
E000
F000
F800
1F80
0F80
ENDCHAR
STARTCHAR 0241
ENCODING 577
SWIDTH 780 0
DWIDTH 13 0
BBX 10 15 1 2
BITMAP
3F00
7F80
E1C0
C0C0
C0C0
00C0
00C0
0180
0300
0700
0E00
0C00
0C00
0C00
0C00
ENDCHAR
STARTCHAR 0242
ENCODING 578
SWIDTH 780 0
DWIDTH 13 0
BBX 10 12 1 2
BITMAP
3F00
7F80
E1C0
C0C0
C0C0
0180
0300
0700
0E00
0C00
0C00
0C00
ENDCHAR
STARTCHAR 0243
ENCODING 579
SWIDTH 780 0
DWIDTH 13 0
BBX 11 15 0 2
BITMAP
7F00
7F80
61C0
60C0
60C0
61C0
7F80
7F80
60C0
60E0
F060
F060
60E0
7FC0
7F80
ENDCHAR
STARTCHAR 0244
ENCODING 580
SWIDTH 780 0
DWIDTH 13 0
BBX 13 15 0 2
BITMAP
6060
6060
6060
6060
6060
FFF8
FFF8
6060
6060
6060
6060
6060
70E0
3FC0
1F80
ENDCHAR
STARTCHAR 0245
ENCODING 581
SWIDTH 780 0
DWIDTH 13 0
BBX 10 15 1 2
BITMAP
0C00
0C00
1E00
1E00
1E00
1200
3300
3300
6180
6180
6180
6180
C0C0
C0C0
C0C0
ENDCHAR
STARTCHAR 0246
ENCODING 582
SWIDTH 780 0
DWIDTH 13 0
BBX 11 15 1 2
BITMAP
FFE0
FFE0
C180
C180
C300
C300
FF80
FF80
CC00
CC00
D800
D800
D800
FFE0
FFE0
ENDCHAR
STARTCHAR 0247
ENCODING 583
SWIDTH 780 0
DWIDTH 13 0
BBX 10 12 1 2
BITMAP
3F00
7F80
E1C0
C3C0
C3C0
C6C0
FFC0
FFC0
D800
F000
7FC0
3FC0
ENDCHAR
STARTCHAR 0248
ENCODING 584
SWIDTH 780 0
DWIDTH 13 0
BBX 11 15 1 2
BITMAP
00C0
00C0
00C0
01E0
01E0
00C0
00C0
00C0
00C0
00C0
C0C0
C0C0
E1C0
7F80
3F00
ENDCHAR
STARTCHAR 0249
ENCODING 585
SWIDTH 780 0
DWIDTH 13 0
BBX 11 17 1 0
BITMAP
00C0
00C0
0000
00C0
00C0
00C0
00C0
01E0
01E0
00C0
00C0
00C0
C0C0
C0C0
E1C0
7F80
3F00
ENDCHAR
STARTCHAR 024A
ENCODING 586
SWIDTH 780 0
DWIDTH 13 0
BBX 11 17 1 0
BITMAP
3EC0
7FC0
E1C0
C0C0
C0C0
C0C0
C0C0
C0C0
E1C0
E1C0
3EC0
3EC0
00C0
00C0
00C0
00E0
0060
ENDCHAR
STARTCHAR 024B
ENCODING 587
SWIDTH 780 0
DWIDTH 13 0
BBX 11 14 1 0
BITMAP
3EC0
7FC0
E1C0
C0C0
C0C0
C0C0
C0C0
C0C0
61C0
7FC0
3EC0
00C0
00E0
0060
ENDCHAR
STARTCHAR 024C
ENCODING 588
SWIDTH 780 0
DWIDTH 13 0
BBX 11 15 0 2
BITMAP
3F80
3FC0
30E0
3060
3060
3060
3060
30C0
FFC0
FF80
3700
3380
31C0
30E0
3060
ENDCHAR
STARTCHAR 024D
ENCODING 589
SWIDTH 780 0
DWIDTH 13 0
BBX 11 12 0 2
BITMAP
6F80
7FC0
70E0
6060
6060
6000
F000
F000
6000
6000
6000
6000
ENDCHAR
STARTCHAR 024E
ENCODING 590
SWIDTH 780 0
DWIDTH 13 0
BBX 10 15 1 2
BITMAP
C0C0
C0C0
6180
FFC0
FFC0
3300
1E00
1E00
0C00
0C00
0C00
0C00
0C00
0C00
0C00
ENDCHAR
STARTCHAR 024F
ENCODING 591
SWIDTH 780 0
DWIDTH 13 0
BBX 10 14 1 0
BITMAP
C0C0
C0C0
6180
FFC0
FFC0
3300
1200
1E00
1E00
0C00
0C00
1800
1800
3000
ENDCHAR
STARTCHAR 0250
ENCODING 592
SWIDTH 780 0
DWIDTH 13 0
BBX 10 12 1 2
BITMAP
DF00
FF80
71C0
60C0
60C0
7180
7F80
6F00
6000
7000
3F00
1F00
ENDCHAR
STARTCHAR 0251
ENCODING 593
SWIDTH 780 0
DWIDTH 13 0
BBX 10 12 1 2
BITMAP
3FC0
7FC0
E0C0
C0C0
C0C0
C0C0
C0C0
C1C0
C3C0
E7C0
7EC0
3CC0
ENDCHAR
STARTCHAR 0252
ENCODING 594
SWIDTH 780 0
DWIDTH 13 0
BBX 10 12 1 2
BITMAP
CF00
DF80
F9C0
F0C0
E0C0
C0C0
C0C0
C0C0
C0C0
C1C0
FF80
FF00
ENDCHAR
STARTCHAR 0253
ENCODING 595
SWIDTH 780 0
DWIDTH 13 0
BBX 10 15 1 2
BITMAP
3F80
7F80
E000
C000
C000
DF00
FF80
E180
C0C0
C0C0
C0C0
C0C0
E1C0
FF80
DF00
ENDCHAR
STARTCHAR 0254
ENCODING 596
SWIDTH 780 0
DWIDTH 13 0
BBX 10 12 1 2
BITMAP
3F00
7F80
E1C0
C0C0
00C0
00C0
00C0
00C0
C0C0
E1C0
7F80
3F00
ENDCHAR
STARTCHAR 0255
ENCODING 597
SWIDTH 780 0
DWIDTH 13 0
BBX 10 14 1 0
BITMAP
3F00
7F80
E1C0
C0C0
C000
C000
C000
C380
C7C0
EEC0
7FC0
3F80
1800
1800
ENDCHAR
STARTCHAR 0256
ENCODING 598
SWIDTH 780 0
DWIDTH 13 0
BBX 11 17 1 0
BITMAP
0180
0180
0180
3D80
7F80
E380
C180
C180
C180
C180
C180
C180
E380
7F80
3D80
01E0
00E0
ENDCHAR
STARTCHAR 0257
ENCODING 599
SWIDTH 780 0
DWIDTH 13 0
BBX 11 15 1 2
BITMAP
00E0
01E0
0180
3D80
7F80
E380
C180
C180
C180
C180
C180
C180
E380
7F80
3D80
ENDCHAR
STARTCHAR 0258
ENCODING 600
SWIDTH 780 0
DWIDTH 13 0
BBX 10 12 1 2
BITMAP
3F00
7F80
E1C0
C0C0
C0C0
C0C0
FFC0
FFC0
00C0
01C0
FF80
FF00
ENDCHAR
STARTCHAR 0259
ENCODING 601
SWIDTH 780 0
DWIDTH 13 0
BBX 10 12 1 2
BITMAP
FF00
FF80
01C0
00C0
00C0
FFC0
FFC0
C0C0
C0C0
E1C0
7F80
3F00
ENDCHAR
STARTCHAR 025A
ENCODING 602
SWIDTH 780 0
DWIDTH 13 0
BBX 11 12 1 2
BITMAP
FC00
FE00
0700
0300
0300
FFE0
FFE0
C360
C360
E700
7E00
3C00
ENDCHAR
STARTCHAR 025B
ENCODING 603
SWIDTH 780 0
DWIDTH 13 0
BBX 10 12 1 2
BITMAP
3F00
7F80
E1C0
C0C0
4000
7C00
7C00
E000
C0C0
E1C0
7F80
3F00
ENDCHAR
STARTCHAR 025C
ENCODING 604
SWIDTH 780 0
DWIDTH 13 0
BBX 10 12 1 2
BITMAP
3F00
7F80
E1C0
C0C0
0080
0F80
0F80
01C0
C0C0
E1C0
7F80
3F00
ENDCHAR
STARTCHAR 025D
ENCODING 605
SWIDTH 780 0
DWIDTH 13 0
BBX 11 12 1 2
BITMAP
3DE0
7FE0
E760
C360
0200
0E00
0E00
0700
C300
E700
7E00
3C00
ENDCHAR
STARTCHAR 025E
ENCODING 606
SWIDTH 780 0
DWIDTH 13 0
BBX 10 12 1 2
BITMAP
3F00
7F80
E1C0
C0C0
C080
DF80
DF80
C1C0
C0C0
E1C0
7F80
3F00
ENDCHAR
STARTCHAR 025F
ENCODING 607
SWIDTH 780 0
DWIDTH 13 0
BBX 10 14 1 0
BITMAP
0300
0300
1FC0
1FC0
0300
0300
0300
0300
0300
0300
C300
E700
7E00
3C00
ENDCHAR
STARTCHAR 0260
ENCODING 608
SWIDTH 780 0
DWIDTH 13 0
BBX 11 17 1 0
BITMAP
00E0
01E0
0180
3D80
7F80
E380
C180
C180
C180
C180
6380
7F80
3D80
0180
0380
7F00
7E00
ENDCHAR
STARTCHAR 0261
ENCODING 609
SWIDTH 780 0
DWIDTH 13 0
BBX 10 14 1 0
BITMAP
3EC0
7FC0
E1C0
C0C0
C0C0
C0C0
C0C0
61C0
7FC0
3EC0
00C0
01C0
7F80
7F00
ENDCHAR
STARTCHAR 0262
ENCODING 610
SWIDTH 780 0
DWIDTH 13 0
BBX 10 12 1 2
BITMAP
3F00
7F80
E1C0
C0C0
C000
C000
CFC0
CFC0
C0C0
E0C0
7FC0
3FC0
ENDCHAR
STARTCHAR 0263
ENCODING 611
SWIDTH 780 0
DWIDTH 13 0
BBX 10 14 1 0
BITMAP
C0C0
C0C0
6180
6180
3300
3300
1200
1E00
0C00
1E00
1E00
3300
3300
1E00
ENDCHAR
STARTCHAR 0264
ENCODING 612
SWIDTH 780 0
DWIDTH 13 0
BBX 10 12 1 2
BITMAP
C0C0
C0C0
E1C0
6180
3300
1E00
1E00
0C00
1E00
3300
3300
1E00
ENDCHAR
STARTCHAR 0265
ENCODING 613
SWIDTH 780 0
DWIDTH 13 0
BBX 10 14 1 0
BITMAP
C0C0
C0C0
C0C0
C0C0
C0C0
C0C0
C0C0
C0C0
C0C0
E1C0
7FC0
3EC0
00C0
00C0
ENDCHAR
STARTCHAR 0266
ENCODING 614
SWIDTH 780 0
DWIDTH 13 0
BBX 10 15 1 2
BITMAP
3F00
7F80
E1C0
C0C0
C000
DF00
FF80
E1C0
C0C0
C0C0
C0C0
C0C0
C0C0
C0C0
C0C0
ENDCHAR
STARTCHAR 0267
ENCODING 615
SWIDTH 780 0
DWIDTH 13 0
BBX 10 17 1 0
BITMAP
3F00
7F80
E1C0
C0C0
C000
DF00
FF80
E1C0
C0C0
C0C0
C0C0
C0C0
C0C0
C0C0
C1C0
0F80
0F00
ENDCHAR
STARTCHAR 0268
ENCODING 616
SWIDTH 780 0
DWIDTH 13 0
BBX 6 15 3 2
BITMAP
30
30
00
30
30
30
30
30
FC
FC
30
30
30
30
30
ENDCHAR
STARTCHAR 0269
ENCODING 617
SWIDTH 780 0
DWIDTH 13 0
BBX 6 12 5 2
BITMAP
C0
C0
C0
C0
C0
C0
C0
C0
C0
CC
FC
78
ENDCHAR
STARTCHAR 026A
ENCODING 618
SWIDTH 780 0
DWIDTH 13 0
BBX 6 12 3 2
BITMAP
FC
FC
30
30
30
30
30
30
30
30
FC
FC
ENDCHAR
STARTCHAR 026B
ENCODING 619
SWIDTH 780 0
DWIDTH 13 0
BBX 6 15 3 2
BITMAP
FC
FC
30
30
30
74
FC
B8
30
30
30
30
30
FC
FC
ENDCHAR
STARTCHAR 026C
ENCODING 620
SWIDTH 780 0
DWIDTH 13 0
BBX 7 15 2 2
BITMAP
7E
7E
18
18
78
F8
D8
D8
7E
7E
18
18
18
7E
7E
ENDCHAR
STARTCHAR 026D
ENCODING 621
SWIDTH 780 0
DWIDTH 13 0
BBX 6 17 5 0
BITMAP
C0
C0
C0
C0
C0
C0
C0
C0
C0
C0
C0
C0
C0
C0
CC
FC
78
ENDCHAR
STARTCHAR 026E
ENCODING 622
SWIDTH 780 0
DWIDTH 13 0
BBX 10 17 1 0
BITMAP
C000
C000
C000
FFC0
FFC0
C0C0
C1C0
C380
C700
C700
C180
C0C0
C0C0
F0C0
F9C0
1F80
0F00
ENDCHAR
STARTCHAR 026F
ENCODING 623
SWIDTH 780 0
DWIDTH 13 0
BBX 10 12 1 2
BITMAP
CCC0
CCC0
CCC0
CCC0
CCC0
CCC0
CCC0
CCC0
CCC0
EDC0
7FC0
36C0
ENDCHAR
STARTCHAR 0270
ENCODING 624
SWIDTH 780 0
DWIDTH 13 0
BBX 10 14 1 0
BITMAP
CCC0
CCC0
CCC0
CCC0
CCC0
CCC0
CCC0
CCC0
CCC0
EDC0
7FC0
36C0
00C0
00C0
ENDCHAR
STARTCHAR 0271
ENCODING 625
SWIDTH 780 0
DWIDTH 13 0
BBX 10 14 1 0
BITMAP
DB00
FF80
EDC0
CCC0
CCC0
CCC0
CCC0
CCC0
CCC0
CCC0
CCC0
C1C0
0780
0700
ENDCHAR
STARTCHAR 0272
ENCODING 626
SWIDTH 780 0
DWIDTH 13 0
BBX 10 14 1 0
BITMAP
3700
3F80
39C0
30C0
30C0
30C0
30C0
30C0
30C0
30C0
30C0
30C0
F000
E000
ENDCHAR
STARTCHAR 0273
ENCODING 627
SWIDTH 780 0
DWIDTH 13 0
BBX 10 14 1 0
BITMAP
DC00
FE00
E700
C300
C300
C300
C300
C300
C300
C300
C300
C300
03C0
01C0
ENDCHAR
STARTCHAR 0274
ENCODING 628
SWIDTH 780 0
DWIDTH 13 0
BBX 10 12 1 2
BITMAP
C0C0
E0C0
F0C0
F0C0
D8C0
CCC0
CEC0
C7C0
C3C0
C1C0
C0C0
C0C0
ENDCHAR
STARTCHAR 0275
ENCODING 629
SWIDTH 780 0
DWIDTH 13 0
BBX 10 12 1 2
BITMAP
3F00
7F80
E1C0
C0C0
C0C0
FFC0
FFC0
C0C0
C0C0
E1C0
7F80
3F00
ENDCHAR
STARTCHAR 0276
ENCODING 630
SWIDTH 780 0
DWIDTH 13 0
BBX 12 12 0 2
BITMAP
7BF0
FFF0
C600
C600
C600
C7F0
C7F0
C600
C600
C600
FFF0
7BF0
ENDCHAR
STARTCHAR 0277
ENCODING 631
SWIDTH 780 0
DWIDTH 13 0
BBX 10 12 1 2
BITMAP
3F00
7F80
E1C0
CCC0
CCC0
CCC0
CCC0
CCC0
CCC0
FFC0
7F80
3300
ENDCHAR
STARTCHAR 0278
ENCODING 632
SWIDTH 780 0
DWIDTH 13 0
BBX 10 16 1 0
BITMAP
0C00
0C00
3F00
7F80
EDC0
CCC0
CCC0
CCC0
CCC0
CCC0
CCC0
EDC0
7F80
3F00
0C00
0C00
ENDCHAR
STARTCHAR 0279
ENCODING 633
SWIDTH 780 0
DWIDTH 13 0
BBX 10 12 1 2
BITMAP
00C0
00C0
00C0
00C0
00C0
00C0
00C0
C0C0
C0C0
E1C0
7FC0
3EC0
ENDCHAR
STARTCHAR 027A
ENCODING 634
SWIDTH 780 0
DWIDTH 13 0
BBX 10 15 1 2
BITMAP
00C0
00C0
00C0
00C0
00C0
00C0
00C0
00C0
00C0
00C0
C0C0
C0C0
E1C0
7FC0
3EC0
ENDCHAR
STARTCHAR 027B
ENCODING 635
SWIDTH 780 0
DWIDTH 13 0
BBX 11 17 1 0
BITMAP
0180
0180
0180
0180
0180
0180
0180
0180
0180
0180
C180
C180
E380
7F80
3D80
01E0
00E0
ENDCHAR
STARTCHAR 027C
ENCODING 636
SWIDTH 780 0
DWIDTH 13 0
BBX 10 14 1 0
BITMAP
DF00
FF80
E1C0
C0C0
C0C0
C000
C000
C000
C000
C000
C000
C000
C000
C000
ENDCHAR
STARTCHAR 027D
ENCODING 637
SWIDTH 780 0
DWIDTH 13 0
BBX 10 14 1 0
BITMAP
DF00
FF80
E1C0
C0C0
C0C0
C000
C000
C000
C000
C000
C000
C000
F000
7000
ENDCHAR
STARTCHAR 027E
ENCODING 638
SWIDTH 780 0
DWIDTH 13 0
BBX 10 12 1 2
BITMAP
3F00
7F80
E1C0
C0C0
C0C0
C000
C000
C000
C000
C000
C000
C000
ENDCHAR
STARTCHAR 027F
ENCODING 639
SWIDTH 780 0
DWIDTH 13 0
BBX 10 12 1 2
BITMAP
3F00
7F80
E1C0
C0C0
C0C0
00C0
00C0
00C0
00C0
00C0
00C0
00C0
ENDCHAR
STARTCHAR 0280
ENCODING 640
SWIDTH 780 0
DWIDTH 13 0
BBX 10 12 1 2
BITMAP
FF00
FF80
C1C0
C0C0
C0C0
C180
FF00
FF00
C700
C380
C1C0
C0C0
ENDCHAR
STARTCHAR 0281
ENCODING 641
SWIDTH 780 0
DWIDTH 13 0
BBX 10 12 1 2
BITMAP
C0C0
C1C0
C380
C300
C700
FF00
FF80
C0C0
C0C0
C1C0
FF80
FF00
ENDCHAR
STARTCHAR 0282
ENCODING 642
SWIDTH 780 0
DWIDTH 13 0
BBX 10 14 1 0
BITMAP
3F00
7F80
E1C0
E0C0
7C00
1F00
0700
0180
E1C0
F1C0
FF80
DF00
E000
7000
ENDCHAR
STARTCHAR 0283
ENCODING 643
SWIDTH 780 0
DWIDTH 13 0
BBX 10 17 1 0
BITMAP
03C0
07C0
0E00
0C00
0C00
0C00
0C00
0C00
0C00
0C00
0C00
0C00
0C00
0C00
1C00
F800
F000
ENDCHAR
STARTCHAR 0284
ENCODING 644
SWIDTH 780 0
DWIDTH 13 0
BBX 10 17 1 0
BITMAP
03C0
07C0
0E00
0C00
0C00
7F80
7F80
0C00
0C00
0C00
7F80
7F80
0C00
0C00
1C00
F800
F000
ENDCHAR
STARTCHAR 0285
ENCODING 645
SWIDTH 780 0
DWIDTH 13 0
BBX 10 17 1 0
BITMAP
F000
F800
1C00
0C00
0C00
0C00
0C00
0C00
0C00
0C00
0C00
0C00
0C00
0C00
0E00
07C0
03C0
ENDCHAR
STARTCHAR 0286
ENCODING 646
SWIDTH 780 0
DWIDTH 13 0
BBX 10 17 1 0
BITMAP
03C0
07C0
0E00
0C00
0C00
0C00
0C00
0C00
0C00
0C00
0C00
7F80
FF80
CC00
DC00
F800
7000
ENDCHAR
STARTCHAR 0287
ENCODING 647
SWIDTH 780 0
DWIDTH 13 0
BBX 11 14 1 0
BITMAP
3F00
7F80
E1C0
C0C0
C0C0
00C0
00C0
00C0
00C0
00C0
07E0
07E0
00C0
00C0
ENDCHAR
STARTCHAR 0288
ENCODING 648
SWIDTH 780 0
DWIDTH 13 0
BBX 10 14 1 0
BITMAP
3000
FE00
FE00
3000
3000
3000
3000
3000
3000
3000
30C0
39C0
1F80
0F00
ENDCHAR
STARTCHAR 0289
ENCODING 649
SWIDTH 780 0
DWIDTH 13 0
BBX 13 12 0 2
BITMAP
6060
6060
6060
FFF8
FFF8
6060
6060
6060
6060
70E0
3FE0
1F60
ENDCHAR
STARTCHAR 028A
ENCODING 650
SWIDTH 780 0
DWIDTH 13 0
BBX 10 12 1 2
BITMAP
F3C0
F3C0
3300
3300
3300
7380
E1C0
C0C0
C0C0
E1C0
7F80
3F00
ENDCHAR
STARTCHAR 028B
ENCODING 651
SWIDTH 780 0
DWIDTH 13 0
BBX 10 12 1 2
BITMAP
C180
C1C0
C0C0
4080
6180
6180
3300
3300
1E00
1E00
0C00
0C00
ENDCHAR
STARTCHAR 028C
ENCODING 652
SWIDTH 780 0
DWIDTH 13 0
BBX 10 12 1 2
BITMAP
0C00
0C00
1E00
1E00
1200
3300
6180
6180
6180
C0C0
C0C0
C0C0
ENDCHAR
STARTCHAR 028D
ENCODING 653
SWIDTH 780 0
DWIDTH 13 0
BBX 10 12 1 2
BITMAP
3300
7F80
FFC0
CCC0
CCC0
CCC0
CCC0
CCC0
CCC0
C0C0
C0C0
C0C0
ENDCHAR
STARTCHAR 028E
ENCODING 654
SWIDTH 780 0
DWIDTH 13 0
BBX 10 15 1 2
BITMAP
1F80
3F80
7000
6000
6000
FF00
FF80
C1C0
C0C0
C0C0
C0C0
C0C0
C0C0
C0C0
C0C0
ENDCHAR
STARTCHAR 028F
ENCODING 655
SWIDTH 780 0
DWIDTH 13 0
BBX 10 12 1 2
BITMAP
C0C0
C0C0
E1C0
6180
3F00
1E00
1E00
0C00
0C00
0C00
0C00
0C00
ENDCHAR
STARTCHAR 0290
ENCODING 656
SWIDTH 780 0
DWIDTH 13 0
BBX 11 14 1 0
BITMAP
FF80
FF80
0380
0700
0E00
1C00
3800
7000
6000
E000
FF80
FF80
01E0
00E0
ENDCHAR
STARTCHAR 0291
ENCODING 657
SWIDTH 780 0
DWIDTH 13 0
BBX 10 14 1 0
BITMAP
FF80
FF80
0380
0700
0E00
0E00
1800
3380
77C0
EEC0
FFC0
FF80
0C00
0C00
ENDCHAR
STARTCHAR 0292
ENCODING 658
SWIDTH 780 0
DWIDTH 13 0
BBX 10 14 1 0
BITMAP
FFC0
FFC0
0380
0700
0E00
1F00
1F00
0180
00C0
00C0
C0C0
E1C0
7F80
3F00
ENDCHAR
STARTCHAR 0293
ENCODING 659
SWIDTH 780 0
DWIDTH 13 0
BBX 10 14 1 0
BITMAP
FFC0
FFC0
0380
0700
0E00
1F00
1F00
1180
70C0
F8C0
DDC0
FF80
7F00
0C00
ENDCHAR
STARTCHAR 0294
ENCODING 660
SWIDTH 780 0
DWIDTH 13 0
BBX 10 15 1 2
BITMAP
3F00
7F80
E1C0
C0C0
C0C0
00C0
00C0
0180
0300
0700
0E00
0C00
0C00
0C00
0C00
ENDCHAR
STARTCHAR 0295
ENCODING 661
SWIDTH 780 0
DWIDTH 13 0
BBX 10 15 1 2
BITMAP
3F00
7F80
E1C0
C0C0
C0C0
C000
C000
6000
3000
3800
1C00
0C00
0C00
0C00
0C00
ENDCHAR
STARTCHAR 0296
ENCODING 662
SWIDTH 780 0
DWIDTH 13 0
BBX 10 15 1 2
BITMAP
0C00
0C00
0C00
0C00
0E00
0700
0380
0180
00C0
00C0
C0C0
C0C0
E1C0
7F80
3F00
ENDCHAR
STARTCHAR 0297
ENCODING 663
SWIDTH 780 0
DWIDTH 13 0
BBX 10 14 1 0
BITMAP
3F00
7F80
E1C0
C0C0
C000
C000
C000
C000
C000
C000
C0C0
E1C0
7F80
3F00
ENDCHAR
STARTCHAR 0298
ENCODING 664
SWIDTH 780 0
DWIDTH 13 0
BBX 10 12 1 2
BITMAP
3F00
7F80
E1C0
C0C0
C0C0
CCC0
CCC0
CCC0
C0C0
E1C0
7F80
3F00
ENDCHAR
STARTCHAR 0299
ENCODING 665
SWIDTH 780 0
DWIDTH 13 0
BBX 10 12 1 2
BITMAP
FE00
FF00
C380
C180
C100
FF00
FF80
C0C0
C0C0
C1C0
FF80
FF00
ENDCHAR
STARTCHAR 029A
ENCODING 666
SWIDTH 780 0
DWIDTH 13 0
BBX 10 12 1 2
BITMAP
3F00
7F80
E1C0
C0C0
40C0
7EC0
7EC0
E0C0
C0C0
E1C0
7F80
3F00
ENDCHAR
STARTCHAR 029B
ENCODING 667
SWIDTH 780 0
DWIDTH 13 0
BBX 11 15 1 2
BITMAP
00E0
01E0
0180
3F80
7F80
E000
C000
C000
C000
CF80
CF80
C180
E180
7F80
3F80
ENDCHAR
STARTCHAR 029C
ENCODING 668
SWIDTH 780 0
DWIDTH 13 0
BBX 10 12 1 2
BITMAP
C0C0
C0C0
C0C0
C0C0
C0C0
FFC0
FFC0
C0C0
C0C0
C0C0
C0C0
C0C0
ENDCHAR
STARTCHAR 029D
ENCODING 669
SWIDTH 780 0
DWIDTH 13 0
BBX 10 17 1 0
BITMAP
0180
0180
0000
0180
0180
0180
0180
0180
0180
0180
3FC0
7FC0
E180
C180
E380
7F00
3E00
ENDCHAR
STARTCHAR 029E
ENCODING 670
SWIDTH 780 0
DWIDTH 13 0
BBX 10 14 1 0
BITMAP
C0C0
C0C0
E0C0
70C0
38C0
1FC0
1FC0
18C0
30C0
60C0
E0C0
C0C0
00C0
00C0
ENDCHAR
STARTCHAR 029F
ENCODING 671
SWIDTH 780 0
DWIDTH 13 0
BBX 10 12 1 2
BITMAP
C000
C000
C000
C000
C000
C000
C000
C000
C000
C0C0
FFC0
FFC0
ENDCHAR
STARTCHAR 02A0
ENCODING 672
SWIDTH 780 0
DWIDTH 13 0
BBX 11 17 1 0
BITMAP
00E0
01E0
0180
3D80
7F80
E380
C180
C180
C180
C180
C180
C180
E380
7F80
3D80
0180
0180
ENDCHAR
STARTCHAR 02A1
ENCODING 673
SWIDTH 780 0
DWIDTH 13 0
BBX 10 15 1 2
BITMAP
3F00
7F80
E1C0
C0C0
C0C0
01C0
0180
0300
0600
0E00
0C00
7F80
7F80
0C00
0C00
ENDCHAR
STARTCHAR 02A2
ENCODING 674
SWIDTH 780 0
DWIDTH 13 0
BBX 10 15 1 2
BITMAP
3F00
7F80
E1C0
C0C0
C0C0
E000
6000
3000
1800
1C00
0C00
7F80
7F80
0C00
0C00
ENDCHAR
STARTCHAR 02AC
ENCODING 684
SWIDTH 780 0
DWIDTH 13 0
BBX 6 15 3 2
BITMAP
8C
8C
AC
AC
AC
5C
00
00
00
8C
8C
AC
AC
AC
5C
ENDCHAR
STARTCHAR 02AD
ENCODING 685
SWIDTH 780 0
DWIDTH 13 0
BBX 10 15 1 2
BITMAP
FFC0
FFC0
C0C0
C0C0
C0C0
C0C0
C0C0
0000
0000
FFC0
FFC0
C0C0
C0C0
C0C0
C0C0
ENDCHAR
STARTCHAR 02AE
ENCODING 686
SWIDTH 780 0
DWIDTH 13 0
BBX 10 17 1 0
BITMAP
E000
F000
3000
30C0
30C0
30C0
30C0
30C0
30C0
30C0
30C0
30C0
39C0
1FC0
0EC0
00C0
00C0
ENDCHAR
STARTCHAR 02AF
ENCODING 687
SWIDTH 780 0
DWIDTH 13 0
BBX 12 17 0 0
BITMAP
E000
F000
3000
30C0
30C0
30C0
30C0
30C0
30C0
30C0
30C0
30C0
39C0
1FC0
0EC0
00F0
0070
ENDCHAR
STARTCHAR 02C6
ENCODING 710
SWIDTH 780 0
DWIDTH 13 0
BBX 6 2 3 15
BITMAP
78
CC
ENDCHAR
STARTCHAR 02C7
ENCODING 711
SWIDTH 780 0
DWIDTH 13 0
BBX 6 2 3 15
BITMAP
CC
78
ENDCHAR
STARTCHAR 02D8
ENCODING 728
SWIDTH 780 0
DWIDTH 13 0
BBX 6 2 3 15
BITMAP
CC
78
ENDCHAR
STARTCHAR 02D9
ENCODING 729
SWIDTH 780 0
DWIDTH 13 0
BBX 2 2 5 15
BITMAP
C0
C0
ENDCHAR
STARTCHAR 02DA
ENCODING 730
SWIDTH 780 0
DWIDTH 13 0
BBX 5 3 4 14
BITMAP
70
D8
70
ENDCHAR
STARTCHAR 02DB
ENCODING 731
SWIDTH 780 0
DWIDTH 13 0
BBX 3 2 5 0
BITMAP
C0
60
ENDCHAR
STARTCHAR 02DC
ENCODING 732
SWIDTH 780 0
DWIDTH 13 0
BBX 6 3 3 14
BITMAP
64
FC
98
ENDCHAR
STARTCHAR 02DD
ENCODING 733
SWIDTH 780 0
DWIDTH 13 0
BBX 7 2 3 15
BITMAP
66
CC
ENDCHAR
STARTCHAR 0300
ENCODING 768
SWIDTH 780 0
DWIDTH 13 0
BBX 3 2 4 15
BITMAP
C0
60
ENDCHAR
STARTCHAR 0301
ENCODING 769
SWIDTH 780 0
DWIDTH 13 0
BBX 3 2 5 15
BITMAP
60
C0
ENDCHAR
STARTCHAR 030C
ENCODING 780
SWIDTH 780 0
DWIDTH 13 0
BBX 6 2 3 15
BITMAP
CC
78
ENDCHAR
STARTCHAR 0337
ENCODING 823
SWIDTH 780 0
DWIDTH 13 0
BBX 12 13 0 2
BITMAP
0030
0070
00E0
01C0
0180
0300
0600
0E00
1C00
3800
7000
E000
C000
ENDCHAR
STARTCHAR 0370
ENCODING 880
SWIDTH 780 0
DWIDTH 13 0
BBX 11 15 1 2
BITMAP
C000
C000
C000
C000
C000
C000
FFE0
FFE0
C000
C000
C000
C000
C000
C000
C000
ENDCHAR
STARTCHAR 0371
ENCODING 881
SWIDTH 780 0
DWIDTH 13 0
BBX 11 12 1 2
BITMAP
C000
E000
6000
6000
6000
7FE0
7FE0
6000
6000
6000
6000
6000
ENDCHAR
STARTCHAR 0372
ENCODING 882
SWIDTH 780 0
DWIDTH 13 0
BBX 10 15 1 2
BITMAP
FFC0
FFC0
CCC0
CCC0
0C00
0C00
0C00
0C00
0C00
0C00
0C00
0C00
0C00
0C00
0C00
ENDCHAR
STARTCHAR 0373
ENCODING 883
SWIDTH 780 0
DWIDTH 13 0
BBX 10 14 1 2
BITMAP
7FC0
FFC0
CCC0
CCC0
CCC0
0C00
0C00
0C00
0C00
0C00
0C00
0C00
0C00
0C00
ENDCHAR
STARTCHAR 0374
ENCODING 884
SWIDTH 780 0
DWIDTH 13 0
BBX 2 3 5 14
BITMAP
40
C0
80
ENDCHAR
STARTCHAR 0375
ENCODING 885
SWIDTH 780 0
DWIDTH 13 0
BBX 2 3 5 2
BITMAP
40
C0
80
ENDCHAR
STARTCHAR 0376
ENCODING 886
SWIDTH 780 0
DWIDTH 13 0
BBX 10 15 1 2
BITMAP
C1C0
C1C0
C3C0
C3C0
C6C0
C6C0
C4C0
CCC0
C8C0
D8C0
D8C0
F0C0
F0C0
E0C0
E0C0
ENDCHAR
STARTCHAR 0377
ENCODING 887
SWIDTH 780 0
DWIDTH 13 0
BBX 10 12 1 2
BITMAP
C180
C180
C180
C180
C380
C780
CF80
DD80
F980
F180
E1C0
C0C0
ENDCHAR
STARTCHAR 037A
ENCODING 890
SWIDTH 780 0
DWIDTH 13 0
BBX 4 2 4 0
BITMAP
D0
60
ENDCHAR
STARTCHAR 037B
ENCODING 891
SWIDTH 780 0
DWIDTH 13 0
BBX 10 12 1 2
BITMAP
3F00
7F80
E1C0
C0C0
00C0
00C0
00C0
00C0
C0C0
E1C0
7F80
3F00
ENDCHAR
STARTCHAR 037C
ENCODING 892
SWIDTH 780 0
DWIDTH 13 0
BBX 10 12 1 2
BITMAP
3F00
7F80
E1C0
C0C0
C000
CC00
CC00
CC00
C0C0
E1C0
7F80
3F00
ENDCHAR
STARTCHAR 037D
ENCODING 893
SWIDTH 780 0
DWIDTH 13 0
BBX 10 12 1 2
BITMAP
3F00
7F80
E1C0
C0C0
00C0
0CC0
0CC0
0CC0
C0C0
E1C0
7F80
3F00
ENDCHAR
STARTCHAR 037E
ENCODING 894
SWIDTH 780 0
DWIDTH 13 0
BBX 3 14 4 0
BITMAP
60
60
00
00
00
00
00
00
00
00
00
60
60
C0
ENDCHAR
STARTCHAR 037F
ENCODING 895
SWIDTH 780 0
DWIDTH 13 0
BBX 9 15 2 2
BITMAP
0180
0180
0180
0180
0180
0180
0180
0180
0180
0180
C180
C180
E380
7F00
3E00
ENDCHAR
STARTCHAR 0384
ENCODING 900
SWIDTH 780 0
DWIDTH 13 0
BBX 2 3 5 14
BITMAP
C0
C0
C0
ENDCHAR
STARTCHAR 0385
ENCODING 901
SWIDTH 780 0
DWIDTH 13 0
BBX 8 3 2 14
BITMAP
18
DB
DB
ENDCHAR
STARTCHAR 0386
ENCODING 902
SWIDTH 780 0
DWIDTH 13 0
BBX 11 15 0 2
BITMAP
C7E0
CFE0
DC60
1860
3060
3060
3060
3060
3060
3FE0
3FE0
3060
3060
3060
3060
ENDCHAR
STARTCHAR 0387
ENCODING 903
SWIDTH 780 0
DWIDTH 13 0
BBX 2 2 5 9
BITMAP
C0
C0
ENDCHAR
STARTCHAR 0388
ENCODING 904
SWIDTH 780 0
DWIDTH 13 0
BBX 12 15 0 2
BITMAP
DFF0
DFF0
D800
1800
1800
1800
1FC0
1FC0
1800
1800
1800
1800
1800
1FF0
1FF0
ENDCHAR
STARTCHAR 0389
ENCODING 905
SWIDTH 780 0
DWIDTH 13 0
BBX 11 15 0 2
BITMAP
D860
D860
D860
1860
1860
1860
1FE0
1FE0
1860
1860
1860
1860
1860
1860
1860
ENDCHAR
STARTCHAR 038A
ENCODING 906
SWIDTH 780 0
DWIDTH 13 0
BBX 9 15 0 2
BITMAP
DF80
DF80
C600
0600
0600
0600
0600
0600
0600
0600
0600
0600
0600
1F80
1F80
ENDCHAR
STARTCHAR 038C
ENCODING 908
SWIDTH 780 0
DWIDTH 13 0
BBX 11 15 0 2
BITMAP
CF80
DFC0
F8E0
3060
3060
3060
3060
3060
3060
3060
3060
3060
38E0
1FC0
0F80
ENDCHAR
STARTCHAR 038E
ENCODING 910
SWIDTH 780 0
DWIDTH 13 0
BBX 11 15 0 2
BITMAP
D860
D860
D860
1860
0CC0
0CC0
0780
0780
0300
0300
0300
0300
0300
0300
0300
ENDCHAR
STARTCHAR 038F
ENCODING 911
SWIDTH 780 0
DWIDTH 13 0
BBX 11 15 0 2
BITMAP
CF80
DFC0
F8E0
3060
3060
3060
3060
3060
38E0
1DC0
1DC0
0D80
0D80
3DE0
3DE0
ENDCHAR
STARTCHAR 0390
ENCODING 912
SWIDTH 780 0
DWIDTH 13 0
BBX 9 15 2 2
BITMAP
1800
DB00
DB00
0000
1800
1800
1800
1800
1800
1800
1800
1800
1980
1F80
0F00
ENDCHAR
STARTCHAR 0391
ENCODING 913
SWIDTH 780 0
DWIDTH 13 0
BBX 10 15 1 2
BITMAP
1FC0
3FC0
70C0
60C0
C0C0
C0C0
C0C0
C0C0
C0C0
FFC0
FFC0
C0C0
C0C0
C0C0
C0C0
ENDCHAR
STARTCHAR 0392
ENCODING 914
SWIDTH 780 0
DWIDTH 13 0
BBX 10 15 1 2
BITMAP
FE00
FF00
C380
C180
C180
C380
FF00
FF00
C180
C1C0
C0C0
C0C0
C1C0
FF80
FF00
ENDCHAR
STARTCHAR 0393
ENCODING 915
SWIDTH 780 0
DWIDTH 13 0
BBX 11 15 1 2
BITMAP
FFE0
FFE0
C000
C000
C000
C000
C000
C000
C000
C000
C000
C000
C000
C000
C000
ENDCHAR
STARTCHAR 0394
ENCODING 916
SWIDTH 780 0
DWIDTH 13 0
BBX 10 15 1 2
BITMAP
0C00
0C00
1E00
1E00
3300
3300
3300
6180
6180
6180
C0C0
C0C0
C0C0
FFC0
FFC0
ENDCHAR
STARTCHAR 0395
ENCODING 917
SWIDTH 780 0
DWIDTH 13 0
BBX 11 15 1 2
BITMAP
FFE0
FFE0
C000
C000
C000
C000
FF80
FF80
C000
C000
C000
C000
C000
FFE0
FFE0
ENDCHAR
STARTCHAR 0396
ENCODING 918
SWIDTH 780 0
DWIDTH 13 0
BBX 10 15 1 2
BITMAP
FFC0
FFC0
00C0
01C0
0380
0700
0600
0C00
1800
7000
7000
E000
C000
FFC0
FFC0
ENDCHAR
STARTCHAR 0397
ENCODING 919
SWIDTH 780 0
DWIDTH 13 0
BBX 10 15 1 2
BITMAP
C0C0
C0C0
C0C0
C0C0
C0C0
C0C0
FFC0
FFC0
C0C0
C0C0
C0C0
C0C0
C0C0
C0C0
C0C0
ENDCHAR
STARTCHAR 0398
ENCODING 920
SWIDTH 780 0
DWIDTH 13 0
BBX 10 15 1 2
BITMAP
3F00
7F80
E1C0
C0C0
C0C0
C0C0
DEC0
DEC0
C0C0
C0C0
C0C0
C0C0
E1C0
7F80
3F00
ENDCHAR
STARTCHAR 0399
ENCODING 921
SWIDTH 780 0
DWIDTH 13 0
BBX 6 15 3 2
BITMAP
FC
FC
30
30
30
30
30
30
30
30
30
30
30
FC
FC
ENDCHAR
STARTCHAR 039A
ENCODING 922
SWIDTH 780 0
DWIDTH 13 0
BBX 10 15 1 2
BITMAP
C0C0
C1C0
C380
C700
CE00
DC00
F800
F800
D800
CC00
C600
C700
C380
C1C0
C0C0
ENDCHAR
STARTCHAR 039B
ENCODING 923
SWIDTH 780 0
DWIDTH 13 0
BBX 10 15 1 2
BITMAP
1FC0
3FC0
70C0
60C0
C0C0
C0C0
C0C0
C0C0
C0C0
C0C0
C0C0
C0C0
C0C0
C0C0
C0C0
ENDCHAR
STARTCHAR 039C
ENCODING 924
SWIDTH 780 0
DWIDTH 13 0
BBX 10 15 1 2
BITMAP
C0C0
C0C0
E1C0
E1C0
F3C0
F3C0
D2C0
DEC0
CCC0
CCC0
CCC0
C0C0
C0C0
C0C0
C0C0
ENDCHAR
STARTCHAR 039D
ENCODING 925
SWIDTH 780 0
DWIDTH 13 0
BBX 10 15 1 2
BITMAP
E0C0
E0C0
F0C0
F0C0
D8C0
D8C0
C8C0
CCC0
C4C0
C6C0
C6C0
C3C0
C3C0
C1C0
C1C0
ENDCHAR
STARTCHAR 039E
ENCODING 926
SWIDTH 780 0
DWIDTH 13 0
BBX 10 15 1 2
BITMAP
FFC0
FFC0
0000
0000
0000
0000
3F00
3F00
0000
0000
0000
0000
0000
FFC0
FFC0
ENDCHAR
STARTCHAR 039F
ENCODING 927
SWIDTH 780 0
DWIDTH 13 0
BBX 10 15 1 2
BITMAP
3F00
7F80
E1C0
C0C0
C0C0
C0C0
C0C0
C0C0
C0C0
C0C0
C0C0
C0C0
E1C0
7F80
3F00
ENDCHAR
STARTCHAR 03A0
ENCODING 928
SWIDTH 780 0
DWIDTH 13 0
BBX 10 15 1 2
BITMAP
FFC0
FFC0
C0C0
C0C0
C0C0
C0C0
C0C0
C0C0
C0C0
C0C0
C0C0
C0C0
C0C0
C0C0
C0C0
ENDCHAR
STARTCHAR 03A1
ENCODING 929
SWIDTH 780 0
DWIDTH 13 0
BBX 10 15 1 2
BITMAP
FF00
FF80
C1C0
C0C0
C0C0
C0C0
C0C0
C0C0
C0C0
C1C0
FF80
FF00
C000
C000
C000
ENDCHAR
STARTCHAR 03A3
ENCODING 931
SWIDTH 780 0
DWIDTH 13 0
BBX 11 15 1 2
BITMAP
FFE0
FFE0
E000
7000
3800
1C00
0E00
0E00
0C00
3800
7000
7000
E000
FFE0
FFE0
ENDCHAR
STARTCHAR 03A4
ENCODING 932
SWIDTH 780 0
DWIDTH 13 0
BBX 10 15 1 2
BITMAP
FFC0
FFC0
0C00
0C00
0C00
0C00
0C00
0C00
0C00
0C00
0C00
0C00
0C00
0C00
0C00
ENDCHAR
STARTCHAR 03A5
ENCODING 933
SWIDTH 780 0
DWIDTH 13 0
BBX 10 15 1 2
BITMAP
C0C0
C0C0
6180
6180
3300
3300
1E00
1E00
0C00
0C00
0C00
0C00
0C00
0C00
0C00
ENDCHAR
STARTCHAR 03A6
ENCODING 934
SWIDTH 780 0
DWIDTH 13 0
BBX 10 15 1 2
BITMAP
3F00
7F80
EDC0
CCC0
CCC0
CCC0
CCC0
CCC0
CCC0
EDC0
7F80
3F00
0C00
0C00
0C00
ENDCHAR
STARTCHAR 03A7
ENCODING 935
SWIDTH 780 0
DWIDTH 13 0
BBX 10 15 1 2
BITMAP
C0C0
C0C0
C0C0
E1C0
7380
3F00
1E00
1E00
1E00
3300
6180
E1C0
C0C0
C0C0
C0C0
ENDCHAR
STARTCHAR 03A8
ENCODING 936
SWIDTH 780 0
DWIDTH 13 0
BBX 10 15 1 2
BITMAP
CCC0
CCC0
CCC0
CCC0
CCC0
CCC0
CCC0
CCC0
CCC0
EDC0
7F80
3F00
0C00
0C00
0C00
ENDCHAR
STARTCHAR 03A9
ENCODING 937
SWIDTH 780 0
DWIDTH 13 0
BBX 10 15 1 2
BITMAP
3F00
7F80
E1C0
C0C0
C0C0
C0C0
C0C0
C0C0
E1C0
7380
7380
3300
3300
F3C0
F3C0
ENDCHAR
STARTCHAR 03AA
ENCODING 938
SWIDTH 780 0
DWIDTH 13 0
BBX 6 15 3 2
BITMAP
CC
CC
FC
FC
30
30
30
30
30
30
30
30
30
FC
FC
ENDCHAR
STARTCHAR 03AB
ENCODING 939
SWIDTH 780 0
DWIDTH 13 0
BBX 10 15 1 2
BITMAP
3300
3300
C0C0
C0C0
6180
6180
6180
3300
1200
1E00
1E00
0C00
0C00
0C00
0C00
ENDCHAR
STARTCHAR 03AC
ENCODING 940
SWIDTH 780 0
DWIDTH 13 0
BBX 10 15 1 2
BITMAP
0C00
0C00
0C00
3EC0
7FC0
E380
C180
C180
C180
C180
C180
C180
E380
7FC0
3EC0
ENDCHAR
STARTCHAR 03AD
ENCODING 941
SWIDTH 780 0
DWIDTH 13 0
BBX 10 15 1 2
BITMAP
0C00
0C00
0C00
3F00
7F80
E1C0
C0C0
C000
FC00
FC00
C000
C0C0
E1C0
7F80
3F00
ENDCHAR
STARTCHAR 03AE
ENCODING 942
SWIDTH 780 0
DWIDTH 13 0
BBX 10 17 1 0
BITMAP
0C00
0C00
0C00
DF00
FF80
E1C0
C0C0
C0C0
C0C0
C0C0
C0C0
C0C0
C0C0
C0C0
C0C0
00C0
00C0
ENDCHAR
STARTCHAR 03AF
ENCODING 943
SWIDTH 780 0
DWIDTH 13 0
BBX 6 15 5 2
BITMAP
C0
C0
C0
00
C0
C0
C0
C0
C0
C0
C0
C0
CC
FC
78
ENDCHAR
STARTCHAR 03B0
ENCODING 944
SWIDTH 780 0
DWIDTH 13 0
BBX 10 15 1 2
BITMAP
0C00
6D80
6D80
0000
C0C0
C0C0
C0C0
C0C0
C0C0
C0C0
C0C0
C0C0
E1C0
7F80
3F00
ENDCHAR
STARTCHAR 03B1
ENCODING 945
SWIDTH 780 0
DWIDTH 13 0
BBX 10 12 1 2
BITMAP
3EC0
7FC0
E380
C180
C180
C180
C180
C180
C180
E380
7FC0
3EC0
ENDCHAR
STARTCHAR 03B2
ENCODING 946
SWIDTH 780 0
DWIDTH 13 0
BBX 10 17 1 0
BITMAP
3F00
7F80
E1C0
C0C0
C0C0
C1C0
FF80
FF80
C180
C0C0
C0C0
C0C0
C0C0
E1C0
FF80
DF00
C000
ENDCHAR
STARTCHAR 03B3
ENCODING 947
SWIDTH 780 0
DWIDTH 13 0
BBX 10 14 1 0
BITMAP
C0C0
C0C0
6180
6180
3300
3300
1E00
1E00
0C00
0C00
0C00
0C00
0C00
0C00
ENDCHAR
STARTCHAR 03B4
ENCODING 948
SWIDTH 780 0
DWIDTH 13 0
BBX 10 15 1 2
BITMAP
7FC0
FFC0
E000
7000
3800
3F00
7F80
6180
C0C0
C0C0
C0C0
C0C0
E1C0
7F80
3F00
ENDCHAR
STARTCHAR 03B5
ENCODING 949
SWIDTH 780 0
DWIDTH 13 0
BBX 10 12 1 2
BITMAP
3F00
7F80
E1C0
C0C0
C000
FC00
FC00
C000
C0C0
E1C0
7F80
3F00
ENDCHAR
STARTCHAR 03B6
ENCODING 950
SWIDTH 780 0
DWIDTH 13 0
BBX 10 17 1 0
BITMAP
FFC0
FFC0
0E00
1C00
3800
7000
6000
6000
6000
6000
6000
3F00
3F80
01C0
01C0
0780
0700
ENDCHAR
STARTCHAR 03B7
ENCODING 951
SWIDTH 780 0
DWIDTH 13 0
BBX 10 14 1 0
BITMAP
DF00
FF80
E1C0
C0C0
C0C0
C0C0
C0C0
C0C0
C0C0
C0C0
C0C0
C0C0
00C0
00C0
ENDCHAR
STARTCHAR 03B8
ENCODING 952
SWIDTH 780 0
DWIDTH 13 0
BBX 10 15 1 2
BITMAP
3F00
7F80
E1C0
C0C0
C0C0
C0C0
FFC0
FFC0
C0C0
C0C0
C0C0
C0C0
E1C0
7F80
3F00
ENDCHAR
STARTCHAR 03B9
ENCODING 953
SWIDTH 780 0
DWIDTH 13 0
BBX 6 12 5 2
BITMAP
C0
C0
C0
C0
C0
C0
C0
C0
C0
CC
FC
78
ENDCHAR
STARTCHAR 03BA
ENCODING 954
SWIDTH 780 0
DWIDTH 13 0
BBX 10 12 1 2
BITMAP
C0C0
C1C0
C180
C300
C600
FE00
FE00
C700
C380
C1C0
C0C0
C0C0
ENDCHAR
STARTCHAR 03BB
ENCODING 955
SWIDTH 780 0
DWIDTH 13 0
BBX 10 15 1 2
BITMAP
1800
1800
0C00
0C00
0C00
0E00
0E00
1A00
1B00
3300
3300
6180
6180
C0C0
C0C0
ENDCHAR
STARTCHAR 03BC
ENCODING 956
SWIDTH 780 0
DWIDTH 13 0
BBX 10 14 1 0
BITMAP
C0C0
C0C0
C0C0
C0C0
C0C0
C0C0
C0C0
C0C0
C0C0
E1C0
FFC0
DEC0
C000
C000
ENDCHAR
STARTCHAR 03BD
ENCODING 957
SWIDTH 780 0
DWIDTH 13 0
BBX 10 12 1 2
BITMAP
C180
C1C0
C0C0
4080
6180
6180
3300
3300
1E00
1E00
0C00
0C00
ENDCHAR
STARTCHAR 03BE
ENCODING 958
SWIDTH 780 0
DWIDTH 13 0
BBX 10 17 1 0
BITMAP
FFC0
FFC0
3000
6000
7000
3F00
3F00
7000
6000
6000
2000
3F00
1F80
01C0
01C0
0780
0700
ENDCHAR
STARTCHAR 03BF
ENCODING 959
SWIDTH 780 0
DWIDTH 13 0
BBX 10 12 1 2
BITMAP
3F00
7F80
E1C0
C0C0
C0C0
C0C0
C0C0
C0C0
C0C0
E1C0
7F80
3F00
ENDCHAR
STARTCHAR 03C0
ENCODING 960
SWIDTH 780 0
DWIDTH 13 0
BBX 10 12 1 2
BITMAP
FFC0
FFC0
C0C0
C0C0
C0C0
C0C0
C0C0
C0C0
C0C0
C0C0
C0C0
C0C0
ENDCHAR
STARTCHAR 03C1
ENCODING 961
SWIDTH 780 0
DWIDTH 13 0
BBX 10 14 1 0
BITMAP
3F00
7F80
E1C0
C0C0
C0C0
C0C0
C0C0
C0C0
C0C0
E1C0
FF80
DF00
C000
C000
ENDCHAR
STARTCHAR 03C2
ENCODING 962
SWIDTH 780 0
DWIDTH 13 0
BBX 10 14 1 0
BITMAP
3F00
7F80
E1C0
C0C0
C000
C000
C000
C000
6000
7F00
3F80
01C0
0780
0700
ENDCHAR
STARTCHAR 03C3
ENCODING 963
SWIDTH 780 0
DWIDTH 13 0
BBX 10 12 1 2
BITMAP
3FC0
7FC0
E700
C300
C300
C300
C300
C300
C300
E700
7E00
3C00
ENDCHAR
STARTCHAR 03C4
ENCODING 964
SWIDTH 780 0
DWIDTH 13 0
BBX 10 12 1 2
BITMAP
FFC0
FFC0
0C00
0C00
0C00
0C00
0C00
0C00
0C00
0C00
0E00
0600
ENDCHAR
STARTCHAR 03C5
ENCODING 965
SWIDTH 780 0
DWIDTH 13 0
BBX 10 12 1 2
BITMAP
C0C0
C0C0
C0C0
C0C0
C0C0
C0C0
C0C0
C0C0
C0C0
E1C0
7F80
3F00
ENDCHAR
STARTCHAR 03C6
ENCODING 966
SWIDTH 780 0
DWIDTH 13 0
BBX 10 16 1 0
BITMAP
0C00
0C00
3F00
7F80
EDC0
CCC0
CCC0
CCC0
CCC0
CCC0
CCC0
EDC0
7F80
3F00
0C00
0C00
ENDCHAR
STARTCHAR 03C7
ENCODING 967
SWIDTH 780 0
DWIDTH 13 0
BBX 10 14 1 0
BITMAP
C0C0
C0C0
E1C0
7380
3F00
1E00
0C00
0C00
1E00
3300
7380
E1C0
C0C0
C0C0
ENDCHAR
STARTCHAR 03C8
ENCODING 968
SWIDTH 780 0
DWIDTH 13 0
BBX 10 16 1 0
BITMAP
0C00
0C00
CCC0
CCC0
CCC0
CCC0
CCC0
CCC0
CCC0
CCC0
CCC0
EDC0
7F80
3F00
0C00
0C00
ENDCHAR
STARTCHAR 03C9
ENCODING 969
SWIDTH 780 0
DWIDTH 13 0
BBX 10 12 1 2
BITMAP
3300
7380
E1C0
C0C0
C0C0
C0C0
CCC0
CCC0
CCC0
FFC0
7F80
3300
ENDCHAR
STARTCHAR 03CA
ENCODING 970
SWIDTH 780 0
DWIDTH 13 0
BBX 8 15 3 2
BITMAP
CC
CC
00
30
30
30
30
30
30
30
30
30
33
3F
1E
ENDCHAR
STARTCHAR 03CB
ENCODING 971
SWIDTH 780 0
DWIDTH 13 0
BBX 10 15 1 2
BITMAP
3300
3300
0000
C0C0
C0C0
C0C0
C0C0
C0C0
C0C0
C0C0
C0C0
C0C0
E1C0
7F80
3F00
ENDCHAR
STARTCHAR 03CC
ENCODING 972
SWIDTH 780 0
DWIDTH 13 0
BBX 10 15 1 2
BITMAP
0C00
0C00
0C00
3F00
7F80
E1C0
C0C0
C0C0
C0C0
C0C0
C0C0
C0C0
E1C0
7F80
3F00
ENDCHAR
STARTCHAR 03CD
ENCODING 973
SWIDTH 780 0
DWIDTH 13 0
BBX 10 15 1 2
BITMAP
0C00
0C00
0C00
C0C0
C0C0
C0C0
C0C0
C0C0
C0C0
C0C0
C0C0
C0C0
E1C0
7F80
3F00
ENDCHAR
STARTCHAR 03CE
ENCODING 974
SWIDTH 780 0
DWIDTH 13 0
BBX 10 15 1 2
BITMAP
0C00
0C00
0C00
3300
7380
E1C0
C0C0
C0C0
C0C0
CCC0
CCC0
CCC0
FFC0
7F80
3300
ENDCHAR
STARTCHAR 03CF
ENCODING 975
SWIDTH 780 0
DWIDTH 13 0
BBX 10 17 1 0
BITMAP
C0C0
C1C0
C380
C700
CE00
DC00
F800
F800
DC00
CC00
C700
C300
C380
C1C0
C1C0
0380
0300
ENDCHAR
STARTCHAR 03D0
ENCODING 976
SWIDTH 780 0
DWIDTH 13 0
BBX 10 15 1 2
BITMAP
3F00
7F80
E1C0
C0C0
C0C0
C1C0
FF80
FF80
C180
C0C0
C0C0
C0C0
E1C0
7F80
3F00
ENDCHAR
STARTCHAR 03D1
ENCODING 977
SWIDTH 780 0
DWIDTH 13 0
BBX 10 15 1 2
BITMAP
3E00
7F00
E380
C180
C180
C180
FFC0
7FC0
0180
0180
0180
C180
E380
7F00
3E00
ENDCHAR
STARTCHAR 03D2
ENCODING 978
SWIDTH 780 0
DWIDTH 13 0
BBX 11 15 1 2
BITMAP
C060
C0E0
61C0
6180
3300
3300
1E00
1E00
0C00
0C00
0C00
0C00
0C00
0C00
0C00
ENDCHAR
STARTCHAR 03D3
ENCODING 979
SWIDTH 780 0
DWIDTH 13 0
BBX 12 15 0 2
BITMAP
D830
D870
D860
1860
0CC0
0CC0
0780
0780
0300
0300
0300
0300
0300
0300
0300
ENDCHAR
STARTCHAR 03D4
ENCODING 980
SWIDTH 780 0
DWIDTH 13 0
BBX 11 15 1 2
BITMAP
3300
3300
C060
C0E0
61C0
6180
2100
3300
1200
1E00
1E00
0C00
0C00
0C00
0C00
ENDCHAR
STARTCHAR 03D5
ENCODING 981
SWIDTH 780 0
DWIDTH 13 0
BBX 10 14 1 0
BITMAP
3300
7F80
FFC0
CCC0
CCC0
CCC0
CCC0
CCC0
CCC0
EDC0
7F80
3F00
0C00
0C00
ENDCHAR
STARTCHAR 03D6
ENCODING 982
SWIDTH 780 0
DWIDTH 13 0
BBX 10 12 1 2
BITMAP
FFC0
FFC0
7380
6180
E1C0
C0C0
CCC0
CCC0
CCC0
FFC0
7F80
3300
ENDCHAR
STARTCHAR 03D7
ENCODING 983
SWIDTH 780 0
DWIDTH 13 0
BBX 11 14 1 0
BITMAP
C0C0
E1C0
6780
6780
6D80
6D80
6D80
6D80
7980
7980
E1E0
C0E0
0060
00C0
ENDCHAR
STARTCHAR 03D8
ENCODING 984
SWIDTH 780 0
DWIDTH 13 0
BBX 10 17 1 0
BITMAP
3F00
7F80
E1C0
C0C0
C0C0
C0C0
C0C0
C0C0
C0C0
C0C0
C0C0
C0C0
E1C0
7F80
3F00
0C00
0C00
ENDCHAR
STARTCHAR 03D9
ENCODING 985
SWIDTH 780 0
DWIDTH 13 0
BBX 10 14 1 0
BITMAP
3F00
7F80
E1C0
C0C0
C0C0
C0C0
C0C0
C0C0
C0C0
E1C0
7F80
3F00
0C00
0C00
ENDCHAR
STARTCHAR 03DA
ENCODING 986
SWIDTH 780 0
DWIDTH 13 0
BBX 10 17 1 0
BITMAP
3F00
7F80
E1C0
C0C0
C000
C000
C000
C000
C000
C000
C000
E000
7F00
3F80
01C0
0780
0700
ENDCHAR
STARTCHAR 03DB
ENCODING 987
SWIDTH 780 0
DWIDTH 13 0
BBX 10 14 1 0
BITMAP
3F00
7F80
E1C0
C0C0
C000
C000
C000
C000
6000
7F00
3F80
01C0
3F80
3F00
ENDCHAR
STARTCHAR 03DC
ENCODING 988
SWIDTH 780 0
DWIDTH 13 0
BBX 11 15 1 2
BITMAP
FFE0
FFE0
C000
C000
C000
C000
FF80
FF80
C000
C000
C000
C000
C000
C000
C000
ENDCHAR
STARTCHAR 03DD
ENCODING 989
SWIDTH 780 0
DWIDTH 13 0
BBX 10 14 2 0
BITMAP
FFC0
FFC0
C000
C000
C000
FE00
FE00
C600
C600
C000
C000
C000
C000
C000
ENDCHAR
STARTCHAR 03DE
ENCODING 990
SWIDTH 780 0
DWIDTH 13 0
BBX 10 15 1 2
BITMAP
0600
0E00
1C00
3800
7000
E000
FFC0
FFC0
01C0
0180
0380
0700
0E00
1C00
1800
ENDCHAR
STARTCHAR 03DF
ENCODING 991
SWIDTH 780 0
DWIDTH 13 0
BBX 8 15 2 2
BITMAP
06
0E
1C
38
70
E0
FF
FF
07
06
0E
1C
38
70
60
ENDCHAR
STARTCHAR 03E0
ENCODING 992
SWIDTH 780 0
DWIDTH 13 0
BBX 10 15 1 2
BITMAP
F000
FC00
0E00
1F00
3B80
7380
67C0
06C0
0CC0
18C0
18C0
00C0
00C0
00C0
00C0
ENDCHAR
STARTCHAR 03E1
ENCODING 993
SWIDTH 780 0
DWIDTH 13 0
BBX 9 14 2 2
BITMAP
E000
F800
1C00
3E00
7700
6700
0F80
0D80
1980
1980
0180
0180
0180
0180
ENDCHAR
STARTCHAR 03E2
ENCODING 994
SWIDTH 780 0
DWIDTH 13 0
BBX 10 17 1 0
BITMAP
C0C0
C0C0
CCC0
CCC0
CCC0
CCC0
CCC0
CCC0
CCC0
CCC0
CCC0
FFC0
7FC0
33C0
00C0
FFC0
FF80
ENDCHAR
STARTCHAR 03E3
ENCODING 995
SWIDTH 780 0
DWIDTH 13 0
BBX 10 14 1 0
BITMAP
C0C0
C0C0
CCC0
CCC0
CCC0
CCC0
CCC0
CCC0
FFC0
7FC0
33C0
00C0
FFC0
FF80
ENDCHAR
STARTCHAR 03E4
ENCODING 996
SWIDTH 780 0
DWIDTH 13 0
BBX 10 15 1 2
BITMAP
3EC0
7EC0
E0C0
C0C0
C0C0
C0C0
C0C0
C0C0
60C0
7FC0
3FC0
00C0
00C0
00C0
00C0
ENDCHAR
STARTCHAR 03E5
ENCODING 997
SWIDTH 780 0
DWIDTH 13 0
BBX 9 14 2 2
BITMAP
3D80
7D80
E180
C180
C180
C180
C180
6180
7F80
3F80
0180
0180
0180
0180
ENDCHAR
STARTCHAR 03E6
ENCODING 998
SWIDTH 780 0
DWIDTH 13 0
BBX 10 17 1 0
BITMAP
C000
C000
C000
DF00
FF80
E1C0
C0C0
C0C0
C0C0
C0C0
C0C0
C0C0
C0C0
C0C0
01C0
FF80
FF00
ENDCHAR
STARTCHAR 03E7
ENCODING 999
SWIDTH 780 0
DWIDTH 13 0
BBX 10 12 1 2
BITMAP
1E00
3F00
7380
6180
6180
3180
1FC0
1FC0
0180
0380
FF00
FE00
ENDCHAR
STARTCHAR 03E8
ENCODING 1000
SWIDTH 780 0
DWIDTH 13 0
BBX 11 15 0 2
BITMAP
3F80
7FC0
E0E0
C060
C060
00E0
3FC0
3F80
6000
C000
C060
C060
E0E0
7FC0
3F80
ENDCHAR
STARTCHAR 03E9
ENCODING 1001
SWIDTH 780 0
DWIDTH 13 0
BBX 11 14 0 2
BITMAP
3F80
7FC0
E0E0
C060
00E0
3FC0
3F80
6000
C000
C000
C000
E000
7FE0
3FE0
ENDCHAR
STARTCHAR 03EA
ENCODING 1002
SWIDTH 780 0
DWIDTH 13 0
BBX 10 15 1 2
BITMAP
F3C0
FFC0
1E00
0C00
0C00
0C00
0C00
1E00
3300
3300
3300
6180
6180
FFC0
FFC0
ENDCHAR
STARTCHAR 03EB
ENCODING 1003
SWIDTH 780 0
DWIDTH 13 0
BBX 10 12 1 2
BITMAP
F3C0
FFC0
1E00
0C00
0C00
0C00
3F00
7380
7380
E1C0
FFC0
FFC0
ENDCHAR
STARTCHAR 03EC
ENCODING 1004
SWIDTH 780 0
DWIDTH 13 0
BBX 11 15 0 2
BITMAP
3FE0
7FE0
E000
C000
DF80
FFC0
E0C0
C060
C060
C060
C060
C060
E0E0
7FC0
3F80
ENDCHAR
STARTCHAR 03ED
ENCODING 1005
SWIDTH 780 0
DWIDTH 13 0
BBX 10 12 1 2
BITMAP
3FC0
7FC0
E000
C000
C000
DF00
DF80
C1C0
C0C0
E1C0
7F80
3F00
ENDCHAR
STARTCHAR 03EE
ENCODING 1006
SWIDTH 780 0
DWIDTH 13 0
BBX 10 15 1 2
BITMAP
0C00
0C00
0C00
FFC0
FFC0
0C00
0C00
0C00
0C00
0C00
0C00
0C00
0C00
0C00
0C00
ENDCHAR
STARTCHAR 03EF
ENCODING 1007
SWIDTH 780 0
DWIDTH 13 0
BBX 6 16 3 0
BITMAP
30
30
30
FC
FC
30
30
30
30
30
30
30
30
30
30
30
ENDCHAR
STARTCHAR 03F0
ENCODING 1008
SWIDTH 780 0
DWIDTH 13 0
BBX 10 12 1 2
BITMAP
C0C0
E1C0
6780
6780
6D80
6D80
6D80
6D80
7980
7980
E1C0
C0C0
ENDCHAR
STARTCHAR 03F1
ENCODING 1009
SWIDTH 780 0
DWIDTH 13 0
BBX 10 14 1 0
BITMAP
3F00
7F80
E1C0
C0C0
C0C0
C0C0
C0C0
E180
FF80
DF00
C000
E000
7F80
3F80
ENDCHAR
STARTCHAR 03F2
ENCODING 1010
SWIDTH 780 0
DWIDTH 13 0
BBX 10 12 1 2
BITMAP
3F00
7F80
E1C0
C0C0
C000
C000
C000
C000
C0C0
E1C0
7F80
3F00
ENDCHAR
STARTCHAR 03F3
ENCODING 1011
SWIDTH 780 0
DWIDTH 13 0
BBX 10 17 1 0
BITMAP
00C0
00C0
0000
00C0
00C0
00C0
00C0
00C0
00C0
00C0
00C0
00C0
00C0
C0C0
E1C0
7F80
3F00
ENDCHAR
STARTCHAR 03F4
ENCODING 1012
SWIDTH 780 0
DWIDTH 13 0
BBX 10 15 1 2
BITMAP
3F00
7F80
E1C0
C0C0
C0C0
C0C0
FFC0
FFC0
C0C0
C0C0
C0C0
C0C0
E1C0
7F80
3F00
ENDCHAR
STARTCHAR 03F5
ENCODING 1013
SWIDTH 780 0
DWIDTH 13 0
BBX 10 12 1 2
BITMAP
3F00
7F80
E1C0
C0C0
C000
FC00
FC00
C000
C0C0
E1C0
7F80
3F00
ENDCHAR
STARTCHAR 03F6
ENCODING 1014
SWIDTH 780 0
DWIDTH 13 0
BBX 10 12 1 2
BITMAP
3F00
7F80
E1C0
C0C0
00C0
0FC0
0FC0
00C0
C0C0
E1C0
7F80
3F00
ENDCHAR
STARTCHAR 03F7
ENCODING 1015
SWIDTH 780 0
DWIDTH 13 0
BBX 10 15 1 2
BITMAP
C000
C000
FF00
FF80
C1C0
C0C0
C0C0
C0C0
C0C0
C180
FF80
FF00
C000
C000
C000
ENDCHAR
STARTCHAR 03F8
ENCODING 1016
SWIDTH 780 0
DWIDTH 13 0
BBX 10 17 1 0
BITMAP
C000
C000
C000
DF00
FF80
E1C0
C0C0
C0C0
C0C0
C0C0
C0C0
C0C0
E1C0
FF80
DF00
C000
C000
ENDCHAR
STARTCHAR 03F9
ENCODING 1017
SWIDTH 780 0
DWIDTH 13 0
BBX 11 15 0 2
BITMAP
3F80
7FC0
E0E0
C060
C060
C000
C000
C000
C000
C000
C060
C060
E0E0
7FC0
3F80
ENDCHAR
STARTCHAR 03FA
ENCODING 1018
SWIDTH 780 0
DWIDTH 13 0
BBX 10 15 1 2
BITMAP
C0C0
C0C0
E1C0
E1C0
F3C0
F3C0
D2C0
DEC0
CCC0
CCC0
CCC0
C0C0
C0C0
C0C0
C0C0
ENDCHAR
STARTCHAR 03FB
ENCODING 1019
SWIDTH 780 0
DWIDTH 13 0
BBX 10 14 1 0
BITMAP
C0C0
C0C0
E1C0
E1C0
F3C0
F3C0
D2C0
DEC0
CCC0
CCC0
CCC0
C0C0
C000
C000
ENDCHAR
STARTCHAR 03FC
ENCODING 1020
SWIDTH 780 0
DWIDTH 13 0
BBX 11 14 0 0
BITMAP
1F80
3FC0
70E0
6060
6060
6060
6060
70C0
7FC0
6F80
6000
F800
F800
6000
ENDCHAR
STARTCHAR 03FD
ENCODING 1021
SWIDTH 780 0
DWIDTH 13 0
BBX 11 15 0 2
BITMAP
3F80
7FC0
E0E0
C060
C060
0060
0060
0060
0060
0060
C060
C060
E0E0
7FC0
3F80
ENDCHAR
STARTCHAR 03FE
ENCODING 1022
SWIDTH 780 0
DWIDTH 13 0
BBX 10 15 1 2
BITMAP
3F00
7F80
E1C0
C0C0
C000
C000
CC00
CC00
C000
C000
C000
C0C0
E1C0
7F80
3F00
ENDCHAR
STARTCHAR 03FF
ENCODING 1023
SWIDTH 780 0
DWIDTH 13 0
BBX 10 15 1 2
BITMAP
3F00
7F80
E1C0
C0C0
00C0
00C0
0CC0
0CC0
00C0
00C0
00C0
C0C0
E1C0
7F80
3F00
ENDCHAR
STARTCHAR 0400
ENCODING 1024
SWIDTH 780 0
DWIDTH 13 0
BBX 11 15 1 2
BITMAP
1800
0C00
FFE0
FFE0
C000
C000
C000
C000
FF80
FF80
C000
C000
C000
FFE0
FFE0
ENDCHAR
STARTCHAR 0401
ENCODING 1025
SWIDTH 780 0
DWIDTH 13 0
BBX 11 15 1 2
BITMAP
3300
3300
FFE0
FFE0
C000
C000
C000
C000
FF00
FF00
C000
C000
C000
FFE0
FFE0
ENDCHAR
STARTCHAR 0402
ENCODING 1026
SWIDTH 780 0
DWIDTH 13 0
BBX 11 15 0 2
BITMAP
FC00
FC00
3000
3000
3000
3780
3FC0
38C0
3060
3060
3060
3060
30E0
33C0
3380
ENDCHAR
STARTCHAR 0403
ENCODING 1027
SWIDTH 780 0
DWIDTH 13 0
BBX 11 15 1 2
BITMAP
0600
0C00
FFE0
FFE0
C000
C000
C000
C000
C000
C000
C000
C000
C000
C000
C000
ENDCHAR
STARTCHAR 0404
ENCODING 1028
SWIDTH 780 0
DWIDTH 13 0
BBX 10 15 1 2
BITMAP
3F00
7F80
E1C0
C0C0
C000
C000
FE00
FE00
C000
C000
C000
C0C0
E1C0
7F80
3F00
ENDCHAR
STARTCHAR 0405
ENCODING 1029
SWIDTH 780 0
DWIDTH 13 0
BBX 10 15 1 2
BITMAP
3F00
7F80
E1C0
C0C0
C000
E000
7F00
3F00
0180
00C0
00C0
C0C0
E1C0
7F80
3F00
ENDCHAR
STARTCHAR 0406
ENCODING 1030
SWIDTH 780 0
DWIDTH 13 0
BBX 6 15 3 2
BITMAP
FC
FC
30
30
30
30
30
30
30
30
30
30
30
FC
FC
ENDCHAR
STARTCHAR 0407
ENCODING 1031
SWIDTH 780 0
DWIDTH 13 0
BBX 6 15 3 2
BITMAP
CC
CC
FC
FC
30
30
30
30
30
30
30
30
30
FC
FC
ENDCHAR
STARTCHAR 0408
ENCODING 1032
SWIDTH 780 0
DWIDTH 13 0
BBX 10 15 1 2
BITMAP
00C0
00C0
00C0
00C0
00C0
00C0
00C0
00C0
00C0
00C0
C0C0
C0C0
E1C0
7F80
3F00
ENDCHAR
STARTCHAR 0409
ENCODING 1033
SWIDTH 780 0
DWIDTH 13 0
BBX 12 15 0 2
BITMAP
1E00
3E00
7600
6600
6600
6600
67C0
67C0
6660
6630
6630
6630
6670
E7E0
C7C0
ENDCHAR
STARTCHAR 040A
ENCODING 1034
SWIDTH 780 0
DWIDTH 13 0
BBX 12 15 0 2
BITMAP
C600
C600
C600
C600
C600
C600
FFC0
FFC0
C660
C630
C630
C630
C670
C7E0
C7C0
ENDCHAR
STARTCHAR 040B
ENCODING 1035
SWIDTH 780 0
DWIDTH 13 0
BBX 11 15 0 2
BITMAP
FC00
FC00
3000
3000
3000
3780
3FC0
38E0
3060
3060
3060
3060
3060
3060
3060
ENDCHAR
STARTCHAR 040C
ENCODING 1036
SWIDTH 780 0
DWIDTH 13 0
BBX 10 15 1 2
BITMAP
CCC0
D9C0
C380
C700
CE00
DC00
F800
F800
D800
CC00
C600
C700
C380
C1C0
C0C0
ENDCHAR
STARTCHAR 040D
ENCODING 1037
SWIDTH 780 0
DWIDTH 13 0
BBX 10 15 1 2
BITMAP
CCC0
C6C0
C0C0
C0C0
C0C0
C1C0
C1C0
C3C0
C6C0
CEC0
DCC0
F8C0
F0C0
E0C0
C0C0
ENDCHAR
STARTCHAR 040E
ENCODING 1038
SWIDTH 780 0
DWIDTH 13 0
BBX 10 15 1 2
BITMAP
C6C0
CCC0
C0C0
C0C0
C0C0
C0C0
E1C0
61C0
3EC0
3EC0
00C0
C0C0
E1C0
7F80
3F00
ENDCHAR
STARTCHAR 040F
ENCODING 1039
SWIDTH 780 0
DWIDTH 13 0
BBX 10 17 1 0
BITMAP
C0C0
C0C0
C0C0
C0C0
C0C0
C0C0
C0C0
C0C0
C0C0
C0C0
C0C0
C0C0
C0C0
FFC0
FFC0
0C00
0C00
ENDCHAR
STARTCHAR 0410
ENCODING 1040
SWIDTH 780 0
DWIDTH 13 0
BBX 10 15 1 2
BITMAP
1FC0
3FC0
70C0
60C0
C0C0
C0C0
C0C0
C0C0
C0C0
FFC0
FFC0
C0C0
C0C0
C0C0
C0C0
ENDCHAR
STARTCHAR 0411
ENCODING 1041
SWIDTH 780 0
DWIDTH 13 0
BBX 10 15 1 2
BITMAP
FFC0
FFC0
C000
C000
C000
FF00
FF80
C180
C0C0
C0C0
C0C0
C0C0
C1C0
FF80
FF00
ENDCHAR
STARTCHAR 0412
ENCODING 1042
SWIDTH 780 0
DWIDTH 13 0
BBX 10 15 1 2
BITMAP
FE00
FF00
C380
C180
C180
C380
FF00
FF00
C180
C1C0
C0C0
C0C0
C1C0
FF80
FF00
ENDCHAR
STARTCHAR 0413
ENCODING 1043
SWIDTH 780 0
DWIDTH 13 0
BBX 11 15 1 2
BITMAP
FFE0
FFE0
C000
C000
C000
C000
C000
C000
C000
C000
C000
C000
C000
C000
C000
ENDCHAR
STARTCHAR 0414
ENCODING 1044
SWIDTH 780 0
DWIDTH 13 0
BBX 10 17 1 0
BITMAP
1F80
3F80
7180
6180
6180
6180
6180
6180
6180
6180
6180
6180
6180
FFC0
FFC0
C0C0
C0C0
ENDCHAR
STARTCHAR 0415
ENCODING 1045
SWIDTH 780 0
DWIDTH 13 0
BBX 11 15 1 2
BITMAP
FFE0
FFE0
C000
C000
C000
C000
FF80
FF80
C000
C000
C000
C000
C000
FFE0
FFE0
ENDCHAR
STARTCHAR 0416
ENCODING 1046
SWIDTH 780 0
DWIDTH 13 0
BBX 10 15 1 2
BITMAP
CCC0
CCC0
CCC0
6D80
6D80
3F00
3F00
3F00
3F00
6D80
6D80
6D80
CCC0
CCC0
CCC0
ENDCHAR
STARTCHAR 0417
ENCODING 1047
SWIDTH 780 0
DWIDTH 13 0
BBX 10 15 1 2
BITMAP
3F00
7F80
E1C0
C0C0
00C0
01C0
1F80
1F80
0180
00C0
00C0
C0C0
E1C0
7F80
3F00
ENDCHAR
STARTCHAR 0418
ENCODING 1048
SWIDTH 780 0
DWIDTH 13 0
BBX 10 15 1 2
BITMAP
C0C0
C0C0
C0C0
C0C0
C0C0
C1C0
C1C0
C3C0
C6C0
CEC0
DCC0
F8C0
F0C0
E0C0
C0C0
ENDCHAR
STARTCHAR 0419
ENCODING 1049
SWIDTH 780 0
DWIDTH 13 0
BBX 10 15 1 2
BITMAP
C6C0
CCC0
C0C0
C0C0
C0C0
C1C0
C1C0
C3C0
C6C0
CEC0
DCC0
F8C0
F0C0
E0C0
C0C0
ENDCHAR
STARTCHAR 041A
ENCODING 1050
SWIDTH 780 0
DWIDTH 13 0
BBX 10 15 1 2
BITMAP
C0C0
C1C0
C380
C700
CE00
DC00
F800
F800
D800
CC00
C600
C700
C380
C1C0
C0C0
ENDCHAR
STARTCHAR 041B
ENCODING 1051
SWIDTH 780 0
DWIDTH 13 0
BBX 10 15 1 2
BITMAP
1FC0
3FC0
70C0
60C0
60C0
60C0
60C0
60C0
60C0
60C0
60C0
60C0
60C0
E0C0
C0C0
ENDCHAR
STARTCHAR 041C
ENCODING 1052
SWIDTH 780 0
DWIDTH 13 0
BBX 10 15 1 2
BITMAP
C0C0
C0C0
E1C0
E1C0
F3C0
F3C0
D2C0
DEC0
CCC0
CCC0
CCC0
C0C0
C0C0
C0C0
C0C0
ENDCHAR
STARTCHAR 041D
ENCODING 1053
SWIDTH 780 0
DWIDTH 13 0
BBX 10 15 1 2
BITMAP
C0C0
C0C0
C0C0
C0C0
C0C0
C0C0
FFC0
FFC0
C0C0
C0C0
C0C0
C0C0
C0C0
C0C0
C0C0
ENDCHAR
STARTCHAR 041E
ENCODING 1054
SWIDTH 780 0
DWIDTH 13 0
BBX 10 15 1 2
BITMAP
3F00
7F80
E1C0
C0C0
C0C0
C0C0
C0C0
C0C0
C0C0
C0C0
C0C0
C0C0
E1C0
7F80
3F00
ENDCHAR
STARTCHAR 041F
ENCODING 1055
SWIDTH 780 0
DWIDTH 13 0
BBX 10 15 1 2
BITMAP
FFC0
FFC0
C0C0
C0C0
C0C0
C0C0
C0C0
C0C0
C0C0
C0C0
C0C0
C0C0
C0C0
C0C0
C0C0
ENDCHAR
STARTCHAR 0420
ENCODING 1056
SWIDTH 780 0
DWIDTH 13 0
BBX 10 15 1 2
BITMAP
FF00
FF80
C1C0
C0C0
C0C0
C0C0
C0C0
C0C0
C180
FF80
FF00
C000
C000
C000
C000
ENDCHAR
STARTCHAR 0421
ENCODING 1057
SWIDTH 780 0
DWIDTH 13 0
BBX 10 15 1 2
BITMAP
3F00
7F80
E1C0
C0C0
C000
C000
C000
C000
C000
C000
C000
C0C0
E1C0
7F80
3F00
ENDCHAR
STARTCHAR 0422
ENCODING 1058
SWIDTH 780 0
DWIDTH 13 0
BBX 10 15 1 2
BITMAP
FFC0
FFC0
0C00
0C00
0C00
0C00
0C00
0C00
0C00
0C00
0C00
0C00
0C00
0C00
0C00
ENDCHAR
STARTCHAR 0423
ENCODING 1059
SWIDTH 780 0
DWIDTH 13 0
BBX 10 15 1 2
BITMAP
C0C0
C0C0
C0C0
C0C0
C0C0
C0C0
E1C0
61C0
3EC0
3EC0
00C0
C0C0
E1C0
7F80
3F00
ENDCHAR
STARTCHAR 0424
ENCODING 1060
SWIDTH 780 0
DWIDTH 13 0
BBX 10 15 1 2
BITMAP
3F00
7F80
EDC0
CCC0
CCC0
CCC0
CCC0
CCC0
CCC0
EDC0
7F80
3F00
0C00
0C00
0C00
ENDCHAR
STARTCHAR 0425
ENCODING 1061
SWIDTH 780 0
DWIDTH 13 0
BBX 10 15 1 2
BITMAP
C0C0
C0C0
C0C0
E1C0
7380
3F00
1E00
1E00
1E00
3300
6180
E1C0
C0C0
C0C0
C0C0
ENDCHAR
STARTCHAR 0426
ENCODING 1062
SWIDTH 780 0
DWIDTH 13 0
BBX 10 17 1 0
BITMAP
C180
C180
C180
C180
C180
C180
C180
C180
C180
C180
C180
C180
C180
FFC0
FFC0
00C0
00C0
ENDCHAR
STARTCHAR 0427
ENCODING 1063
SWIDTH 780 0
DWIDTH 13 0
BBX 10 15 1 2
BITMAP
C0C0
C0C0
C0C0
C0C0
C0C0
C0C0
C0C0
60C0
3FC0
3FC0
00C0
00C0
00C0
00C0
00C0
ENDCHAR
STARTCHAR 0428
ENCODING 1064
SWIDTH 780 0
DWIDTH 13 0
BBX 10 15 1 2
BITMAP
C0C0
C0C0
CCC0
CCC0
CCC0
CCC0
CCC0
CCC0
CCC0
CCC0
CCC0
CCC0
CCC0
FFC0
FFC0
ENDCHAR
STARTCHAR 0429
ENCODING 1065
SWIDTH 780 0
DWIDTH 13 0
BBX 11 17 1 0
BITMAP
C0C0
C0C0
CCC0
CCC0
CCC0
CCC0
CCC0
CCC0
CCC0
CCC0
CCC0
CCC0
CCC0
FFE0
FFE0
0060
0060
ENDCHAR
STARTCHAR 042A
ENCODING 1066
SWIDTH 780 0
DWIDTH 13 0
BBX 10 15 1 2
BITMAP
F000
F000
3000
3000
3000
3F00
3F80
3180
30C0
30C0
30C0
30C0
31C0
3F80
3F00
ENDCHAR
STARTCHAR 042B
ENCODING 1067
SWIDTH 780 0
DWIDTH 13 0
BBX 10 15 1 2
BITMAP
C0C0
C0C0
C0C0
C0C0
C0C0
F8C0
FCC0
CCC0
C6C0
C6C0
C6C0
C6C0
CEC0
FCC0
F8C0
ENDCHAR
STARTCHAR 042C
ENCODING 1068
SWIDTH 780 0
DWIDTH 13 0
BBX 10 15 1 2
BITMAP
C000
C000
C000
C000
C000
FF00
FF80
C180
C0C0
C0C0
C0C0
C0C0
C1C0
FF80
FF00
ENDCHAR
STARTCHAR 042D
ENCODING 1069
SWIDTH 780 0
DWIDTH 13 0
BBX 10 15 1 2
BITMAP
3F00
7F80
E1C0
C0C0
00C0
00C0
1FC0
1FC0
00C0
00C0
00C0
C0C0
E1C0
7F80
3F00
ENDCHAR
STARTCHAR 042E
ENCODING 1070
SWIDTH 780 0
DWIDTH 13 0
BBX 10 15 1 2
BITMAP
C700
CF80
DDC0
D8C0
D8C0
D8C0
F8C0
F8C0
D8C0
D8C0
D8C0
D8C0
DDC0
CF80
C700
ENDCHAR
STARTCHAR 042F
ENCODING 1071
SWIDTH 780 0
DWIDTH 13 0
BBX 10 15 1 2
BITMAP
3FC0
7FC0
E0C0
C0C0
C0C0
C0C0
C0C0
60C0
7FC0
3FC0
1CC0
38C0
70C0
E0C0
C0C0
ENDCHAR
STARTCHAR 0430
ENCODING 1072
SWIDTH 780 0
DWIDTH 13 0
BBX 10 12 1 2
BITMAP
3E00
3F00
0380
0180
0180
3D80
7F80
E380
C180
E380
7FC0
3EC0
ENDCHAR
STARTCHAR 0431
ENCODING 1073
SWIDTH 780 0
DWIDTH 13 0
BBX 10 15 1 2
BITMAP
00C0
3FC0
7F80
E000
C000
DF00
7F80
6180
40C0
C0C0
C0C0
C0C0
E1C0
7F80
3F00
ENDCHAR
STARTCHAR 0432
ENCODING 1074
SWIDTH 780 0
DWIDTH 13 0
BBX 10 12 1 2
BITMAP
FF00
FF80
C1C0
C0C0
C080
FF80
FF80
C1C0
C0C0
C1C0
FF80
FF00
ENDCHAR
STARTCHAR 0433
ENCODING 1075
SWIDTH 780 0
DWIDTH 13 0
BBX 11 12 1 2
BITMAP
FFE0
FFE0
C000
C000
C000
C000
C000
C000
C000
C000
C000
C000
ENDCHAR
STARTCHAR 0434
ENCODING 1076
SWIDTH 780 0
DWIDTH 13 0
BBX 10 14 1 0
BITMAP
1F80
3F80
7180
6180
6180
6180
6180
6180
6180
6180
FFC0
FFC0
C0C0
C0C0
ENDCHAR
STARTCHAR 0435
ENCODING 1077
SWIDTH 780 0
DWIDTH 13 0
BBX 10 12 1 2
BITMAP
3F00
7F80
E1C0
C0C0
C0C0
C0C0
FFC0
FFC0
C000
E000
7FC0
3FC0
ENDCHAR
STARTCHAR 0436
ENCODING 1078
SWIDTH 780 0
DWIDTH 13 0
BBX 10 12 1 2
BITMAP
CCC0
CCC0
6D80
6D80
6D80
3F00
3F00
3F00
6D80
6D80
CCC0
CCC0
ENDCHAR
STARTCHAR 0437
ENCODING 1079
SWIDTH 780 0
DWIDTH 13 0
BBX 10 12 1 2
BITMAP
3F00
7F80
E1C0
C0C0
0080
0F80
0F80
01C0
C0C0
E1C0
7F80
3F00
ENDCHAR
STARTCHAR 0438
ENCODING 1080
SWIDTH 780 0
DWIDTH 13 0
BBX 10 12 1 2
BITMAP
C0C0
C0C0
C0C0
C0C0
C0C0
C0C0
C0C0
C1C0
C3C0
C7C0
FEC0
7CC0
ENDCHAR
STARTCHAR 0439
ENCODING 1081
SWIDTH 780 0
DWIDTH 13 0
BBX 10 14 1 2
BITMAP
0600
0C00
C0C0
C0C0
C0C0
C0C0
C0C0
C0C0
C0C0
C1C0
C3C0
C7C0
FEC0
7CC0
ENDCHAR
STARTCHAR 043A
ENCODING 1082
SWIDTH 780 0
DWIDTH 13 0
BBX 10 12 1 2
BITMAP
C0C0
C1C0
C180
C300
C600
FE00
FE00
C700
C380
C1C0
C0C0
C0C0
ENDCHAR
STARTCHAR 043B
ENCODING 1083
SWIDTH 780 0
DWIDTH 13 0
BBX 10 12 1 2
BITMAP
1FC0
3FC0
70C0
60C0
60C0
60C0
60C0
60C0
60C0
60C0
E0C0
C0C0
ENDCHAR
STARTCHAR 043C
ENCODING 1084
SWIDTH 780 0
DWIDTH 13 0
BBX 10 12 1 2
BITMAP
C0C0
C0C0
E1C0
E1C0
E1C0
F3C0
D2C0
DEC0
DEC0
CCC0
CCC0
C0C0
ENDCHAR
STARTCHAR 043D
ENCODING 1085
SWIDTH 780 0
DWIDTH 13 0
BBX 10 12 1 2
BITMAP
C0C0
C0C0
C0C0
C0C0
C0C0
FFC0
FFC0
C0C0
C0C0
C0C0
C0C0
C0C0
ENDCHAR
STARTCHAR 043E
ENCODING 1086
SWIDTH 780 0
DWIDTH 13 0
BBX 10 12 1 2
BITMAP
3F00
7F80
E1C0
C0C0
C0C0
C0C0
C0C0
C0C0
C0C0
E1C0
7F80
3F00
ENDCHAR
STARTCHAR 043F
ENCODING 1087
SWIDTH 780 0
DWIDTH 13 0
BBX 10 12 1 2
BITMAP
FFC0
FFC0
C0C0
C0C0
C0C0
C0C0
C0C0
C0C0
C0C0
C0C0
C0C0
C0C0
ENDCHAR
STARTCHAR 0440
ENCODING 1088
SWIDTH 780 0
DWIDTH 13 0
BBX 10 14 1 0
BITMAP
DF00
FF80
E1C0
C0C0
C0C0
C0C0
C0C0
C0C0
C0C0
E1C0
FF80
DF00
C000
C000
ENDCHAR
STARTCHAR 0441
ENCODING 1089
SWIDTH 780 0
DWIDTH 13 0
BBX 10 12 1 2
BITMAP
3F00
7F80
E1C0
C0C0
C000
C000
C000
C000
C0C0
E1C0
7F80
3F00
ENDCHAR
STARTCHAR 0442
ENCODING 1090
SWIDTH 780 0
DWIDTH 13 0
BBX 10 12 1 2
BITMAP
FFC0
FFC0
0C00
0C00
0C00
0C00
0C00
0C00
0C00
0C00
0C00
0C00
ENDCHAR
STARTCHAR 0443
ENCODING 1091
SWIDTH 780 0
DWIDTH 13 0
BBX 10 14 1 0
BITMAP
C0C0
C0C0
C0C0
C0C0
C0C0
C0C0
C0C0
E0C0
7FC0
3FC0
0180
0380
7F00
7E00
ENDCHAR
STARTCHAR 0444
ENCODING 1092
SWIDTH 780 0
DWIDTH 13 0
BBX 10 16 1 0
BITMAP
0C00
0C00
3F00
7F80
EDC0
CCC0
CCC0
CCC0
CCC0
CCC0
CCC0
EDC0
7F80
3F00
0C00
0C00
ENDCHAR
STARTCHAR 0445
ENCODING 1093
SWIDTH 780 0
DWIDTH 13 0
BBX 10 12 1 2
BITMAP
C0C0
E1C0
7380
3300
1E00
0C00
0C00
1E00
3F00
7380
E1C0
C0C0
ENDCHAR
STARTCHAR 0446
ENCODING 1094
SWIDTH 780 0
DWIDTH 13 0
BBX 10 14 1 0
BITMAP
C180
C180
C180
C180
C180
C180
C180
C180
C180
C180
FFC0
FFC0
00C0
00C0
ENDCHAR
STARTCHAR 0447
ENCODING 1095
SWIDTH 780 0
DWIDTH 13 0
BBX 10 12 1 2
BITMAP
C0C0
C0C0
C0C0
C0C0
C0C0
C0C0
60C0
3FC0
3FC0
00C0
00C0
00C0
ENDCHAR
STARTCHAR 0448
ENCODING 1096
SWIDTH 780 0
DWIDTH 13 0
BBX 10 12 1 2
BITMAP
C0C0
C0C0
CCC0
CCC0
CCC0
CCC0
CCC0
CCC0
CCC0
CCC0
FFC0
FFC0
ENDCHAR
STARTCHAR 0449
ENCODING 1097
SWIDTH 780 0
DWIDTH 13 0
BBX 11 14 1 0
BITMAP
C0C0
C0C0
CCC0
CCC0
CCC0
CCC0
CCC0
CCC0
CCC0
CCC0
FFE0
FFE0
0060
0060
ENDCHAR
STARTCHAR 044A
ENCODING 1098
SWIDTH 780 0
DWIDTH 13 0
BBX 10 12 1 2
BITMAP
F000
F000
3000
3000
3000
3F00
3F80
31C0
30C0
31C0
3F80
3F00
ENDCHAR
STARTCHAR 044B
ENCODING 1099
SWIDTH 780 0
DWIDTH 13 0
BBX 10 12 1 2
BITMAP
C0C0
C0C0
C0C0
C0C0
C0C0
F8C0
FCC0
CEC0
C6C0
CEC0
FCC0
F8C0
ENDCHAR
STARTCHAR 044C
ENCODING 1100
SWIDTH 780 0
DWIDTH 13 0
BBX 10 12 1 2
BITMAP
C000
C000
C000
C000
C000
FF00
FF80
C1C0
C0C0
C1C0
FF80
FF00
ENDCHAR
STARTCHAR 044D
ENCODING 1101
SWIDTH 780 0
DWIDTH 13 0
BBX 10 12 1 2
BITMAP
3F00
7F80
E1C0
C0C0
00C0
0FC0
0FC0
00C0
C0C0
E1C0
7F80
3F00
ENDCHAR
STARTCHAR 044E
ENCODING 1102
SWIDTH 780 0
DWIDTH 13 0
BBX 10 12 1 2
BITMAP
C700
CF80
DDC0
D8C0
D8C0
F8C0
F8C0
D8C0
D8C0
DDC0
CF80
C700
ENDCHAR
STARTCHAR 044F
ENCODING 1103
SWIDTH 780 0
DWIDTH 13 0
BBX 10 12 1 2
BITMAP
3FC0
7FC0
E0C0
C0C0
C0C0
60C0
3FC0
3FC0
38C0
70C0
E0C0
C0C0
ENDCHAR
STARTCHAR 0450
ENCODING 1104
SWIDTH 780 0
DWIDTH 13 0
BBX 10 15 1 2
BITMAP
0C00
0600
0000
3F00
7F80
E1C0
C0C0
C0C0
C0C0
FFC0
FFC0
C000
E000
7FC0
3FC0
ENDCHAR
STARTCHAR 0451
ENCODING 1105
SWIDTH 780 0
DWIDTH 13 0
BBX 10 15 1 2
BITMAP
3300
3300
0000
3F00
7F80
E1C0
C0C0
C0C0
C0C0
FFC0
FFC0
C000
E000
7FC0
3FC0
ENDCHAR
STARTCHAR 0452
ENCODING 1106
SWIDTH 780 0
DWIDTH 13 0
BBX 11 17 0 0
BITMAP
3000
3000
3000
FC00
FC00
3000
3780
3FC0
38C0
3060
3060
3060
3060
3060
30E0
03C0
0380
ENDCHAR
STARTCHAR 0453
ENCODING 1107
SWIDTH 780 0
DWIDTH 13 0
BBX 11 15 1 2
BITMAP
0600
0C00
0000
FFE0
FFE0
C000
C000
C000
C000
C000
C000
C000
C000
C000
C000
ENDCHAR
STARTCHAR 0454
ENCODING 1108
SWIDTH 780 0
DWIDTH 13 0
BBX 10 12 1 2
BITMAP
3F00
7F80
E1C0
C0C0
C000
FC00
FC00
C000
C0C0
E1C0
7F80
3F00
ENDCHAR
STARTCHAR 0455
ENCODING 1109
SWIDTH 780 0
DWIDTH 13 0
BBX 10 12 1 2
BITMAP
3F00
7F80
E1C0
E0C0
6000
1C00
1F00
0780
C1C0
E1C0
7F80
3F00
ENDCHAR
STARTCHAR 0456
ENCODING 1110
SWIDTH 780 0
DWIDTH 13 0
BBX 6 15 3 2
BITMAP
30
30
00
F0
F0
30
30
30
30
30
30
30
30
3C
1C
ENDCHAR
STARTCHAR 0457
ENCODING 1111
SWIDTH 780 0
DWIDTH 13 0
BBX 6 15 3 2
BITMAP
CC
CC
00
F0
F0
30
30
30
30
30
30
30
30
3C
1C
ENDCHAR
STARTCHAR 0458
ENCODING 1112
SWIDTH 780 0
DWIDTH 13 0
BBX 10 17 1 0
BITMAP
00C0
00C0
0000
00C0
00C0
00C0
00C0
00C0
00C0
00C0
00C0
00C0
C0C0
C0C0
E1C0
7F80
3F00
ENDCHAR
STARTCHAR 0459
ENCODING 1113
SWIDTH 780 0
DWIDTH 13 0
BBX 12 12 0 2
BITMAP
1E00
3E00
7600
6600
6600
67C0
67E0
6670
6630
6670
E7E0
C7C0
ENDCHAR
STARTCHAR 045A
ENCODING 1114
SWIDTH 780 0
DWIDTH 13 0
BBX 12 12 0 2
BITMAP
C600
C600
C600
C600
C600
FFC0
FFE0
C670
C630
C670
C7E0
C7C0
ENDCHAR
STARTCHAR 045B
ENCODING 1115
SWIDTH 780 0
DWIDTH 13 0
BBX 11 15 0 2
BITMAP
3000
3000
3000
FC00
FC00
3000
3780
3780
38C0
38E0
3060
3060
3060
3060
3060
ENDCHAR
STARTCHAR 045C
ENCODING 1116
SWIDTH 780 0
DWIDTH 13 0
BBX 10 14 1 2
BITMAP
0600
0C00
C0C0
C1C0
C180
C300
C600
FE00
FE00
C700
C380
C1C0
C0C0
C0C0
ENDCHAR
STARTCHAR 045D
ENCODING 1117
SWIDTH 780 0
DWIDTH 13 0
BBX 10 14 1 2
BITMAP
1800
0C00
C0C0
C0C0
C0C0
C0C0
C0C0
C0C0
C0C0
C1C0
C3C0
C7C0
FEC0
7CC0
ENDCHAR
STARTCHAR 045E
ENCODING 1118
SWIDTH 780 0
DWIDTH 13 0
BBX 10 16 1 0
BITMAP
0600
0C00
C0C0
C0C0
C0C0
C0C0
C0C0
C0C0
C0C0
E0C0
7FC0
3FC0
0180
0380
7F00
7E00
ENDCHAR
STARTCHAR 045F
ENCODING 1119
SWIDTH 780 0
DWIDTH 13 0
BBX 10 14 1 0
BITMAP
C0C0
C0C0
C0C0
C0C0
C0C0
C0C0
C0C0
C0C0
C0C0
C0C0
FFC0
FFC0
0C00
0C00
ENDCHAR
STARTCHAR 0460
ENCODING 1120
SWIDTH 780 0
DWIDTH 13 0
BBX 12 15 0 2
BITMAP
30C0
70E0
E070
C030
C030
C030
C630
C630
C630
C630
C630
C630
EF70
7FE0
39C0
ENDCHAR
STARTCHAR 0461
ENCODING 1121
SWIDTH 780 0
DWIDTH 13 0
BBX 10 12 1 2
BITMAP
C0C0
C0C0
C0C0
CCC0
CCC0
CCC0
CCC0
CCC0
CD80
7F80
7F00
3300
ENDCHAR
STARTCHAR 0462
ENCODING 1122
SWIDTH 780 0
DWIDTH 13 0
BBX 11 15 0 2
BITMAP
3000
3000
FC00
FC00
3000
3000
3F80
3F80
30C0
3060
3060
3060
30E0
3FC0
3F80
ENDCHAR
STARTCHAR 0463
ENCODING 1123
SWIDTH 780 0
DWIDTH 13 0
BBX 11 15 0 2
BITMAP
3000
3000
3000
FC00
FC00
3000
3000
3000
3F80
3FC0
30E0
3060
30E0
3FC0
3F80
ENDCHAR
STARTCHAR 0464
ENCODING 1124
SWIDTH 780 0
DWIDTH 13 0
BBX 11 15 0 2
BITMAP
C780
CFC0
DCE0
D860
D800
D800
FE00
FE00
D800
D800
D800
D860
DCE0
CFC0
C780
ENDCHAR
STARTCHAR 0465
ENCODING 1125
SWIDTH 780 0
DWIDTH 13 0
BBX 11 12 0 2
BITMAP
C780
CFC0
DCE0
D860
D800
FE00
FE00
D800
D860
DCE0
CFC0
C780
ENDCHAR
STARTCHAR 0466
ENCODING 1126
SWIDTH 780 0
DWIDTH 13 0
BBX 10 15 1 2
BITMAP
0C00
0C00
1E00
1E00
1E00
3300
3300
3300
6180
6180
7F80
7F80
CCC0
CCC0
CCC0
ENDCHAR
STARTCHAR 0467
ENCODING 1127
SWIDTH 780 0
DWIDTH 13 0
BBX 10 12 1 2
BITMAP
0C00
0C00
1E00
1E00
1200
3300
3300
7F80
7F80
CCC0
CCC0
CCC0
ENDCHAR
STARTCHAR 0468
ENCODING 1128
SWIDTH 780 0
DWIDTH 13 0
BBX 11 15 0 2
BITMAP
C300
C300
C780
C780
C780
C780
CCC0
CCC0
CCC0
CCC0
FFE0
FFE0
DB60
DB60
DB60
ENDCHAR
STARTCHAR 0469
ENCODING 1129
SWIDTH 780 0
DWIDTH 13 0
BBX 11 12 0 2
BITMAP
C300
C300
C780
C780
C780
CCC0
CCC0
CCC0
FFE0
FFE0
DB60
DB60
ENDCHAR
STARTCHAR 046A
ENCODING 1130
SWIDTH 780 0
DWIDTH 13 0
BBX 10 15 1 2
BITMAP
FFC0
FFC0
C0C0
E1C0
7380
3F00
1E00
1E00
3F00
6D80
EDC0
CCC0
CCC0
CCC0
CCC0
ENDCHAR
STARTCHAR 046B
ENCODING 1131
SWIDTH 780 0
DWIDTH 13 0
BBX 10 12 1 2
BITMAP
FFC0
FFC0
C0C0
C0C0
E1C0
7380
3F00
3F00
7F80
EDC0
CCC0
CCC0
ENDCHAR
STARTCHAR 046C
ENCODING 1132
SWIDTH 780 0
DWIDTH 13 0
BBX 11 15 0 2
BITMAP
DFE0
DFE0
D860
D860
DCE0
CFC0
FFC0
FFE0
DB60
DB60
DB60
DB60
DB60
DB60
DB60
ENDCHAR
STARTCHAR 046D
ENCODING 1133
SWIDTH 780 0
DWIDTH 13 0
BBX 11 12 0 2
BITMAP
DFE0
DFE0
D860
D860
CFC0
CFC0
FFC0
FFE0
DB60
DB60
DB60
DB60
ENDCHAR
STARTCHAR 046E
ENCODING 1134
SWIDTH 780 0
DWIDTH 13 0
BBX 10 17 1 0
BITMAP
3300
1E00
3F00
7F80
E1C0
C1C0
1F80
1F80
01C0
01C0
00C0
0180
7F80
FF00
C000
FFC0
7FC0
ENDCHAR
STARTCHAR 046F
ENCODING 1135
SWIDTH 780 0
DWIDTH 13 0
BBX 10 17 1 0
BITMAP
3300
1E00
0C00
3F00
7F80
E1C0
C1C0
1F80
1F80
0180
01C0
01C0
7F80
FF00
C000
FFC0
7FC0
ENDCHAR
STARTCHAR 0470
ENCODING 1136
SWIDTH 780 0
DWIDTH 13 0
BBX 10 15 1 2
BITMAP
CCC0
CCC0
CCC0
CCC0
CCC0
CCC0
CCC0
CCC0
CCC0
EDC0
7F80
3F00
0C00
0C00
0C00
ENDCHAR
STARTCHAR 0471
ENCODING 1137
SWIDTH 780 0
DWIDTH 13 0
BBX 10 16 1 0
BITMAP
0C00
0C00
CCC0
CCC0
CCC0
CCC0
CCC0
CCC0
CCC0
CCC0
CCC0
EDC0
7F80
3F00
0C00
0C00
ENDCHAR
STARTCHAR 0472
ENCODING 1138
SWIDTH 780 0
DWIDTH 13 0
BBX 10 15 1 2
BITMAP
3F00
7F80
E1C0
C0C0
C0C0
D8C0
FDC0
EDC0
C6C0
C6C0
C0C0
C0C0
E1C0
7F80
3F00
ENDCHAR
STARTCHAR 0473
ENCODING 1139
SWIDTH 780 0
DWIDTH 13 0
BBX 10 12 1 2
BITMAP
3F00
7F80
E1C0
D8C0
D8C0
EDC0
EFC0
C6C0
C0C0
E1C0
7F80
3F00
ENDCHAR
STARTCHAR 0474
ENCODING 1140
SWIDTH 780 0
DWIDTH 13 0
BBX 13 15 0 2
BITMAP
03F8
03F8
0300
0300
0300
0300
0300
0300
0300
E300
F300
3B00
1F00
0F00
0600
ENDCHAR
STARTCHAR 0475
ENCODING 1141
SWIDTH 780 0
DWIDTH 13 0
BBX 13 15 0 2
BITMAP
03F8
03F8
0300
0300
0300
0300
0300
0300
0300
E300
F300
3B00
1F00
0F00
0600
ENDCHAR
STARTCHAR 0476
ENCODING 1142
SWIDTH 780 0
DWIDTH 13 0
BBX 12 15 0 2
BITMAP
DBF0
6FF0
0300
0300
0300
0300
0300
0300
0300
E300
F300
3B00
1F00
0F00
0600
ENDCHAR
STARTCHAR 0477
ENCODING 1143
SWIDTH 780 0
DWIDTH 13 0
BBX 12 15 0 2
BITMAP
DBF0
6FF0
0300
0300
0300
0300
0300
0300
0300
E300
F300
3B00
1F00
0F00
0600
ENDCHAR
STARTCHAR 0478
ENCODING 1144
SWIDTH 780 0
DWIDTH 13 0
BBX 10 15 1 2
BITMAP
C0C0
C0C0
6180
6180
3300
3300
1200
1E00
0C00
0C00
0C00
1800
1800
3000
3000
ENDCHAR
STARTCHAR 0479
ENCODING 1145
SWIDTH 780 0
DWIDTH 13 0
BBX 10 14 1 0
BITMAP
C0C0
C0C0
C0C0
6180
6180
6180
3300
1200
1E00
1E00
0C00
0C00
1800
1800
ENDCHAR
STARTCHAR 047A
ENCODING 1146
SWIDTH 780 0
DWIDTH 13 0
BBX 10 16 1 1
BITMAP
0C00
3F00
7F80
EDC0
C0C0
C0C0
C0C0
C0C0
C0C0
C0C0
C0C0
C0C0
EDC0
7F80
3F00
0C00
ENDCHAR
STARTCHAR 047B
ENCODING 1147
SWIDTH 780 0
DWIDTH 13 0
BBX 12 14 0 1
BITMAP
0600
3FC0
7FE0
E670
C030
C030
C030
C030
C030
C030
E670
7FE0
3FC0
0600
ENDCHAR
STARTCHAR 047C
ENCODING 1148
SWIDTH 780 0
DWIDTH 13 0
BBX 12 15 0 2
BITMAP
1FC0
0260
6660
E470
C030
C030
C030
C030
C030
C630
C630
C630
EF70
7FE0
39C0
ENDCHAR
STARTCHAR 047D
ENCODING 1149
SWIDTH 780 0
DWIDTH 13 0
BBX 12 15 0 2
BITMAP
1FC0
0260
0600
6460
E070
C030
C030
C030
C030
C630
C630
C630
EF70
7FE0
39C0
ENDCHAR
STARTCHAR 047E
ENCODING 1150
SWIDTH 780 0
DWIDTH 13 0
BBX 12 15 0 2
BITMAP
3FC0
36C0
0000
30C0
70E0
E070
C030
C030
C030
C630
C630
C630
EF70
7FE0
39C0
ENDCHAR
STARTCHAR 047F
ENCODING 1151
SWIDTH 780 0
DWIDTH 13 0
BBX 10 15 1 2
BITMAP
7F80
6D80
0000
C0C0
C0C0
C0C0
CCC0
CCC0
CCC0
CCC0
CCC0
CD80
7F80
7F00
3300
ENDCHAR
STARTCHAR 0480
ENCODING 1152
SWIDTH 780 0
DWIDTH 13 0
BBX 10 17 1 0
BITMAP
3F00
7F80
E1C0
C0C0
C0C0
C000
C000
C000
C000
C000
C000
C000
E000
7E00
3E00
0600
0600
ENDCHAR
STARTCHAR 0481
ENCODING 1153
SWIDTH 780 0
DWIDTH 13 0
BBX 10 14 1 0
BITMAP
3F00
7F80
E1C0
C0C0
C0C0
C000
C000
C000
C000
E000
7E00
3E00
0600
0600
ENDCHAR
STARTCHAR 0482
ENCODING 1154
SWIDTH 780 0
DWIDTH 13 0
BBX 8 15 2 2
BITMAP
03
03
06
06
3F
3F
18
18
18
FC
FC
60
60
C0
C0
ENDCHAR
STARTCHAR 0483
ENCODING 1155
SWIDTH 780 0
DWIDTH 13 0
BBX 6 3 3 14
BITMAP
0C
FC
C0
ENDCHAR
STARTCHAR 0484
ENCODING 1156
SWIDTH 780 0
DWIDTH 13 0
BBX 6 2 3 15
BITMAP
F8
0C
ENDCHAR
STARTCHAR 0485
ENCODING 1157
SWIDTH 780 0
DWIDTH 13 0
BBX 3 3 4 14
BITMAP
60
60
C0
ENDCHAR
STARTCHAR 0486
ENCODING 1158
SWIDTH 780 0
DWIDTH 13 0
BBX 3 3 5 14
BITMAP
C0
C0
60
ENDCHAR
STARTCHAR 0487
ENCODING 1159
SWIDTH 780 0
DWIDTH 13 0
BBX 8 2 2 15
BITMAP
7E
C3
ENDCHAR
STARTCHAR 0488
ENCODING 1160
SWIDTH 780 0
DWIDTH 13 0
BBX 12 17 0 0
BITMAP
0F00
1980
0000
4020
E070
A050
0000
0000
0000
0000
4020
E070
A050
0000
0000
0F00
1980
ENDCHAR
STARTCHAR 0489
ENCODING 1161
SWIDTH 780 0
DWIDTH 13 0
BBX 12 17 0 0
BITMAP
0300
0600
0000
4020
C030
8010
0000
0000
0000
0000
4020
C030
8010
0000
0000
0600
0300
ENDCHAR
STARTCHAR 048A
ENCODING 1162
SWIDTH 780 0
DWIDTH 13 0
BBX 11 17 1 0
BITMAP
C6C0
CCC0
C0C0
C0C0
C0C0
C1C0
C3C0
C7C0
CEC0
CCC0
D8C0
F0C0
F0C0
E0C0
C0E0
0060
0060
ENDCHAR
STARTCHAR 048B
ENCODING 1163
SWIDTH 780 0
DWIDTH 13 0
BBX 11 16 1 0
BITMAP
0600
0C00
C0C0
C0C0
C0C0
C0C0
C0C0
C0C0
C0C0
C1C0
C3C0
C7C0
FEC0
7CE0
0060
0060
ENDCHAR
STARTCHAR 048C
ENCODING 1164
SWIDTH 780 0
DWIDTH 13 0
BBX 11 15 0 2
BITMAP
3000
3000
FC00
FC00
3000
3F80
3FC0
30C0
3060
3060
3060
3060
30E0
3FC0
3F80
ENDCHAR
STARTCHAR 048D
ENCODING 1165
SWIDTH 780 0
DWIDTH 13 0
BBX 11 15 0 2
BITMAP
3000
3000
FC00
FC00
3000
3000
3000
3000
3F80
3FC0
30E0
3060
30E0
3FC0
3F80
ENDCHAR
STARTCHAR 048E
ENCODING 1166
SWIDTH 780 0
DWIDTH 13 0
BBX 10 15 1 2
BITMAP
FF00
FF80
C1C0
C0C0
C0C0
C6C0
C6C0
C380
C380
FFC0
FEC0
C000
C000
C000
C000
ENDCHAR
STARTCHAR 048F
ENCODING 1167
SWIDTH 780 0
DWIDTH 13 0
BBX 10 14 1 0
BITMAP
DF00
FF80
E180
C0C0
C0C0
C0C0
C0C0
C6C0
C7C0
E380
FFC0
DEC0
C000
C000
ENDCHAR
STARTCHAR 0490
ENCODING 1168
SWIDTH 780 0
DWIDTH 13 0
BBX 10 15 1 2
BITMAP
00C0
00C0
FFC0
FFC0
C000
C000
C000
C000
C000
C000
C000
C000
C000
C000
C000
ENDCHAR
STARTCHAR 0491
ENCODING 1169
SWIDTH 780 0
DWIDTH 13 0
BBX 10 14 1 2
BITMAP
00C0
00C0
FFC0
FFC0
C000
C000
C000
C000
C000
C000
C000
C000
C000
C000
ENDCHAR
STARTCHAR 0492
ENCODING 1170
SWIDTH 780 0
DWIDTH 13 0
BBX 12 15 0 2
BITMAP
3FF0
3FF0
3000
3000
3000
3000
FF80
FF80
3000
3000
3000
3000
3000
3000
3000
ENDCHAR
STARTCHAR 0493
ENCODING 1171
SWIDTH 780 0
DWIDTH 13 0
BBX 12 12 0 2
BITMAP
3FF0
3FF0
3000
3000
3000
3000
FF80
FF80
3000
3000
3000
3000
ENDCHAR
STARTCHAR 0494
ENCODING 1172
SWIDTH 780 0
DWIDTH 13 0
BBX 10 17 1 0
BITMAP
FFC0
FFC0
C000
C000
C000
DF00
FF80
E1C0
C0C0
C0C0
C0C0
C0C0
C0C0
C0C0
C1C0
0380
0300
ENDCHAR
STARTCHAR 0495
ENCODING 1173
SWIDTH 780 0
DWIDTH 13 0
BBX 10 14 1 0
BITMAP
FFC0
FFC0
C000
C000
DF00
FF80
E180
C0C0
C0C0
C0C0
C0C0
C1C0
0380
0300
ENDCHAR
STARTCHAR 0496
ENCODING 1174
SWIDTH 780 0
DWIDTH 13 0
BBX 11 17 1 0
BITMAP
CCC0
CCC0
CCC0
6D80
6D80
3F00
3F00
3F00
3F00
2D00
6D80
6D80
CCC0
CCE0
CCE0
0060
0060
ENDCHAR
STARTCHAR 0497
ENCODING 1175
SWIDTH 780 0
DWIDTH 13 0
BBX 11 14 1 0
BITMAP
CCC0
CCC0
6D80
6D80
3F00
3F00
3F00
2D00
6D80
6D80
CCE0
CCE0
0060
0060
ENDCHAR
STARTCHAR 0498
ENCODING 1176
SWIDTH 780 0
DWIDTH 13 0
BBX 10 17 1 0
BITMAP
3F00
7F80
E1C0
C0C0
00C0
01C0
1F80
1F80
0180
00C0
00C0
C0C0
E1C0
7F80
3F00
0C00
0C00
ENDCHAR
STARTCHAR 0499
ENCODING 1177
SWIDTH 780 0
DWIDTH 13 0
BBX 10 14 1 0
BITMAP
3F00
7F80
E1C0
C0C0
0F80
0F80
0180
00C0
C0C0
E1C0
7F80
3F00
0C00
0C00
ENDCHAR
STARTCHAR 049A
ENCODING 1178
SWIDTH 780 0
DWIDTH 13 0
BBX 11 17 1 0
BITMAP
C0C0
C1C0
C380
C700
CE00
DC00
F800
F800
DC00
CC00
C600
C300
C380
C1C0
C0E0
0060
0060
ENDCHAR
STARTCHAR 049B
ENCODING 1179
SWIDTH 780 0
DWIDTH 13 0
BBX 11 14 1 0
BITMAP
C0C0
C1C0
C380
C700
FE00
FE00
C600
C300
C1C0
C1C0
C0C0
C0E0
0060
0060
ENDCHAR
STARTCHAR 049C
ENCODING 1180
SWIDTH 780 0
DWIDTH 13 0
BBX 10 15 1 2
BITMAP
C0C0
C0C0
C0C0
C0C0
D9C0
DB80
FF00
FF00
DB00
D980
C0C0
C0C0
C0C0
C0C0
C0C0
ENDCHAR
STARTCHAR 049D
ENCODING 1181
SWIDTH 780 0
DWIDTH 13 0
BBX 10 12 1 2
BITMAP
C0C0
C0C0
C0C0
D980
DB00
FF00
DB00
DB80
D9C0
C0C0
C0C0
C0C0
ENDCHAR
STARTCHAR 049E
ENCODING 1182
SWIDTH 780 0
DWIDTH 13 0
BBX 11 15 0 2
BITMAP
3060
3060
FC60
FCE0
31C0
3380
3F00
3F00
3300
3180
30C0
30E0
3060
3060
3060
ENDCHAR
STARTCHAR 049F
ENCODING 1183
SWIDTH 780 0
DWIDTH 13 0
BBX 11 15 0 2
BITMAP
3000
3000
FC00
FC60
30E0
30C0
3180
3300
3F00
3F00
3380
31C0
30E0
3060
3060
ENDCHAR
STARTCHAR 04A0
ENCODING 1184
SWIDTH 780 0
DWIDTH 13 0
BBX 11 15 0 2
BITMAP
F060
F060
30E0
31C0
3380
3700
3E00
3E00
3600
3300
3180
31C0
30E0
3060
3060
ENDCHAR
STARTCHAR 04A1
ENCODING 1185
SWIDTH 780 0
DWIDTH 13 0
BBX 11 12 0 2
BITMAP
F060
F0E0
30C0
3180
3300
3F00
3F00
3380
31C0
30E0
3060
3060
ENDCHAR
STARTCHAR 04A2
ENCODING 1186
SWIDTH 780 0
DWIDTH 13 0
BBX 11 17 1 0
BITMAP
C0C0
C0C0
C0C0
C0C0
C0C0
C0C0
FFC0
FFC0
C0C0
C0C0
C0C0
C0C0
C0C0
C0E0
C0E0
0060
0060
ENDCHAR
STARTCHAR 04A3
ENCODING 1187
SWIDTH 780 0
DWIDTH 13 0
BBX 11 14 1 0
BITMAP
C0C0
C0C0
C0C0
C0C0
FFC0
FFC0
C0C0
C0C0
C0C0
C0C0
C0E0
C0E0
0060
0060
ENDCHAR
STARTCHAR 04A4
ENCODING 1188
SWIDTH 780 0
DWIDTH 13 0
BBX 13 15 0 2
BITMAP
C3F8
C3F8
C300
C300
C300
C300
FF00
FF00
C300
C300
C300
C300
C300
C300
C300
ENDCHAR
STARTCHAR 04A5
ENCODING 1189
SWIDTH 780 0
DWIDTH 13 0
BBX 13 12 0 2
BITMAP
C3F8
C3F8
C300
C300
C300
FF00
FF00
C300
C300
C300
C300
C300
ENDCHAR
STARTCHAR 04A6
ENCODING 1190
SWIDTH 780 0
DWIDTH 13 0
BBX 11 17 1 0
BITMAP
FE00
FE00
C600
C600
C600
C780
C7C0
C6E0
C660
C660
C660
C660
C660
C660
C6E0
01C0
0180
ENDCHAR
STARTCHAR 04A7
ENCODING 1191
SWIDTH 780 0
DWIDTH 13 0
BBX 11 14 1 0
BITMAP
FE00
FE00
C600
C600
C780
C7C0
C6C0
C660
C660
C660
C660
C6E0
01C0
0180
ENDCHAR
STARTCHAR 04A8
ENCODING 1192
SWIDTH 780 0
DWIDTH 13 0
BBX 10 17 1 0
BITMAP
3E00
7F00
E380
C180
C780
CF80
DD80
D980
D980
D980
D980
D980
FF80
7F00
3E00
07C0
03C0
ENDCHAR
STARTCHAR 04A9
ENCODING 1193
SWIDTH 780 0
DWIDTH 13 0
BBX 10 14 1 0
BITMAP
3E00
7F00
E380
C180
C780
CF80
DD80
D980
D980
FF80
7F00
3E00
07C0
03C0
ENDCHAR
STARTCHAR 04AA
ENCODING 1194
SWIDTH 780 0
DWIDTH 13 0
BBX 10 17 1 0
BITMAP
3F00
7F80
E1C0
C0C0
C000
C000
C000
C000
C000
C000
C000
C0C0
E1C0
7F80
3F00
0C00
0C00
ENDCHAR
STARTCHAR 04AB
ENCODING 1195
SWIDTH 780 0
DWIDTH 13 0
BBX 10 14 1 0
BITMAP
3F00
7F80
E1C0
C0C0
C000
C000
C000
C000
C0C0
E1C0
7F80
3F00
0C00
0C00
ENDCHAR
STARTCHAR 04AC
ENCODING 1196
SWIDTH 780 0
DWIDTH 13 0
BBX 10 17 1 0
BITMAP
FFC0
FFC0
0C00
0C00
0C00
0C00
0C00
0C00
0C00
0C00
0C00
0C00
0C00
0E00
0E00
0600
0600
ENDCHAR
STARTCHAR 04AD
ENCODING 1197
SWIDTH 780 0
DWIDTH 13 0
BBX 10 14 1 0
BITMAP
FFC0
FFC0
0C00
0C00
0C00
0C00
0C00
0C00
0C00
0C00
0E00
0E00
0600
0600
ENDCHAR
STARTCHAR 04AE
ENCODING 1198
SWIDTH 780 0
DWIDTH 13 0
BBX 10 15 1 2
BITMAP
C0C0
C0C0
6180
6180
3300
3300
1E00
1E00
0C00
0C00
0C00
0C00
0C00
0C00
0C00
ENDCHAR
STARTCHAR 04AF
ENCODING 1199
SWIDTH 780 0
DWIDTH 13 0
BBX 10 14 1 0
BITMAP
C0C0
C0C0
6180
6180
3300
3300
1E00
1E00
0C00
0C00
0C00
0C00
0C00
0C00
ENDCHAR
STARTCHAR 04B0
ENCODING 1200
SWIDTH 780 0
DWIDTH 13 0
BBX 10 15 1 2
BITMAP
C0C0
C0C0
6180
6180
3300
3300
1E00
1E00
0C00
0C00
3F00
3F00
0C00
0C00
0C00
ENDCHAR
STARTCHAR 04B1
ENCODING 1201
SWIDTH 780 0
DWIDTH 13 0
BBX 10 14 1 0
BITMAP
C0C0
C0C0
6180
6180
3300
3300
1E00
1E00
0C00
0C00
3F00
3F00
0C00
0C00
ENDCHAR
STARTCHAR 04B2
ENCODING 1202
SWIDTH 780 0
DWIDTH 13 0
BBX 11 17 1 0
BITMAP
C0C0
C0C0
C0C0
E1C0
7380
3F00
1E00
1E00
3F00
3300
6180
C0C0
C0C0
C0E0
C0E0
0060
0060
ENDCHAR
STARTCHAR 04B3
ENCODING 1203
SWIDTH 780 0
DWIDTH 13 0
BBX 11 14 1 0
BITMAP
C0C0
E1C0
7380
3F00
1E00
0C00
0C00
1E00
3300
7380
E1E0
C0E0
0060
0060
ENDCHAR
STARTCHAR 04B4
ENCODING 1204
SWIDTH 780 0
DWIDTH 13 0
BBX 11 17 0 0
BITMAP
FCC0
FCC0
30C0
30C0
30C0
30C0
30C0
30C0
30C0
30C0
30C0
30C0
30C0
3FE0
3FE0
0060
0060
ENDCHAR
STARTCHAR 04B5
ENCODING 1205
SWIDTH 780 0
DWIDTH 13 0
BBX 11 14 0 0
BITMAP
FCC0
FCC0
30C0
30C0
30C0
30C0
30C0
30C0
30C0
30C0
3FE0
3FE0
0060
0060
ENDCHAR
STARTCHAR 04B6
ENCODING 1206
SWIDTH 780 0
DWIDTH 13 0
BBX 11 17 1 0
BITMAP
C0C0
C0C0
C0C0
C0C0
C0C0
C0C0
E0C0
7FC0
3FC0
00C0
00C0
00C0
00C0
00E0
00E0
0060
0060
ENDCHAR
STARTCHAR 04B7
ENCODING 1207
SWIDTH 780 0
DWIDTH 13 0
BBX 11 14 1 0
BITMAP
C0C0
C0C0
C0C0
C0C0
C0C0
C0C0
60C0
3FC0
3FC0
00C0
00E0
00E0
0060
0060
ENDCHAR
STARTCHAR 04B8
ENCODING 1208
SWIDTH 780 0
DWIDTH 13 0
BBX 10 15 1 2
BITMAP
C0C0
C0C0
C0C0
C0C0
C0C0
C0C0
CCC0
6CC0
3FC0
3FC0
0CC0
0CC0
00C0
00C0
00C0
ENDCHAR
STARTCHAR 04B9
ENCODING 1209
SWIDTH 780 0
DWIDTH 13 0
BBX 10 12 1 2
BITMAP
C0C0
C0C0
C0C0
C0C0
C0C0
CCC0
6CC0
3FC0
3FC0
0CC0
0CC0
00C0
ENDCHAR
STARTCHAR 04BA
ENCODING 1210
SWIDTH 780 0
DWIDTH 13 0
BBX 10 15 1 2
BITMAP
C000
C000
C000
DF00
FF80
E1C0
C0C0
C0C0
C0C0
C0C0
C0C0
C0C0
C0C0
C0C0
C0C0
ENDCHAR
STARTCHAR 04BB
ENCODING 1211
SWIDTH 780 0
DWIDTH 13 0
BBX 9 14 2 2
BITMAP
C000
C000
DE00
FF00
E380
C180
C180
C180
C180
C180
C180
C180
C180
C180
ENDCHAR
STARTCHAR 04BC
ENCODING 1212
SWIDTH 780 0
DWIDTH 13 0
BBX 11 15 0 2
BITMAP
0780
0FC0
1CE0
1860
1860
1860
D860
D860
7FE0
7FE0
1800
1800
1C00
0FE0
07E0
ENDCHAR
STARTCHAR 04BD
ENCODING 1213
SWIDTH 780 0
DWIDTH 13 0
BBX 11 12 0 2
BITMAP
0780
0FC0
1CE0
1860
1860
D860
FFE0
7FE0
1800
1C00
0FE0
07E0
ENDCHAR
STARTCHAR 04BE
ENCODING 1214
SWIDTH 780 0
DWIDTH 13 0
BBX 11 17 0 0
BITMAP
0780
0FC0
1CE0
1860
1860
1860
D860
FFE0
7FE0
1800
1800
1800
1C00
0FE0
07E0
0300
0300
ENDCHAR
STARTCHAR 04BF
ENCODING 1215
SWIDTH 780 0
DWIDTH 13 0
BBX 11 14 0 0
BITMAP
0780
0FC0
1CE0
1860
D860
FFE0
7FE0
1800
1800
1C00
0FE0
07E0
0300
0300
ENDCHAR
STARTCHAR 04C0
ENCODING 1216
SWIDTH 780 0
DWIDTH 13 0
BBX 2 15 5 2
BITMAP
C0
C0
C0
C0
C0
C0
C0
C0
C0
C0
C0
C0
C0
C0
C0
ENDCHAR
STARTCHAR 04C1
ENCODING 1217
SWIDTH 780 0
DWIDTH 13 0
BBX 10 15 1 2
BITMAP
3300
1E00
CCC0
CCC0
6D80
6D80
6D80
3F00
3F00
3F00
3F00
6D80
6D80
CCC0
CCC0
ENDCHAR
STARTCHAR 04C2
ENCODING 1218
SWIDTH 780 0
DWIDTH 13 0
BBX 10 15 1 2
BITMAP
3300
1E00
0000
CCC0
CCC0
6D80
6D80
6D80
3F00
3F00
3F00
6D80
6D80
CCC0
CCC0
ENDCHAR
STARTCHAR 04C3
ENCODING 1219
SWIDTH 780 0
DWIDTH 13 0
BBX 10 17 1 0
BITMAP
C0C0
C1C0
C380
C700
CE00
DC00
FC00
FE00
C700
C300
C180
C0C0
C0C0
C0C0
C1C0
0780
0700
ENDCHAR
STARTCHAR 04C4
ENCODING 1220
SWIDTH 780 0
DWIDTH 13 0
BBX 10 14 1 0
BITMAP
C0C0
C1C0
C380
C700
FE00
FE00
C600
C300
C180
C1C0
C0C0
C1C0
0780
0700
ENDCHAR
STARTCHAR 04C5
ENCODING 1221
SWIDTH 780 0
DWIDTH 13 0
BBX 11 17 1 0
BITMAP
1FC0
3FC0
70C0
60C0
60C0
60C0
60C0
60C0
60C0
60C0
60C0
60C0
60C0
E0C0
C0E0
0060
0060
ENDCHAR
STARTCHAR 04C6
ENCODING 1222
SWIDTH 780 0
DWIDTH 13 0
BBX 11 14 1 0
BITMAP
1FC0
3FC0
70C0
60C0
60C0
60C0
60C0
60C0
60C0
60C0
E0C0
C0E0
0060
0060
ENDCHAR
STARTCHAR 04C7
ENCODING 1223
SWIDTH 780 0
DWIDTH 13 0
BBX 10 17 1 0
BITMAP
C0C0
C0C0
C0C0
C0C0
C0C0
C0C0
FFC0
FFC0
C0C0
C0C0
C0C0
C0C0
C0C0
C0C0
C1C0
0780
0700
ENDCHAR
STARTCHAR 04C8
ENCODING 1224
SWIDTH 780 0
DWIDTH 13 0
BBX 10 14 1 0
BITMAP
C0C0
C0C0
C0C0
C0C0
FFC0
FFC0
C0C0
C0C0
C0C0
C0C0
C0C0
C1C0
0780
0700
ENDCHAR
STARTCHAR 04C9
ENCODING 1225
SWIDTH 780 0
DWIDTH 13 0
BBX 11 17 1 0
BITMAP
C0C0
C0C0
C0C0
C0C0
C0C0
C0C0
FFC0
FFC0
C0C0
C0C0
C0C0
C0C0
C0C0
C0E0
C0E0
0060
00C0
ENDCHAR
STARTCHAR 04CA
ENCODING 1226
SWIDTH 780 0
DWIDTH 13 0
BBX 11 14 1 0
BITMAP
C0C0
C0C0
C0C0
C0C0
FFC0
FFC0
C0C0
C0C0
C0C0
C0C0
C0E0
C0E0
0060
00C0
ENDCHAR
STARTCHAR 04CB
ENCODING 1227
SWIDTH 780 0
DWIDTH 13 0
BBX 10 17 1 0
BITMAP
C0C0
C0C0
C0C0
C0C0
C0C0
C0C0
E0C0
7FC0
3FC0
00C0
00C0
00C0
00C0
01C0
01C0
0180
0180
ENDCHAR
STARTCHAR 04CC
ENCODING 1228
SWIDTH 780 0
DWIDTH 13 0
BBX 10 14 1 0
BITMAP
C0C0
C0C0
C0C0
C0C0
C0C0
C0C0
60C0
3FC0
3FC0
00C0
00C0
01C0
0180
0180
ENDCHAR
STARTCHAR 04CD
ENCODING 1229
SWIDTH 780 0
DWIDTH 13 0
BBX 11 17 1 0
BITMAP
C0C0
C0C0
E1C0
E1C0
F3C0
F3C0
DEC0
DEC0
CCC0
CCC0
C0C0
C0C0
C0C0
C0E0
C0E0
0060
00C0
ENDCHAR
STARTCHAR 04CE
ENCODING 1230
SWIDTH 780 0
DWIDTH 13 0
BBX 11 14 1 0
BITMAP
C0C0
C0C0
E1C0
E1C0
F3C0
F3C0
D2C0
DEC0
CCC0
CCC0
CCE0
C0E0
0060
00C0
ENDCHAR
STARTCHAR 04CF
ENCODING 1231
SWIDTH 780 0
DWIDTH 13 0
BBX 2 12 5 2
BITMAP
C0
C0
C0
C0
C0
C0
C0
C0
C0
C0
C0
C0
ENDCHAR
STARTCHAR 04D0
ENCODING 1232
SWIDTH 780 0
DWIDTH 13 0
BBX 10 15 1 2
BITMAP
3300
1E00
1FC0
3FC0
70C0
60C0
C0C0
C0C0
C0C0
FFC0
FFC0
C0C0
C0C0
C0C0
C0C0
ENDCHAR
STARTCHAR 04D1
ENCODING 1233
SWIDTH 780 0
DWIDTH 13 0
BBX 10 15 1 2
BITMAP
3300
1E00
0000
3E00
3F00
0380
0180
0180
3D80
7F80
E380
C180
E380
7FC0
3EC0
ENDCHAR
STARTCHAR 04D2
ENCODING 1234
SWIDTH 780 0
DWIDTH 13 0
BBX 10 15 1 2
BITMAP
1980
1980
1FC0
3FC0
70C0
60C0
C0C0
C0C0
C0C0
FFC0
FFC0
C0C0
C0C0
C0C0
C0C0
ENDCHAR
STARTCHAR 04D3
ENCODING 1235
SWIDTH 780 0
DWIDTH 13 0
BBX 10 15 1 2
BITMAP
3300
3300
0000
3E00
3F00
0380
0180
0180
3D80
7F80
E380
C180
E380
7FC0
3EC0
ENDCHAR
STARTCHAR 04D4
ENCODING 1236
SWIDTH 780 0
DWIDTH 13 0
BBX 12 15 0 2
BITMAP
1FF0
3FF0
7600
6600
C600
C600
FFE0
FFE0
C600
C600
C600
C600
C600
C7F0
C7F0
ENDCHAR
STARTCHAR 04D5
ENCODING 1237
SWIDTH 780 0
DWIDTH 13 0
BBX 12 12 0 2
BITMAP
79E0
FFF0
C630
0630
0630
0630
7FF0
FFF0
C600
C600
FFF0
7DF0
ENDCHAR
STARTCHAR 04D6
ENCODING 1238
SWIDTH 780 0
DWIDTH 13 0
BBX 11 15 1 2
BITMAP
3300
1E00
FFE0
FFE0
C000
C000
C000
C000
FF00
FF00
C000
C000
C000
FFE0
FFE0
ENDCHAR
STARTCHAR 04D7
ENCODING 1239
SWIDTH 780 0
DWIDTH 13 0
BBX 10 15 1 2
BITMAP
3300
1E00
0000
3F00
7F80
E1C0
C0C0
C0C0
C0C0
FFC0
FFC0
C000
E000
7FC0
3FC0
ENDCHAR
STARTCHAR 04D8
ENCODING 1240
SWIDTH 780 0
DWIDTH 13 0
BBX 10 15 1 2
BITMAP
3F00
7F80
E1C0
C0C0
00C0
00C0
FFC0
FFC0
C0C0
C0C0
C0C0
C0C0
E1C0
7F80
3F00
ENDCHAR
STARTCHAR 04D9
ENCODING 1241
SWIDTH 780 0
DWIDTH 13 0
BBX 10 12 1 2
BITMAP
FF00
FF80
01C0
00C0
00C0
FFC0
FFC0
C0C0
C0C0
E1C0
7F80
3F00
ENDCHAR
STARTCHAR 04DA
ENCODING 1242
SWIDTH 780 0
DWIDTH 13 0
BBX 10 15 1 2
BITMAP
3300
3300
3F00
7F80
E1C0
C0C0
00C0
00C0
FFC0
FFC0
C0C0
C0C0
E1C0
7F80
3F00
ENDCHAR
STARTCHAR 04DB
ENCODING 1243
SWIDTH 780 0
DWIDTH 13 0
BBX 10 15 1 2
BITMAP
3300
3300
0000
FF00
FF80
01C0
00C0
00C0
FFC0
FFC0
C0C0
C0C0
E1C0
7F80
3F00
ENDCHAR
STARTCHAR 04DC
ENCODING 1244
SWIDTH 780 0
DWIDTH 13 0
BBX 10 15 1 2
BITMAP
3300
3300
CCC0
CCC0
CCC0
4C80
6D80
6D80
3F00
6D80
6D80
6D80
CCC0
CCC0
CCC0
ENDCHAR
STARTCHAR 04DD
ENCODING 1245
SWIDTH 780 0
DWIDTH 13 0
BBX 10 15 1 2
BITMAP
3300
3300
0000
CCC0
CCC0
6D80
6D80
6D80
3F00
3F00
3F00
6D80
6D80
CCC0
CCC0
ENDCHAR
STARTCHAR 04DE
ENCODING 1246
SWIDTH 780 0
DWIDTH 13 0
BBX 10 15 1 2
BITMAP
3300
3300
3F00
7F80
E1C0
C0C0
00C0
0180
1F80
1F80
01C0
C0C0
E1C0
7F80
3F00
ENDCHAR
STARTCHAR 04DF
ENCODING 1247
SWIDTH 780 0
DWIDTH 13 0
BBX 10 15 1 2
BITMAP
3300
3300
0000
3F00
7F80
E1C0
C0C0
0080
1F80
1F80
01C0
C0C0
E1C0
7F80
3F00
ENDCHAR
STARTCHAR 04E0
ENCODING 1248
SWIDTH 780 0
DWIDTH 13 0
BBX 10 15 1 2
BITMAP
FFC0
FFC0
0380
0700
0E00
1F00
1F80
0180
00C0
00C0
00C0
C0C0
E1C0
7F80
3F00
ENDCHAR
STARTCHAR 04E1
ENCODING 1249
SWIDTH 780 0
DWIDTH 13 0
BBX 10 14 1 0
BITMAP
FFC0
FFC0
0380
0700
0E00
1F00
1F00
0180
00C0
00C0
C0C0
E1C0
7F80
3F00
ENDCHAR
STARTCHAR 04E2
ENCODING 1250
SWIDTH 780 0
DWIDTH 13 0
BBX 10 15 1 2
BITMAP
DEC0
DEC0
C0C0
C0C0
C0C0
C1C0
C1C0
C3C0
C6C0
CEC0
DCC0
F8C0
F0C0
E0C0
C0C0
ENDCHAR
STARTCHAR 04E3
ENCODING 1251
SWIDTH 780 0
DWIDTH 13 0
BBX 10 15 1 2
BITMAP
3F00
3F00
0000
C0C0
C0C0
C0C0
C0C0
C0C0
C0C0
C0C0
C1C0
C3C0
C7C0
FEC0
7CC0
ENDCHAR
STARTCHAR 04E4
ENCODING 1252
SWIDTH 780 0
DWIDTH 13 0
BBX 10 15 1 2
BITMAP
3300
3300
C0C0
C0C0
C0C0
C1C0
C1C0
C3C0
C6C0
CEC0
DCC0
F8C0
F0C0
E0C0
C0C0
ENDCHAR
STARTCHAR 04E5
ENCODING 1253
SWIDTH 780 0
DWIDTH 13 0
BBX 10 15 1 2
BITMAP
3300
3300
0000
C0C0
C0C0
C0C0
C0C0
C0C0
C0C0
C0C0
C1C0
C3C0
C7C0
FEC0
7CC0
ENDCHAR
STARTCHAR 04E6
ENCODING 1254
SWIDTH 780 0
DWIDTH 13 0
BBX 10 15 1 2
BITMAP
3300
3300
3F00
7F80
E1C0
C0C0
C0C0
C0C0
C0C0
C0C0
C0C0
C0C0
E1C0
7F80
3F00
ENDCHAR
STARTCHAR 04E7
ENCODING 1255
SWIDTH 780 0
DWIDTH 13 0
BBX 10 15 1 2
BITMAP
3300
3300
0000
3F00
7F80
E1C0
C0C0
C0C0
C0C0
C0C0
C0C0
C0C0
E1C0
7F80
3F00
ENDCHAR
STARTCHAR 04E8
ENCODING 1256
SWIDTH 780 0
DWIDTH 13 0
BBX 10 15 1 2
BITMAP
3F00
7F80
E1C0
C0C0
C0C0
C0C0
FFC0
FFC0
C0C0
C0C0
C0C0
C0C0
E1C0
7F80
3F00
ENDCHAR
STARTCHAR 04E9
ENCODING 1257
SWIDTH 780 0
DWIDTH 13 0
BBX 10 12 1 2
BITMAP
3F00
7F80
E1C0
C0C0
C0C0
FFC0
FFC0
C0C0
C0C0
E1C0
7F80
3F00
ENDCHAR
STARTCHAR 04EA
ENCODING 1258
SWIDTH 780 0
DWIDTH 13 0
BBX 10 15 1 2
BITMAP
3300
3300
3F00
7F80
E1C0
C0C0
C0C0
C0C0
FFC0
FFC0
C0C0
C0C0
E1C0
7F80
3F00
ENDCHAR
STARTCHAR 04EB
ENCODING 1259
SWIDTH 780 0
DWIDTH 13 0
BBX 10 15 1 2
BITMAP
3300
3300
0000
3F00
7F80
E1C0
C0C0
C0C0
FFC0
FFC0
C0C0
C0C0
E1C0
7F80
3F00
ENDCHAR
STARTCHAR 04EC
ENCODING 1260
SWIDTH 780 0
DWIDTH 13 0
BBX 10 15 1 2
BITMAP
3300
3300
3F00
7F80
E1C0
C0C0
00C0
00C0
1FC0
1FC0
00C0
C0C0
E1C0
7F80
3F00
ENDCHAR
STARTCHAR 04ED
ENCODING 1261
SWIDTH 780 0
DWIDTH 13 0
BBX 10 15 1 2
BITMAP
3300
3300
0000
3F00
7F80
E1C0
C0C0
00C0
1FC0
1FC0
00C0
C0C0
E1C0
7F80
3F00
ENDCHAR
STARTCHAR 04EE
ENCODING 1262
SWIDTH 780 0
DWIDTH 13 0
BBX 10 15 1 2
BITMAP
DEC0
DEC0
C0C0
C0C0
C0C0
C0C0
E1C0
61C0
3EC0
3EC0
00C0
C0C0
E1C0
7F80
3F00
ENDCHAR
STARTCHAR 04EF
ENCODING 1263
SWIDTH 780 0
DWIDTH 13 0
BBX 10 17 1 0
BITMAP
3F00
3F00
0000
C0C0
C0C0
C0C0
C0C0
C0C0
C0C0
C0C0
E0C0
7FC0
3FC0
0180
0380
7F00
7E00
ENDCHAR
STARTCHAR 04F0
ENCODING 1264
SWIDTH 780 0
DWIDTH 13 0
BBX 10 15 1 2
BITMAP
3300
3300
C0C0
C0C0
C0C0
C0C0
E1C0
61C0
3EC0
3EC0
00C0
C0C0
E1C0
7F80
3F00
ENDCHAR
STARTCHAR 04F1
ENCODING 1265
SWIDTH 780 0
DWIDTH 13 0
BBX 10 17 1 0
BITMAP
3300
3300
0000
C0C0
C0C0
C0C0
C0C0
C0C0
C0C0
C0C0
E0C0
7FC0
3FC0
0180
0380
7F00
7E00
ENDCHAR
STARTCHAR 04F2
ENCODING 1266
SWIDTH 780 0
DWIDTH 13 0
BBX 10 15 1 2
BITMAP
1B00
3600
C0C0
C0C0
C0C0
C0C0
E1C0
61C0
3EC0
3EC0
00C0
C0C0
E1C0
7F80
3F00
ENDCHAR
STARTCHAR 04F3
ENCODING 1267
SWIDTH 780 0
DWIDTH 13 0
BBX 10 17 1 0
BITMAP
1B00
3600
0000
C0C0
C0C0
C0C0
C0C0
C0C0
C0C0
C0C0
E0C0
7FC0
3FC0
0180
0380
7F00
7E00
ENDCHAR
STARTCHAR 04F4
ENCODING 1268
SWIDTH 780 0
DWIDTH 13 0
BBX 10 15 1 2
BITMAP
3300
3300
C0C0
C0C0
C0C0
C0C0
C0C0
C0C0
60C0
3FC0
3FC0
00C0
00C0
00C0
00C0
ENDCHAR
STARTCHAR 04F5
ENCODING 1269
SWIDTH 780 0
DWIDTH 13 0
BBX 10 15 1 2
BITMAP
3300
3300
0000
C0C0
C0C0
C0C0
C0C0
C0C0
C0C0
60C0
3FC0
3FC0
00C0
00C0
00C0
ENDCHAR
STARTCHAR 04F6
ENCODING 1270
SWIDTH 780 0
DWIDTH 13 0
BBX 11 17 1 0
BITMAP
FFE0
FFE0
C000
C000
C000
C000
C000
C000
C000
C000
C000
C000
C000
E000
E000
6000
6000
ENDCHAR
STARTCHAR 04F7
ENCODING 1271
SWIDTH 780 0
DWIDTH 13 0
BBX 11 14 1 0
BITMAP
FFE0
FFE0
C000
C000
C000
C000
C000
C000
C000
C000
E000
E000
6000
6000
ENDCHAR
STARTCHAR 04F8
ENCODING 1272
SWIDTH 780 0
DWIDTH 13 0
BBX 10 15 1 2
BITMAP
3300
3300
C0C0
C0C0
C0C0
C0C0
F8C0
F8C0
CCC0
C6C0
C6C0
C6C0
CEC0
FCC0
F8C0
ENDCHAR
STARTCHAR 04F9
ENCODING 1273
SWIDTH 780 0
DWIDTH 13 0
BBX 10 15 1 2
BITMAP
3300
3300
0000
C0C0
C0C0
C0C0
C0C0
C0C0
F8C0
FCC0
CEC0
C6C0
CEC0
FCC0
F8C0
ENDCHAR
STARTCHAR 04FA
ENCODING 1274
SWIDTH 780 0
DWIDTH 13 0
BBX 11 17 1 0
BITMAP
7FE0
7FE0
6000
6000
6000
6000
FF00
FF00
6000
6000
6000
6000
6000
6000
7000
3000
6000
ENDCHAR
STARTCHAR 04FB
ENCODING 1275
SWIDTH 780 0
DWIDTH 13 0
BBX 11 14 1 0
BITMAP
7FE0
7FE0
6000
6000
6000
FF00
FF00
6000
6000
6000
6000
7000
3000
6000
ENDCHAR
STARTCHAR 04FC
ENCODING 1276
SWIDTH 780 0
DWIDTH 13 0
BBX 10 17 1 0
BITMAP
C0C0
C0C0
C0C0
E1C0
7380
3F00
1E00
1E00
3F00
3300
6180
C0C0
C0C0
C0C0
C1C0
0780
0700
ENDCHAR
STARTCHAR 04FD
ENCODING 1277
SWIDTH 780 0
DWIDTH 13 0
BBX 10 14 1 0
BITMAP
C0C0
E1C0
7380
3F00
1E00
0C00
0C00
1E00
3300
7380
E1C0
C0C0
07C0
0780
ENDCHAR
STARTCHAR 04FE
ENCODING 1278
SWIDTH 780 0
DWIDTH 13 0
BBX 10 15 1 2
BITMAP
C0C0
C0C0
C0C0
E1C0
7380
3F00
FFC0
FFC0
3F00
3300
6180
E1C0
C0C0
C0C0
C0C0
ENDCHAR
STARTCHAR 04FF
ENCODING 1279
SWIDTH 780 0
DWIDTH 13 0
BBX 10 12 1 2
BITMAP
C0C0
E1C0
6180
3300
3F00
FFC0
FFC0
3F00
7380
E1C0
C0C0
C0C0
ENDCHAR
STARTCHAR 0500
ENCODING 1280
SWIDTH 780 0
DWIDTH 13 0
BBX 10 15 1 2
BITMAP
00C0
00C0
00C0
00C0
00C0
3FC0
7FC0
60C0
C0C0
C0C0
C0C0
C0C0
E0C0
7FC0
3FC0
ENDCHAR
STARTCHAR 0501
ENCODING 1281
SWIDTH 780 0
DWIDTH 13 0
BBX 9 15 2 2
BITMAP
0180
0180
0180
0180
0180
3D80
7F80
6380
C180
C180
C180
C180
E380
7F80
3D80
ENDCHAR
STARTCHAR 0502
ENCODING 1282
SWIDTH 780 0
DWIDTH 13 0
BBX 10 15 1 2
BITMAP
0600
0600
0600
0600
0600
3E00
7EC0
66C0
C6C0
C6C0
C6C0
C6C0
EEC0
7FC0
3980
ENDCHAR
STARTCHAR 0503
ENCODING 1283
SWIDTH 780 0
DWIDTH 13 0
BBX 10 15 1 2
BITMAP
0600
0600
0600
0600
0600
3E00
7E00
6600
C600
C6C0
C6C0
C6C0
EEC0
7FC0
3980
ENDCHAR
STARTCHAR 0504
ENCODING 1284
SWIDTH 780 0
DWIDTH 13 0
BBX 10 15 1 2
BITMAP
3800
7C00
EE00
C600
0600
0E00
3C00
3C00
0EC0
06C0
06C0
06C0
06C0
07C0
0380
ENDCHAR
STARTCHAR 0505
ENCODING 1285
SWIDTH 780 0
DWIDTH 13 0
BBX 10 12 1 2
BITMAP
3800
7C00
EE00
C600
0600
0600
0C00
3C00
3CC0
0EC0
07C0
0380
ENDCHAR
STARTCHAR 0506
ENCODING 1286
SWIDTH 780 0
DWIDTH 13 0
BBX 11 17 1 0
BITMAP
3F00
7F80
E1C0
C0C0
00C0
01C0
1F80
1F80
01C0
00C0
00C0
00C0
00C0
00C0
00E0
0060
0060
ENDCHAR
STARTCHAR 0507
ENCODING 1287
SWIDTH 780 0
DWIDTH 13 0
BBX 11 14 1 0
BITMAP
3F00
7F80
E1C0
C0C0
0F80
0F80
01C0
00C0
00C0
00C0
00E0
00E0
0060
0060
ENDCHAR
STARTCHAR 0508
ENCODING 1288
SWIDTH 780 0
DWIDTH 13 0
BBX 11 15 0 2
BITMAP
1F00
3F00
7300
6300
6300
6300
6360
6360
6360
6360
6360
6360
6360
E3E0
C1C0
ENDCHAR
STARTCHAR 0509
ENCODING 1289
SWIDTH 780 0
DWIDTH 13 0
BBX 11 12 0 2
BITMAP
1F00
3F00
7300
6300
6300
6300
6360
6360
6360
6360
E3E0
C1C0
ENDCHAR
STARTCHAR 050A
ENCODING 1290
SWIDTH 780 0
DWIDTH 13 0
BBX 10 15 1 2
BITMAP
C600
C600
C600
C600
C600
C600
FEC0
FEC0
C6C0
C6C0
C6C0
C6C0
C6C0
C7C0
C380
ENDCHAR
STARTCHAR 050B
ENCODING 1291
SWIDTH 780 0
DWIDTH 13 0
BBX 10 12 1 2
BITMAP
C600
C600
C600
C600
C600
FE00
FEC0
C6C0
C6C0
C6C0
C7C0
C380
ENDCHAR
STARTCHAR 050C
ENCODING 1292
SWIDTH 780 0
DWIDTH 13 0
BBX 10 15 1 2
BITMAP
3F00
7F80
E1C0
C0C0
C000
C000
C7C0
C7C0
C0C0
C0C0
C0C0
C0C0
E1C0
7F80
3F00
ENDCHAR
STARTCHAR 050D
ENCODING 1293
SWIDTH 780 0
DWIDTH 13 0
BBX 10 12 1 2
BITMAP
3F00
7F80
E1C0
C0C0
C000
C000
C7C0
C7C0
C0C0
E1C0
7F80
3F00
ENDCHAR
STARTCHAR 050E
ENCODING 1294
SWIDTH 780 0
DWIDTH 13 0
BBX 10 15 1 2
BITMAP
FFC0
FFC0
0C00
0C00
0C00
0C00
0CC0
0CC0
0CC0
0CC0
0CC0
0CC0
0CC0
0FC0
0780
ENDCHAR
STARTCHAR 050F
ENCODING 1295
SWIDTH 780 0
DWIDTH 13 0
BBX 10 12 1 2
BITMAP
FFC0
FFC0
0C00
0C00
0C00
0C00
0CC0
0CC0
0CC0
0CC0
0FC0
0780
ENDCHAR
STARTCHAR 0510
ENCODING 1296
SWIDTH 780 0
DWIDTH 13 0
BBX 10 15 1 2
BITMAP
3F00
7F80
E1C0
C0C0
C000
E000
7E00
7E00
6000
C000
C000
C0C0
E1C0
7F80
3F00
ENDCHAR
STARTCHAR 0511
ENCODING 1297
SWIDTH 780 0
DWIDTH 13 0
BBX 10 12 1 2
BITMAP
3F00
7F80
E1C0
C0C0
4000
7C00
7C00
E000
C0C0
E1C0
7F80
3F00
ENDCHAR
STARTCHAR 0512
ENCODING 1298
SWIDTH 780 0
DWIDTH 13 0
BBX 10 17 1 0
BITMAP
1FC0
3FC0
70C0
60C0
60C0
60C0
60C0
60C0
60C0
60C0
60C0
60C0
60C0
E0C0
C0C0
00C0
0180
ENDCHAR
STARTCHAR 0513
ENCODING 1299
SWIDTH 780 0
DWIDTH 13 0
BBX 10 14 1 0
BITMAP
1FC0
3FC0
70C0
60C0
60C0
60C0
60C0
60C0
60C0
60C0
E0C0
C0C0
00C0
0180
ENDCHAR
STARTCHAR 0514
ENCODING 1300
SWIDTH 780 0
DWIDTH 13 0
BBX 12 15 0 2
BITMAP
1E30
3E30
7630
6360
6360
6360
61C0
61C0
6360
6360
6360
6360
6630
E630
C630
ENDCHAR
STARTCHAR 0515
ENCODING 1301
SWIDTH 780 0
DWIDTH 13 0
BBX 12 12 0 2
BITMAP
1E30
3E30
3220
6360
6360
61C0
6360
6360
6360
6630
E630
C630
ENDCHAR
STARTCHAR 0516
ENCODING 1302
SWIDTH 780 0
DWIDTH 13 0
BBX 11 15 1 2
BITMAP
FC60
FE60
C7E0
C3C0
C380
C700
FE00
FE00
C600
C300
C380
C1C0
C0E0
C060
C060
ENDCHAR
STARTCHAR 0517
ENCODING 1303
SWIDTH 780 0
DWIDTH 13 0
BBX 11 14 1 0
BITMAP
DC60
FE60
E7E0
C3C0
C380
C300
C300
C380
C3C0
E7E0
FE60
DC60
C000
C000
ENDCHAR
STARTCHAR 0518
ENCODING 1304
SWIDTH 780 0
DWIDTH 13 0
BBX 12 15 0 2
BITMAP
3FF0
7FF0
E600
C600
C600
C600
6600
3FE0
3FE0
3600
7600
E600
C600
C7F0
C7F0
ENDCHAR
STARTCHAR 0519
ENCODING 1305
SWIDTH 780 0
DWIDTH 13 0
BBX 12 12 0 2
BITMAP
7DE0
FFF0
C630
C630
C630
C630
7FF0
7FF0
3600
6600
C7F0
C7F0
ENDCHAR
STARTCHAR 051A
ENCODING 1306
SWIDTH 780 0
DWIDTH 13 0
BBX 10 15 1 2
BITMAP
3F00
7F80
E1C0
C0C0
C0C0
C0C0
C0C0
C0C0
C0C0
C0C0
C6C0
C7C0
E380
7FC0
3EC0
ENDCHAR
STARTCHAR 051B
ENCODING 1307
SWIDTH 780 0
DWIDTH 13 0
BBX 10 14 1 0
BITMAP
3EC0
7FC0
E1C0
C0C0
C0C0
C0C0
C0C0
C0C0
C0C0
E1C0
7FC0
3EC0
00C0
00C0
ENDCHAR
STARTCHAR 051C
ENCODING 1308
SWIDTH 780 0
DWIDTH 13 0
BBX 10 15 1 2
BITMAP
C0C0
C0C0
C0C0
C0C0
C0C0
C0C0
CCC0
CCC0
CCC0
CCC0
CCC0
CCC0
FFC0
7F80
3300
ENDCHAR
STARTCHAR 051D
ENCODING 1309
SWIDTH 780 0
DWIDTH 13 0
BBX 10 12 1 2
BITMAP
C0C0
C0C0
C0C0
CCC0
CCC0
CCC0
CCC0
CCC0
CCC0
FFC0
7F80
3300
ENDCHAR
STARTCHAR 051E
ENCODING 1310
SWIDTH 780 0
DWIDTH 13 0
BBX 10 15 1 2
BITMAP
CCC0
CFC0
C780
C780
CFC0
DCC0
F800
F800
D800
CC00
C600
C700
C380
C1C0
C0C0
ENDCHAR
STARTCHAR 051F
ENCODING 1311
SWIDTH 780 0
DWIDTH 13 0
BBX 10 12 1 2
BITMAP
C6C0
C7C0
C380
C380
C6C0
FEC0
FE00
C700
C380
C1C0
C0C0
C0C0
ENDCHAR
STARTCHAR 0520
ENCODING 1312
SWIDTH 780 0
DWIDTH 13 0
BBX 11 17 0 0
BITMAP
1E00
3E00
7600
6600
6600
67C0
67E0
6660
6660
6660
6660
6660
6660
E660
C660
00E0
00C0
ENDCHAR
STARTCHAR 0521
ENCODING 1313
SWIDTH 780 0
DWIDTH 13 0
BBX 11 14 0 0
BITMAP
1E00
3E00
7600
6600
67C0
67E0
6660
6660
6660
6660
E660
C660
00E0
00C0
ENDCHAR
STARTCHAR 0522
ENCODING 1314
SWIDTH 780 0
DWIDTH 13 0
BBX 10 17 1 0
BITMAP
CC00
CC00
CC00
CC00
CC00
FF80
FFC0
CCC0
CCC0
CCC0
CCC0
CCC0
CCC0
CCC0
CCC0
01C0
0180
ENDCHAR
STARTCHAR 0523
ENCODING 1315
SWIDTH 780 0
DWIDTH 13 0
BBX 10 14 1 0
BITMAP
CC00
CC00
CC00
CC00
FF80
FFC0
CCC0
CCC0
CCC0
CCC0
CCC0
CCC0
01C0
0180
ENDCHAR
STARTCHAR 0524
ENCODING 1316
SWIDTH 780 0
DWIDTH 13 0
BBX 11 17 1 0
BITMAP
FFC0
FFC0
C0C0
C0C0
C0C0
C0C0
C0C0
C0C0
C0C0
C0C0
C0C0
C0C0
C0C0
C0E0
C0E0
0060
0060
ENDCHAR
STARTCHAR 0525
ENCODING 1317
SWIDTH 780 0
DWIDTH 13 0
BBX 11 14 1 0
BITMAP
FFC0
FFC0
C0C0
C0C0
C0C0
C0C0
C0C0
C0C0
C0C0
C0C0
C0E0
C0E0
0060
0060
ENDCHAR
STARTCHAR 0526
ENCODING 1318
SWIDTH 780 0
DWIDTH 13 0
BBX 11 17 1 0
BITMAP
C000
C000
C000
DF00
FF80
E1C0
C0C0
C0C0
C0C0
C0C0
C0C0
C0C0
C0C0
C0C0
C0E0
0060
0060
ENDCHAR
STARTCHAR 0527
ENCODING 1319
SWIDTH 780 0
DWIDTH 13 0
BBX 10 17 1 0
BITMAP
C000
C000
C000
DE00
FF00
E380
C180
C180
C180
C180
C180
C180
C180
C180
C1C0
00C0
00C0
ENDCHAR
STARTCHAR 0528
ENCODING 1320
SWIDTH 780 0
DWIDTH 13 0
BBX 11 17 0 0
BITMAP
6060
6060
6060
6060
6060
6060
7FE0
7FE0
6060
6060
6060
6060
6060
6060
6060
E000
C000
ENDCHAR
STARTCHAR 0529
ENCODING 1321
SWIDTH 780 0
DWIDTH 13 0
BBX 11 14 0 0
BITMAP
6060
6060
6060
6060
7FE0
7FE0
6060
6060
6060
6060
6060
6060
E000
C000
ENDCHAR
STARTCHAR 052A
ENCODING 1322
SWIDTH 780 0
DWIDTH 13 0
BBX 11 17 0 0
BITMAP
1E60
3E60
7660
66C0
66C0
6780
6780
6780
6780
66C0
66C0
66C0
6660
FE60
FE60
C600
C600
ENDCHAR
STARTCHAR 052B
ENCODING 1323
SWIDTH 780 0
DWIDTH 13 0
BBX 11 14 0 0
BITMAP
1E60
3E60
76C0
66C0
6780
6780
6780
66C0
66C0
66C0
FE60
FE60
C600
C600
ENDCHAR
STARTCHAR 052C
ENCODING 1324
SWIDTH 780 0
DWIDTH 13 0
BBX 10 17 1 0
BITMAP
C380
C380
C780
C780
CD80
ED80
7F80
3F80
3180
3180
6180
6180
6180
FFC0
FFC0
C0C0
C0C0
ENDCHAR
STARTCHAR 052D
ENCODING 1325
SWIDTH 780 0
DWIDTH 13 0
BBX 10 14 1 0
BITMAP
C380
C780
C780
CD80
ED80
7F80
3F80
3180
3180
3180
FFC0
FFC0
C0C0
C0C0
ENDCHAR
STARTCHAR 052E
ENCODING 1326
SWIDTH 780 0
DWIDTH 13 0
BBX 11 17 1 0
BITMAP
1FC0
3FC0
70C0
60C0
60C0
60C0
60C0
60C0
60C0
60C0
60C0
60C0
60C0
E0C0
C0E0
0060
0060
ENDCHAR
STARTCHAR 052F
ENCODING 1327
SWIDTH 780 0
DWIDTH 13 0
BBX 11 14 1 0
BITMAP
1FC0
3FC0
70C0
60C0
60C0
60C0
60C0
60C0
60C0
60C0
E0C0
C0E0
0060
0060
ENDCHAR
STARTCHAR 0531
ENCODING 1329
SWIDTH 780 0
DWIDTH 13 0
BBX 11 15 0 2
BITMAP
C180
C180
C180
C180
C180
C180
C180
C180
C180
C180
C180
C180
E3C0
7FE0
3E60
ENDCHAR
STARTCHAR 0532
ENCODING 1330
SWIDTH 780 0
DWIDTH 13 0
BBX 10 15 1 2
BITMAP
3F00
7F80
E1C0
C0C0
C0C0
C000
FF00
FF00
C000
C000
C000
C000
C000
C000
C000
ENDCHAR
STARTCHAR 0533
ENCODING 1331
SWIDTH 780 0
DWIDTH 13 0
BBX 10 15 1 2
BITMAP
3F80
7F80
E180
C180
C180
C180
C180
C180
6180
7FC0
3FC0
0180
0180
0180
0180
ENDCHAR
STARTCHAR 0534
ENCODING 1332
SWIDTH 780 0
DWIDTH 13 0
BBX 11 15 1 2
BITMAP
3C00
7E00
E700
C300
C300
0300
0300
0300
0300
03E0
03E0
0300
0300
0300
0300
ENDCHAR
STARTCHAR 0535
ENCODING 1333
SWIDTH 780 0
DWIDTH 13 0
BBX 10 15 1 2
BITMAP
C000
C000
C000
FF00
FF00
C000
C000
C000
C000
C000
C0C0
C0C0
E1C0
7F80
3F00
ENDCHAR
STARTCHAR 0536
ENCODING 1334
SWIDTH 780 0
DWIDTH 13 0
BBX 10 15 1 2
BITMAP
3F00
7F80
E1C0
C0C0
C0C0
00C0
00C0
00C0
00C0
0380
0380
0700
CE00
FFC0
FFC0
ENDCHAR
STARTCHAR 0537
ENCODING 1335
SWIDTH 780 0
DWIDTH 13 0
BBX 11 15 1 2
BITMAP
C000
C000
C000
FFE0
FFE0
C000
C000
C000
C000
C000
C000
C000
C000
FFC0
FFC0
ENDCHAR
STARTCHAR 0538
ENCODING 1336
SWIDTH 780 0
DWIDTH 13 0
BBX 10 15 1 2
BITMAP
3F00
7F80
E1C0
C0C0
C0C0
C000
C000
C000
C000
C000
C000
C000
C000
FFC0
FFC0
ENDCHAR
STARTCHAR 0539
ENCODING 1337
SWIDTH 780 0
DWIDTH 13 0
BBX 12 15 0 2
BITMAP
3F80
7FC0
E0E0
C060
C060
C7F0
C7F0
CC60
D860
D860
DCE0
CFC0
C780
C000
C000
ENDCHAR
STARTCHAR 053A
ENCODING 1338
SWIDTH 780 0
DWIDTH 13 0
BBX 10 15 1 2
BITMAP
0180
0180
0180
0180
0180
3FC0
7FC0
6180
C180
C180
C180
C180
E380
7F00
3E00
ENDCHAR
STARTCHAR 053B
ENCODING 1339
SWIDTH 780 0
DWIDTH 13 0
BBX 10 15 1 2
BITMAP
C000
C000
C000
C000
DF00
FF80
E180
C0C0
C0C0
C0C0
C000
C000
C000
C000
C000
ENDCHAR
STARTCHAR 053C
ENCODING 1340
SWIDTH 780 0
DWIDTH 13 0
BBX 11 15 1 2
BITMAP
C000
C000
C000
C000
C000
C000
C000
C000
C000
C000
C000
C000
C000
FFE0
FFE0
ENDCHAR
STARTCHAR 053D
ENCODING 1341
SWIDTH 780 0
DWIDTH 13 0
BBX 11 15 0 2
BITMAP
C000
C000
C000
FC60
FC60
CC60
CC60
CC60
CC60
CC60
CC60
CC60
CEE0
C7C0
C380
ENDCHAR
STARTCHAR 053E
ENCODING 1342
SWIDTH 780 0
DWIDTH 13 0
BBX 10 15 1 2
BITMAP
C7C0
CFC0
FC00
FE00
3F00
7380
6180
C0C0
C0C0
C0C0
C0C0
C0C0
E1C0
7F80
3F00
ENDCHAR
STARTCHAR 053F
ENCODING 1343
SWIDTH 780 0
DWIDTH 13 0
BBX 10 15 1 2
BITMAP
C000
C000
C0C0
C0C0
C0C0
C0C0
C0C0
C0C0
60C0
3FC0
3FC0
00C0
00C0
00C0
00C0
ENDCHAR
STARTCHAR 0540
ENCODING 1344
SWIDTH 780 0
DWIDTH 13 0
BBX 10 15 1 2
BITMAP
FF00
FF80
01C0
00C0
00C0
00C0
00C0
0180
FF80
0300
0380
01C0
00C0
00C0
00C0
ENDCHAR
STARTCHAR 0541
ENCODING 1345
SWIDTH 780 0
DWIDTH 13 0
BBX 10 15 1 2
BITMAP
3F00
7F80
E1C0
C0C0
C0C0
00C0
00C0
0180
0380
7700
FE00
DC00
DF00
FFC0
71C0
ENDCHAR
STARTCHAR 0542
ENCODING 1346
SWIDTH 780 0
DWIDTH 13 0
BBX 10 15 1 2
BITMAP
3E00
7F00
E380
C180
C180
0180
0180
0180
0180
0180
0180
0180
0180
01C0
01C0
ENDCHAR
STARTCHAR 0543
ENCODING 1347
SWIDTH 780 0
DWIDTH 13 0
BBX 10 15 1 2
BITMAP
03C0
07C0
FE00
FE00
3F00
7380
E1C0
C0C0
C0C0
C0C0
C0C0
C0C0
C0C0
FFC0
7FC0
ENDCHAR
STARTCHAR 0544
ENCODING 1348
SWIDTH 780 0
DWIDTH 13 0
BBX 10 15 1 2
BITMAP
C1C0
C1C0
C180
C180
C180
C180
C180
C180
C180
C180
C180
C180
E380
7F00
3E00
ENDCHAR
STARTCHAR 0545
ENCODING 1349
SWIDTH 780 0
DWIDTH 13 0
BBX 10 15 1 2
BITMAP
3F00
7F80
E1C0
C0C0
C0C0
01C0
3F80
3F80
0180
00C0
C0C0
C0C0
E1C0
7F80
3F00
ENDCHAR
STARTCHAR 0546
ENCODING 1350
SWIDTH 780 0
DWIDTH 13 0
BBX 10 15 1 2
BITMAP
E000
E000
6000
6000
6000
6000
6000
6000
6000
6000
60C0
60C0
71C0
3F80
1F00
ENDCHAR
STARTCHAR 0547
ENCODING 1351
SWIDTH 780 0
DWIDTH 13 0
BBX 10 15 1 2
BITMAP
C000
F000
3C00
3F00
7300
E000
C000
C000
C000
C000
C0C0
C0C0
E1C0
7F80
3F00
ENDCHAR
STARTCHAR 0548
ENCODING 1352
SWIDTH 780 0
DWIDTH 13 0
BBX 10 15 1 2
BITMAP
3F00
7F80
E1C0
C0C0
C0C0
C0C0
C0C0
C0C0
C0C0
C0C0
C0C0
C0C0
C0C0
C0C0
C0C0
ENDCHAR
STARTCHAR 0549
ENCODING 1353
SWIDTH 780 0
DWIDTH 13 0
BBX 10 15 1 2
BITMAP
3F00
7F80
E1C0
C0C0
C0C0
00C0
00C0
00C0
00C0
01C0
3380
3F00
0F00
03C0
00C0
ENDCHAR
STARTCHAR 054A
ENCODING 1354
SWIDTH 780 0
DWIDTH 13 0
BBX 10 15 1 2
BITMAP
3F00
7F80
EDC0
CCC0
0CC0
0CC0
0CC0
0CC0
0CC0
00C0
00C0
00C0
00C0
00C0
00C0
ENDCHAR
STARTCHAR 054B
ENCODING 1355
SWIDTH 780 0
DWIDTH 13 0
BBX 10 15 1 2
BITMAP
3F00
7F80
E1C0
C0C0
C0C0
F0C0
70C0
1CC0
0CC0
0FC0
0780
0700
CE00
FFC0
FFC0
ENDCHAR
STARTCHAR 054C
ENCODING 1356
SWIDTH 780 0
DWIDTH 13 0
BBX 11 15 1 2
BITMAP
3C00
7E00
E700
C300
C300
C300
C300
C300
C300
C3E0
C3E0
C300
C300
C300
C300
ENDCHAR
STARTCHAR 054D
ENCODING 1357
SWIDTH 780 0
DWIDTH 13 0
BBX 10 15 1 2
BITMAP
C0C0
C0C0
C0C0
C0C0
C0C0
C0C0
C0C0
C0C0
C0C0
C0C0
C0C0
C0C0
E1C0
7F80
3F00
ENDCHAR
STARTCHAR 054E
ENCODING 1358
SWIDTH 780 0
DWIDTH 13 0
BBX 11 15 1 2
BITMAP
0180
0180
0180
C180
C180
C180
C180
C180
6180
3F80
3F80
0180
0180
01E0
01E0
ENDCHAR
STARTCHAR 054F
ENCODING 1359
SWIDTH 780 0
DWIDTH 13 0
BBX 10 15 1 2
BITMAP
3F00
7F80
E1C0
C0C0
C0C0
E000
7F00
3F00
0180
00C0
C0C0
C0C0
E1C0
7F80
3F00
ENDCHAR
STARTCHAR 0550
ENCODING 1360
SWIDTH 780 0
DWIDTH 13 0
BBX 10 15 1 2
BITMAP
3F00
7F80
E1C0
C0C0
C0C0
C000
C000
C000
C000
C000
C000
C000
C000
C000
C000
ENDCHAR
STARTCHAR 0551
ENCODING 1361
SWIDTH 780 0
DWIDTH 13 0
BBX 10 15 1 2
BITMAP
1F00
3F80
71C0
60C0
70C0
39C0
FF80
FF80
0180
00C0
C0C0
C0C0
E1C0
7F80
3F00
ENDCHAR
STARTCHAR 0552
ENCODING 1362
SWIDTH 780 0
DWIDTH 13 0
BBX 11 15 1 2
BITMAP
C000
C000
C000
FFE0
FFE0
C000
C000
C000
C000
C000
C000
C000
C000
C000
C000
ENDCHAR
STARTCHAR 0553
ENCODING 1363
SWIDTH 780 0
DWIDTH 13 0
BBX 10 15 1 2
BITMAP
0C00
0C00
3F00
7F80
EDC0
CCC0
CCC0
CCC0
CCC0
CCC0
6D80
7F80
3F00
0C00
0C00
ENDCHAR
STARTCHAR 0554
ENCODING 1364
SWIDTH 780 0
DWIDTH 13 0
BBX 10 15 1 2
BITMAP
1F00
3F80
71C0
60C0
60C0
60C0
60C0
60C0
7180
7F80
6F00
6000
FFC0
FFC0
6000
ENDCHAR
STARTCHAR 0555
ENCODING 1365
SWIDTH 780 0
DWIDTH 13 0
BBX 10 15 1 2
BITMAP
3F00
7F80
E1C0
C0C0
C0C0
C0C0
C0C0
C0C0
C0C0
C0C0
C0C0
C0C0
E1C0
7F80
3F00
ENDCHAR
STARTCHAR 0556
ENCODING 1366
SWIDTH 780 0
DWIDTH 13 0
BBX 10 15 1 2
BITMAP
3C00
7C00
EC00
CC00
EC00
7F00
3F80
0D80
0CC0
0CC0
0CC0
CCC0
EDC0
7F80
3F00
ENDCHAR
STARTCHAR 0559
ENCODING 1369
SWIDTH 780 0
DWIDTH 13 0
BBX 3 3 4 14
BITMAP
C0
C0
60
ENDCHAR
STARTCHAR 055A
ENCODING 1370
SWIDTH 780 0
DWIDTH 13 0
BBX 3 3 4 14
BITMAP
60
60
C0
ENDCHAR
STARTCHAR 055B
ENCODING 1371
SWIDTH 780 0
DWIDTH 13 0
BBX 4 3 4 14
BITMAP
30
60
C0
ENDCHAR
STARTCHAR 055C
ENCODING 1372
SWIDTH 780 0
DWIDTH 13 0
BBX 5 3 3 14
BITMAP
18
70
C0
ENDCHAR
STARTCHAR 055D
ENCODING 1373
SWIDTH 780 0
DWIDTH 13 0
BBX 4 3 4 14
BITMAP
C0
60
30
ENDCHAR
STARTCHAR 055E
ENCODING 1374
SWIDTH 780 0
DWIDTH 13 0
BBX 6 3 3 14
BITMAP
78
CC
D8
ENDCHAR
STARTCHAR 055F
ENCODING 1375
SWIDTH 780 0
DWIDTH 13 0
BBX 6 3 3 14
BITMAP
C0
FC
FC
ENDCHAR
STARTCHAR 0560
ENCODING 1376
SWIDTH 780 0
DWIDTH 13 0
BBX 10 12 1 2
BITMAP
DB00
FF80
EDC0
CCC0
CCC0
CCC0
CCC0
CCC0
CCC0
CCC0
CCC0
CCC0
ENDCHAR
STARTCHAR 0561
ENCODING 1377
SWIDTH 780 0
DWIDTH 13 0
BBX 10 12 1 2
BITMAP
CCC0
CCC0
CCC0
CCC0
CCC0
CCC0
CCC0
CCC0
CCC0
EDC0
7FC0
36C0
ENDCHAR
STARTCHAR 0562
ENCODING 1378
SWIDTH 780 0
DWIDTH 13 0
BBX 10 14 1 0
BITMAP
DF00
FF80
E1C0
C0C0
C0C0
C000
C000
C000
C000
C000
FF80
FF80
C000
C000
ENDCHAR
STARTCHAR 0563
ENCODING 1379
SWIDTH 780 0
DWIDTH 13 0
BBX 10 14 1 0
BITMAP
3F80
7F80
E180
C180
C180
C180
C180
C180
C180
E180
7FC0
3FC0
0180
0180
ENDCHAR
STARTCHAR 0564
ENCODING 1380
SWIDTH 780 0
DWIDTH 13 0
BBX 10 14 1 0
BITMAP
DE00
FF00
E380
C180
C180
C180
C180
C180
C180
C180
C1C0
C1C0
0180
0180
ENDCHAR
STARTCHAR 0565
ENCODING 1381
SWIDTH 780 0
DWIDTH 13 0
BBX 10 15 1 2
BITMAP
C000
C000
C000
FF00
FF00
C000
C000
C000
C000
C0C0
C0C0
C0C0
E1C0
7FC0
3EC0
ENDCHAR
STARTCHAR 0566
ENCODING 1382
SWIDTH 780 0
DWIDTH 13 0
BBX 10 14 1 0
BITMAP
3F80
7F80
E180
C180
C180
C180
C180
C180
C180
E180
7F80
3F80
01C0
01C0
ENDCHAR
STARTCHAR 0567
ENCODING 1383
SWIDTH 780 0
DWIDTH 13 0
BBX 11 15 1 2
BITMAP
C000
C000
C000
FFE0
FFE0
C000
C000
C000
C000
C000
C000
C000
C000
FFC0
FFC0
ENDCHAR
STARTCHAR 0568
ENCODING 1384
SWIDTH 780 0
DWIDTH 13 0
BBX 10 14 1 0
BITMAP
DF00
FF80
E1C0
C0C0
C0C0
C0C0
C0C0
C0C0
C0C0
C0C0
C000
C000
FFC0
FFC0
ENDCHAR
STARTCHAR 0569
ENCODING 1385
SWIDTH 780 0
DWIDTH 13 0
BBX 10 14 1 0
BITMAP
FE00
FF00
C300
C180
C7C0
C7C0
C980
D980
D980
CF00
C600
C000
C000
C000
ENDCHAR
STARTCHAR 056A
ENCODING 1386
SWIDTH 780 0
DWIDTH 13 0
BBX 10 15 1 2
BITMAP
0180
0180
0180
3FC0
7FC0
E180
C180
C180
C180
C180
C180
C180
E380
7F00
3E00
ENDCHAR
STARTCHAR 056B
ENCODING 1387
SWIDTH 780 0
DWIDTH 13 0
BBX 10 17 1 0
BITMAP
C000
C000
C000
DF00
FF80
E1C0
C0C0
C0C0
C0C0
C0C0
C0C0
C0C0
C0C0
C0C0
C0C0
C000
C000
ENDCHAR
STARTCHAR 056C
ENCODING 1388
SWIDTH 780 0
DWIDTH 13 0
BBX 4 14 4 0
BITMAP
C0
C0
C0
C0
C0
C0
C0
C0
C0
C0
C0
C0
F0
F0
ENDCHAR
STARTCHAR 056D
ENCODING 1389
SWIDTH 780 0
DWIDTH 13 0
BBX 11 17 0 0
BITMAP
C000
C000
C000
F060
F860
DC60
CC60
CC60
CC60
CC60
CC60
CC60
CEE0
C7E0
C360
C000
C000
ENDCHAR
STARTCHAR 056E
ENCODING 1390
SWIDTH 780 0
DWIDTH 13 0
BBX 10 15 1 2
BITMAP
C000
C000
E000
7000
3FC0
7FC0
6180
C080
C0C0
C0C0
C0C0
C0C0
E1C0
7F80
3F00
ENDCHAR
STARTCHAR 056F
ENCODING 1391
SWIDTH 780 0
DWIDTH 13 0
BBX 10 17 1 0
BITMAP
C000
C000
C000
C0C0
C0C0
C0C0
C0C0
C0C0
C0C0
C0C0
C0C0
C0C0
E1C0
7FC0
3EC0
00C0
00C0
ENDCHAR
STARTCHAR 0570
ENCODING 1392
SWIDTH 780 0
DWIDTH 13 0
BBX 10 15 1 2
BITMAP
C000
C000
C000
DF00
FF80
E1C0
C0C0
C0C0
C0C0
C0C0
C0C0
C0C0
C0C0
C0C0
C0C0
ENDCHAR
STARTCHAR 0571
ENCODING 1393
SWIDTH 780 0
DWIDTH 13 0
BBX 10 15 1 2
BITMAP
6000
6000
7000
3800
3F00
7F80
6180
C0C0
C0C0
C0C0
C0C0
C0C0
E1C0
7FC0
3EC0
ENDCHAR
STARTCHAR 0572
ENCODING 1394
SWIDTH 780 0
DWIDTH 13 0
BBX 10 14 1 0
BITMAP
DE00
FF00
E380
C180
C180
C180
C180
C180
C180
C180
C180
C180
01C0
01C0
ENDCHAR
STARTCHAR 0573
ENCODING 1395
SWIDTH 780 0
DWIDTH 13 0
BBX 10 15 1 2
BITMAP
01C0
03C0
0700
0E00
FF00
FF80
39C0
30C0
70C0
E0C0
C0C0
C0C0
E1C0
7FC0
3EC0
ENDCHAR
STARTCHAR 0574
ENCODING 1396
SWIDTH 780 0
DWIDTH 13 0
BBX 10 15 1 2
BITMAP
01C0
01C0
0180
C180
C180
C180
C180
C180
C180
C180
C180
C180
E380
7F80
3D80
ENDCHAR
STARTCHAR 0575
ENCODING 1397
SWIDTH 780 0
DWIDTH 13 0
BBX 5 14 3 0
BITMAP
18
18
18
18
18
18
18
18
18
18
18
38
F0
E0
ENDCHAR
STARTCHAR 0576
ENCODING 1398
SWIDTH 780 0
DWIDTH 13 0
BBX 10 15 1 2
BITMAP
E0C0
E0C0
60C0
60C0
60C0
60C0
60C0
60C0
60C0
60C0
60C0
60C0
71C0
3FC0
1EC0
ENDCHAR
STARTCHAR 0577
ENCODING 1399
SWIDTH 780 0
DWIDTH 13 0
BBX 10 14 1 0
BITMAP
3F00
7F80
E1C0
C0C0
C0C0
00C0
0180
0F00
1F00
3800
7000
E000
FFC0
FFC0
ENDCHAR
STARTCHAR 0578
ENCODING 1400
SWIDTH 780 0
DWIDTH 13 0
BBX 10 12 1 2
BITMAP
DF00
FF80
E1C0
C0C0
C0C0
C0C0
C0C0
C0C0
C0C0
C0C0
C0C0
C0C0
ENDCHAR
STARTCHAR 0579
ENCODING 1401
SWIDTH 780 0
DWIDTH 13 0
BBX 11 14 1 0
BITMAP
C000
C000
E000
7F80
3F80
0700
0600
0E00
1C00
3800
7000
E000
FFE0
FFE0
ENDCHAR
STARTCHAR 057A
ENCODING 1402
SWIDTH 780 0
DWIDTH 13 0
BBX 10 14 1 0
BITMAP
CCC0
CCC0
CCC0
CCC0
CCC0
CCC0
CCC0
CCC0
CCC0
EDC0
7FC0
3EC0
00C0
00C0
ENDCHAR
STARTCHAR 057B
ENCODING 1403
SWIDTH 780 0
DWIDTH 13 0
BBX 10 14 1 0
BITMAP
3F00
7F80
E1C0
C0C0
E0C0
60C0
3180
1F00
1F00
3800
7000
E000
FFC0
FFC0
ENDCHAR
STARTCHAR 057C
ENCODING 1404
SWIDTH 780 0
DWIDTH 13 0
BBX 10 12 1 2
BITMAP
DF00
FF80
E1C0
C0C0
C0C0
C0C0
C1C0
C380
C380
C700
CFC0
CFC0
ENDCHAR
STARTCHAR 057D
ENCODING 1405
SWIDTH 780 0
DWIDTH 13 0
BBX 10 12 1 2
BITMAP
C0C0
C0C0
C0C0
C0C0
C0C0
C0C0
C0C0
C0C0
C0C0
E1C0
7FC0
3EC0
ENDCHAR
STARTCHAR 057E
ENCODING 1406
SWIDTH 780 0
DWIDTH 13 0
BBX 10 17 1 0
BITMAP
0180
0180
0180
C180
C180
C180
C180
C180
C180
C180
C180
C180
E380
7F80
3D80
01C0
01C0
ENDCHAR
STARTCHAR 057F
ENCODING 1407
SWIDTH 780 0
DWIDTH 13 0
BBX 10 12 1 2
BITMAP
CF00
CF80
CDC0
CCC0
CCC0
CCC0
CCC0
CCC0
CCC0
ECC0
7CC0
3CC0
ENDCHAR
STARTCHAR 0580
ENCODING 1408
SWIDTH 780 0
DWIDTH 13 0
BBX 10 14 1 0
BITMAP
DF00
FF80
E1C0
C0C0
C0C0
C0C0
C0C0
C0C0
C0C0
C0C0
C0C0
C0C0
C000
C000
ENDCHAR
STARTCHAR 0581
ENCODING 1409
SWIDTH 780 0
DWIDTH 13 0
BBX 10 14 1 0
BITMAP
3FC0
7FC0
E0C0
C0C0
C0C0
C0C0
C0C0
61C0
7FC0
3EC0
00C0
01C0
7F80
7F00
ENDCHAR
STARTCHAR 0582
ENCODING 1410
SWIDTH 780 0
DWIDTH 13 0
BBX 7 12 3 2
BITMAP
C0
C0
C0
C0
C0
C0
C0
C0
C0
C0
FE
FE
ENDCHAR
STARTCHAR 0583
ENCODING 1411
SWIDTH 780 0
DWIDTH 13 0
BBX 10 17 1 0
BITMAP
0C00
0C00
0C00
CF00
CF80
CDC0
CCC0
CCC0
CCC0
CCC0
CCC0
CCC0
ECC0
7CC0
3CC0
0C00
0C00
ENDCHAR
STARTCHAR 0584
ENCODING 1412
SWIDTH 780 0
DWIDTH 13 0
BBX 10 14 1 0
BITMAP
7F00
7F80
61C0
60C0
60C0
60C0
60C0
6180
7F80
7F00
6000
FF80
FF80
6000
ENDCHAR
STARTCHAR 0585
ENCODING 1413
SWIDTH 780 0
DWIDTH 13 0
BBX 10 12 1 2
BITMAP
3F00
7F80
E1C0
C0C0
C0C0
C0C0
C0C0
C0C0
C0C0
E1C0
7F80
3F00
ENDCHAR
STARTCHAR 0586
ENCODING 1414
SWIDTH 780 0
DWIDTH 13 0
BBX 10 17 1 0
BITMAP
3C00
7C00
EC00
CC00
EC00
7F00
3F80
0D80
0CC0
0CC0
0CC0
CCC0
EDC0
7F80
3F00
0C00
0C00
ENDCHAR
STARTCHAR 0587
ENCODING 1415
SWIDTH 780 0
DWIDTH 13 0
BBX 11 15 0 2
BITMAP
C000
C000
C000
C300
C300
C300
C300
C300
C300
C300
C300
C300
E700
7FE0
3BE0
ENDCHAR
STARTCHAR 0588
ENCODING 1416
SWIDTH 780 0
DWIDTH 13 0
BBX 7 14 3 0
BITMAP
18
18
18
18
18
7E
7E
18
18
18
18
38
F0
E0
ENDCHAR
STARTCHAR 0589
ENCODING 1417
SWIDTH 780 0
DWIDTH 13 0
BBX 2 12 5 2
BITMAP
C0
C0
00
00
00
00
00
00
00
00
C0
C0
ENDCHAR
STARTCHAR 058A
ENCODING 1418
SWIDTH 780 0
DWIDTH 13 0
BBX 6 3 3 9
BITMAP
C0
FC
7C
ENDCHAR
STARTCHAR 058F
ENCODING 1423
SWIDTH 780 0
DWIDTH 13 0
BBX 10 15 1 2
BITMAP
3E00
7F00
E380
C180
0180
0180
0180
0180
0FC0
0FC0
0180
0FC0
0FC0
0180
0180
ENDCHAR
STARTCHAR 0591
ENCODING 1425
SWIDTH 780 0
DWIDTH 13 0
BBX 6 2 3 0
BITMAP
78
CC
ENDCHAR
STARTCHAR 0592
ENCODING 1426
SWIDTH 780 0
DWIDTH 13 0
BBX 6 3 3 14
BITMAP
30
00
CC
ENDCHAR
STARTCHAR 0593
ENCODING 1427
SWIDTH 780 0
DWIDTH 13 0
BBX 3 3 5 14
BITMAP
60
C0
60
ENDCHAR
STARTCHAR 0594
ENCODING 1428
SWIDTH 780 0
DWIDTH 13 0
BBX 2 3 5 14
BITMAP
C0
00
C0
ENDCHAR
STARTCHAR 0595
ENCODING 1429
SWIDTH 780 0
DWIDTH 13 0
BBX 5 3 3 14
BITMAP
D8
C0
D8
ENDCHAR
STARTCHAR 0596
ENCODING 1430
SWIDTH 780 0
DWIDTH 13 0
BBX 4 2 4 0
BITMAP
C0
70
ENDCHAR
STARTCHAR 0597
ENCODING 1431
SWIDTH 780 0
DWIDTH 13 0
BBX 4 3 4 14
BITMAP
60
F0
60
ENDCHAR
STARTCHAR 0598
ENCODING 1432
SWIDTH 780 0
DWIDTH 13 0
BBX 8 3 2 14
BITMAP
73
DB
CE
ENDCHAR
STARTCHAR 0599
ENCODING 1433
SWIDTH 780 0
DWIDTH 13 0
BBX 4 2 4 15
BITMAP
F0
30
ENDCHAR
STARTCHAR 059A
ENCODING 1434
SWIDTH 780 0
DWIDTH 13 0
BBX 3 3 4 0
BITMAP
60
C0
60
ENDCHAR
STARTCHAR 059B
ENCODING 1435
SWIDTH 780 0
DWIDTH 13 0
BBX 5 2 3 0
BITMAP
98
30
ENDCHAR
STARTCHAR 059C
ENCODING 1436
SWIDTH 780 0
DWIDTH 13 0
BBX 4 2 4 15
BITMAP
F0
C0
ENDCHAR
STARTCHAR 059D
ENCODING 1437
SWIDTH 780 0
DWIDTH 13 0
BBX 4 2 4 15
BITMAP
70
C0
ENDCHAR
STARTCHAR 059E
ENCODING 1438
SWIDTH 780 0
DWIDTH 13 0
BBX 7 2 3 15
BITMAP
EE
CC
ENDCHAR
STARTCHAR 059F
ENCODING 1439
SWIDTH 780 0
DWIDTH 13 0
BBX 9 3 2 14
BITMAP
C380
C380
2600
ENDCHAR
STARTCHAR 05A0
ENCODING 1440
SWIDTH 780 0
DWIDTH 13 0
BBX 3 3 5 14
BITMAP
60
60
80
ENDCHAR
STARTCHAR 05A1
ENCODING 1441
SWIDTH 780 0
DWIDTH 13 0
BBX 5 3 4 14
BITMAP
D8
F0
C0
ENDCHAR
STARTCHAR 05A2
ENCODING 1442
SWIDTH 780 0
DWIDTH 13 0
BBX 6 2 3 0
BITMAP
CC
78
ENDCHAR
STARTCHAR 05A3
ENCODING 1443
SWIDTH 780 0
DWIDTH 13 0
BBX 4 2 4 0
BITMAP
30
F0
ENDCHAR
STARTCHAR 05A4
ENCODING 1444
SWIDTH 780 0
DWIDTH 13 0
BBX 3 3 4 0
BITMAP
60
C0
60
ENDCHAR
STARTCHAR 05A5
ENCODING 1445
SWIDTH 780 0
DWIDTH 13 0
BBX 4 2 4 0
BITMAP
30
E0
ENDCHAR
STARTCHAR 05A6
ENCODING 1446
SWIDTH 780 0
DWIDTH 13 0
BBX 7 3 3 0
BITMAP
6E
6E
D8
ENDCHAR
STARTCHAR 05A7
ENCODING 1447
SWIDTH 780 0
DWIDTH 13 0
BBX 4 3 4 0
BITMAP
70
60
E0
ENDCHAR
STARTCHAR 05A8
ENCODING 1448
SWIDTH 780 0
DWIDTH 13 0
BBX 4 2 4 15
BITMAP
E0
30
ENDCHAR
STARTCHAR 05A9
ENCODING 1449
SWIDTH 780 0
DWIDTH 13 0
BBX 3 3 5 14
BITMAP
C0
C0
20
ENDCHAR
STARTCHAR 05AA
ENCODING 1450
SWIDTH 780 0
DWIDTH 13 0
BBX 5 2 4 0
BITMAP
D8
70
ENDCHAR
STARTCHAR 05AB
ENCODING 1451
SWIDTH 780 0
DWIDTH 13 0
BBX 4 3 4 14
BITMAP
70
C0
70
ENDCHAR
STARTCHAR 05AC
ENCODING 1452
SWIDTH 780 0
DWIDTH 13 0
BBX 4 3 4 14
BITMAP
30
30
F0
ENDCHAR
STARTCHAR 05AD
ENCODING 1453
SWIDTH 780 0
DWIDTH 13 0
BBX 3 2 5 0
BITMAP
C0
E0
ENDCHAR
STARTCHAR 05AE
ENCODING 1454
SWIDTH 780 0
DWIDTH 13 0
BBX 8 3 2 14
BITMAP
73
DB
CE
ENDCHAR
STARTCHAR 05AF
ENCODING 1455
SWIDTH 780 0
DWIDTH 13 0
BBX 6 3 3 14
BITMAP
78
CC
78
ENDCHAR
STARTCHAR 05B0
ENCODING 1456
SWIDTH 780 0
DWIDTH 13 0
BBX 2 3 9 0
BITMAP
C0
00
C0
ENDCHAR
STARTCHAR 05B1
ENCODING 1457
SWIDTH 780 0
DWIDTH 13 0
BBX 8 3 2 0
BITMAP
DB
00
1B
ENDCHAR
STARTCHAR 05B2
ENCODING 1458
SWIDTH 780 0
DWIDTH 13 0
BBX 8 3 2 0
BITMAP
FB
00
03
ENDCHAR
STARTCHAR 05B3
ENCODING 1459
SWIDTH 780 0
DWIDTH 13 0
BBX 8 3 2 0
BITMAP
FB
20
23
ENDCHAR
STARTCHAR 05B4
ENCODING 1460
SWIDTH 780 0
DWIDTH 13 0
BBX 2 1 5 1
BITMAP
C0
ENDCHAR
STARTCHAR 05B5
ENCODING 1461
SWIDTH 780 0
DWIDTH 13 0
BBX 6 1 3 1
BITMAP
CC
ENDCHAR
STARTCHAR 05B6
ENCODING 1462
SWIDTH 780 0
DWIDTH 13 0
BBX 6 2 3 0
BITMAP
CC
30
ENDCHAR
STARTCHAR 05B7
ENCODING 1463
SWIDTH 780 0
DWIDTH 13 0
BBX 6 1 3 1
BITMAP
FC
ENDCHAR
STARTCHAR 05B8
ENCODING 1464
SWIDTH 780 0
DWIDTH 13 0
BBX 6 2 3 0
BITMAP
FC
30
ENDCHAR
STARTCHAR 05B9
ENCODING 1465
SWIDTH 780 0
DWIDTH 13 0
BBX 2 2 5 15
BITMAP
C0
C0
ENDCHAR
STARTCHAR 05BA
ENCODING 1466
SWIDTH 780 0
DWIDTH 13 0
BBX 2 1 6 16
BITMAP
C0
ENDCHAR
STARTCHAR 05BB
ENCODING 1467
SWIDTH 780 0
DWIDTH 13 0
BBX 6 3 3 0
BITMAP
C0
30
0C
ENDCHAR
STARTCHAR 05BC
ENCODING 1468
SWIDTH 780 0
DWIDTH 13 0
BBX 2 2 6 7
BITMAP
C0
C0
ENDCHAR
STARTCHAR 05BD
ENCODING 1469
SWIDTH 780 0
DWIDTH 13 0
BBX 2 3 5 0
BITMAP
C0
C0
C0
ENDCHAR
STARTCHAR 05BE
ENCODING 1470
SWIDTH 780 0
DWIDTH 13 0
BBX 8 2 2 10
BITMAP
FF
FF
ENDCHAR
STARTCHAR 05BF
ENCODING 1471
SWIDTH 780 0
DWIDTH 13 0
BBX 6 1 3 12
BITMAP
FC
ENDCHAR
STARTCHAR 05C0
ENCODING 1472
SWIDTH 780 0
DWIDTH 13 0
BBX 2 12 5 2
BITMAP
40
40
C0
C0
C0
C0
C0
C0
C0
C0
C0
80
ENDCHAR
STARTCHAR 05C1
ENCODING 1473
SWIDTH 780 0
DWIDTH 13 0
BBX 2 2 8 11
BITMAP
C0
C0
ENDCHAR
STARTCHAR 05C2
ENCODING 1474
SWIDTH 780 0
DWIDTH 13 0
BBX 2 2 5 11
BITMAP
C0
C0
ENDCHAR
STARTCHAR 05C3
ENCODING 1475
SWIDTH 780 0
DWIDTH 13 0
BBX 2 11 5 3
BITMAP
C0
C0
00
00
00
00
00
00
00
C0
C0
ENDCHAR
STARTCHAR 05C4
ENCODING 1476
SWIDTH 780 0
DWIDTH 13 0
BBX 2 2 5 14
BITMAP
C0
C0
ENDCHAR
STARTCHAR 05C5
ENCODING 1477
SWIDTH 780 0
DWIDTH 13 0
BBX 2 2 5 1
BITMAP
C0
C0
ENDCHAR
STARTCHAR 05C6
ENCODING 1478
SWIDTH 780 0
DWIDTH 13 0
BBX 7 11 3 3
BITMAP
78
F8
C0
C0
C0
C0
C0
C0
C0
FE
FE
ENDCHAR
STARTCHAR 05C7
ENCODING 1479
SWIDTH 780 0
DWIDTH 13 0
BBX 6 2 3 0
BITMAP
FC
30
ENDCHAR
STARTCHAR 05D0
ENCODING 1488
SWIDTH 780 0
DWIDTH 13 0
BBX 10 11 1 3
BITMAP
C0C0
C0C0
60C0
70C0
78C0
FFC0
CF80
C700
C380
C1C0
C0C0
ENDCHAR
STARTCHAR 05D1
ENCODING 1489
SWIDTH 780 0
DWIDTH 13 0
BBX 10 11 1 3
BITMAP
7C00
7C00
0700
0300
0300
0300
0300
0300
0180
FFC0
FFC0
ENDCHAR
STARTCHAR 05D2
ENCODING 1490
SWIDTH 780 0
DWIDTH 13 0
BBX 7 11 3 3
BITMAP
70
78
18
18
1C
0C
0C
3E
7E
E6
C6
ENDCHAR
STARTCHAR 05D3
ENCODING 1491
SWIDTH 780 0
DWIDTH 13 0
BBX 10 11 1 3
BITMAP
FFC0
FFC0
0300
0300
0300
0300
0300
0300
0300
0300
0300
ENDCHAR
STARTCHAR 05D4
ENCODING 1492
SWIDTH 780 0
DWIDTH 13 0
BBX 10 11 1 3
BITMAP
FF00
FF00
0180
00C0
C0C0
C0C0
C0C0
C0C0
C0C0
C0C0
C0C0
ENDCHAR
STARTCHAR 05D5
ENCODING 1493
SWIDTH 780 0
DWIDTH 13 0
BBX 4 11 4 3
BITMAP
C0
C0
60
30
30
30
30
30
30
30
30
ENDCHAR
STARTCHAR 05D6
ENCODING 1494
SWIDTH 780 0
DWIDTH 13 0
BBX 7 11 3 3
BITMAP
C0
C0
30
3E
3E
30
30
30
30
30
30
ENDCHAR
STARTCHAR 05D7
ENCODING 1495
SWIDTH 780 0
DWIDTH 13 0
BBX 10 9 1 5
BITMAP
FF00
FF80
61C0
60C0
60C0
60C0
60C0
60C0
60C0
ENDCHAR
STARTCHAR 05D8
ENCODING 1496
SWIDTH 780 0
DWIDTH 13 0
BBX 10 11 1 3
BITMAP
C700
C700
C180
C0C0
C0C0
40C0
61C0
6380
6700
7E00
7C00
ENDCHAR
STARTCHAR 05D9
ENCODING 1497
SWIDTH 780 0
DWIDTH 13 0
BBX 6 7 3 7
BITMAP
F0
F8
1C
0C
0C
0C
0C
ENDCHAR
STARTCHAR 05DA
ENCODING 1498
SWIDTH 780 0
DWIDTH 13 0
BBX 10 14 2 0
BITMAP
FFC0
FFC0
00C0
00C0
00C0
00C0
00C0
00C0
00C0
00C0
00C0
00C0
00C0
00C0
ENDCHAR
STARTCHAR 05DB
ENCODING 1499
SWIDTH 780 0
DWIDTH 13 0
BBX 10 11 1 3
BITMAP
7F00
7F00
0180
00C0
00C0
00C0
00C0
00C0
01C0
FF80
FF00
ENDCHAR
STARTCHAR 05DC
ENCODING 1500
SWIDTH 780 0
DWIDTH 13 0
BBX 7 15 4 2
BITMAP
C0
C0
C0
F8
FC
0E
06
06
06
06
0C
0C
18
78
70
ENDCHAR
STARTCHAR 05DD
ENCODING 1501
SWIDTH 780 0
DWIDTH 13 0
BBX 10 11 1 3
BITMAP
FF00
FF80
6180
60C0
60C0
60C0
60C0
60C0
60C0
7FC0
7F80
ENDCHAR
STARTCHAR 05DE
ENCODING 1502
SWIDTH 780 0
DWIDTH 13 0
BBX 11 11 1 3
BITMAP
DF80
DF80
71C0
30E0
30E0
30E0
30E0
30E0
30E0
37E0
37C0
ENDCHAR
STARTCHAR 05DF
ENCODING 1503
SWIDTH 780 0
DWIDTH 13 0
BBX 4 14 3 0
BITMAP
C0
C0
60
30
30
30
30
30
30
30
30
30
30
30
ENDCHAR
STARTCHAR 05E0
ENCODING 1504
SWIDTH 780 0
DWIDTH 13 0
BBX 6 11 3 3
BITMAP
30
38
1C
0C
0C
0C
0C
0C
0C
FC
FC
ENDCHAR
STARTCHAR 05E1
ENCODING 1505
SWIDTH 780 0
DWIDTH 13 0
BBX 11 11 1 3
BITMAP
FF00
FF00
6180
60E0
60E0
60E0
6180
6180
6300
7F00
3C00
ENDCHAR
STARTCHAR 05E2
ENCODING 1506
SWIDTH 780 0
DWIDTH 13 0
BBX 12 11 0 3
BITMAP
1870
1870
0860
0CE0
0CE0
0480
0780
0780
0300
FF00
FC00
ENDCHAR
STARTCHAR 05E3
ENCODING 1507
SWIDTH 780 0
DWIDTH 13 0
BBX 7 14 2 0
BITMAP
78
78
CC
C6
C6
E6
66
06
06
06
06
06
06
06
ENDCHAR
STARTCHAR 05E4
ENCODING 1508
SWIDTH 780 0
DWIDTH 13 0
BBX 10 11 1 3
BITMAP
3F00
3F00
6180
60C0
60C0
70C0
30C0
00C0
00C0
FFC0
FF80
ENDCHAR
STARTCHAR 05E5
ENCODING 1509
SWIDTH 780 0
DWIDTH 13 0
BBX 10 14 1 0
BITMAP
C0C0
C0C0
C0C0
6080
2180
3180
3300
1F00
1E00
0C00
0C00
0C00
0C00
0C00
ENDCHAR
STARTCHAR 05E6
ENCODING 1510
SWIDTH 780 0
DWIDTH 13 0
BBX 10 11 1 3
BITMAP
C0C0
C0C0
60C0
30C0
39C0
1F80
0F00
0700
0380
FFC0
FFC0
ENDCHAR
STARTCHAR 05E7
ENCODING 1511
SWIDTH 780 0
DWIDTH 13 0
BBX 11 11 1 3
BITMAP
FFE0
FFE0
00E0
30E0
30E0
31E0
3780
3700
3000
3000
3000
ENDCHAR
STARTCHAR 05E8
ENCODING 1512
SWIDTH 780 0
DWIDTH 13 0
BBX 8 11 3 3
BITMAP
FC
FC
06
03
03
03
03
03
03
03
03
ENDCHAR
STARTCHAR 05E9
ENCODING 1513
SWIDTH 780 0
DWIDTH 13 0
BBX 10 11 1 3
BITMAP
CCC0
CCC0
CCC0
CCC0
CCC0
78C0
6180
6300
6700
7E00
7C00
ENDCHAR
STARTCHAR 05EA
ENCODING 1514
SWIDTH 780 0
DWIDTH 13 0
BBX 10 11 1 3
BITMAP
FF00
FF00
1980
10C0
30C0
30C0
30C0
30C0
30C0
F0C0
F0C0
ENDCHAR
STARTCHAR 05EF
ENCODING 1519
SWIDTH 780 0
DWIDTH 13 0
BBX 9 7 2 9
BITMAP
1800
1800
1800
0000
C380
C380
C380
ENDCHAR
STARTCHAR 05F0
ENCODING 1520
SWIDTH 780 0
DWIDTH 13 0
BBX 11 11 1 3
BITMAP
C380
C380
61C0
30E0
30E0
30E0
30E0
30E0
30E0
30E0
30E0
ENDCHAR
STARTCHAR 05F1
ENCODING 1521
SWIDTH 780 0
DWIDTH 13 0
BBX 10 11 1 3
BITMAP
E300
E300
3180
18C0
18C0
18C0
18C0
00C0
00C0
00C0
00C0
ENDCHAR
STARTCHAR 05F2
ENCODING 1522
SWIDTH 780 0
DWIDTH 13 0
BBX 11 7 1 7
BITMAP
E780
F7C0
39E0
18E0
18E0
18E0
18E0
ENDCHAR
STARTCHAR 05F3
ENCODING 1523
SWIDTH 780 0
DWIDTH 13 0
BBX 4 3 5 14
BITMAP
30
60
C0
ENDCHAR
STARTCHAR 05F4
ENCODING 1524
SWIDTH 780 0
DWIDTH 13 0
BBX 8 3 2 14
BITMAP
33
66
CC
ENDCHAR
STARTCHAR 07C0
ENCODING 1984
SWIDTH 780 0
DWIDTH 13 0
BBX 10 15 1 2
BITMAP
3F00
7F80
E1C0
C0C0
C0C0
C0C0
C0C0
C0C0
C0C0
C0C0
C0C0
C0C0
E1C0
7F80
3F00
ENDCHAR
STARTCHAR 07C1
ENCODING 1985
SWIDTH 780 0
DWIDTH 13 0
BBX 8 15 2 2
BITMAP
18
1C
1E
1F
1F
1B
18
18
18
18
18
18
18
FF
FF
ENDCHAR
STARTCHAR 07C2
ENCODING 1986
SWIDTH 780 0
DWIDTH 13 0
BBX 10 15 1 2
BITMAP
C0C0
C0C0
C0C0
C0C0
C0C0
C0C0
C0C0
FFC0
FF80
C000
C000
C000
C000
C000
C000
ENDCHAR
STARTCHAR 07C3
ENCODING 1987
SWIDTH 780 0
DWIDTH 13 0
BBX 10 15 1 2
BITMAP
00C0
00C0
00C0
00C0
00C0
00C0
00C0
FFC0
FFC0
00C0
00C0
00C0
00C0
FFC0
FF80
ENDCHAR
STARTCHAR 07C4
ENCODING 1988
SWIDTH 780 0
DWIDTH 13 0
BBX 10 15 1 2
BITMAP
00C0
00C0
00C0
00C0
00C0
00C0
00C0
7FC0
FF80
C000
C000
C000
C000
FFC0
7FC0
ENDCHAR
STARTCHAR 07C5
ENCODING 1989
SWIDTH 780 0
DWIDTH 13 0
BBX 10 15 1 2
BITMAP
C000
C000
C000
C000
C000
C000
C000
FFC0
FFC0
C000
C000
C000
C000
C000
C000
ENDCHAR
STARTCHAR 07C6
ENCODING 1990
SWIDTH 780 0
DWIDTH 13 0
BBX 10 15 1 2
BITMAP
C000
C000
C000
C000
C000
C000
C000
FF80
7FC0
00C0
00C0
00C0
00C0
00C0
00C0
ENDCHAR
STARTCHAR 07C7
ENCODING 1991
SWIDTH 780 0
DWIDTH 13 0
BBX 10 15 1 2
BITMAP
C000
C000
C000
C000
C0C0
C0C0
C1C0
C380
C700
CE00
DC00
F800
F000
E000
C000
ENDCHAR
STARTCHAR 07C8
ENCODING 1992
SWIDTH 780 0
DWIDTH 13 0
BBX 10 15 1 2
BITMAP
C000
C000
C000
FFC0
FFC0
FFC0
C1C0
C380
C700
CE00
DC00
F800
F000
E000
C000
ENDCHAR
STARTCHAR 07C9
ENCODING 1993
SWIDTH 780 0
DWIDTH 13 0
BBX 10 15 1 2
BITMAP
3F00
7F80
E1C0
C0C0
C0C0
C0C0
C0C0
E1C0
7F80
3F00
0C00
0C00
0C00
0C00
0C00
ENDCHAR
STARTCHAR 07CA
ENCODING 1994
SWIDTH 780 0
DWIDTH 13 0
BBX 2 15 5 2
BITMAP
C0
C0
C0
C0
C0
C0
C0
C0
C0
C0
C0
C0
C0
C0
C0
ENDCHAR
STARTCHAR 07CB
ENCODING 1995
SWIDTH 780 0
DWIDTH 13 0
BBX 10 12 1 2
BITMAP
3F00
7F80
7F80
E1C0
C0C0
C0C0
C0C0
C0C0
C0C0
E1C0
7F80
3F00
ENDCHAR
STARTCHAR 07CC
ENCODING 1996
SWIDTH 780 0
DWIDTH 13 0
BBX 10 15 1 2
BITMAP
C0C0
C0C0
E1C0
7380
7F80
3F00
1E00
0C00
0C00
0C00
0C00
0C00
0C00
0C00
0C00
ENDCHAR
STARTCHAR 07CD
ENCODING 1997
SWIDTH 780 0
DWIDTH 13 0
BBX 10 12 1 2
BITMAP
0C00
0C00
0C00
1E00
1E00
3300
3300
6180
6180
C0C0
C0C0
C0C0
ENDCHAR
STARTCHAR 07CE
ENCODING 1998
SWIDTH 780 0
DWIDTH 13 0
BBX 10 12 1 2
BITMAP
C0C0
C0C0
C0C0
C0C0
C0C0
C0C0
C0C0
C0C0
C0C0
C0C0
FFC0
7F80
ENDCHAR
STARTCHAR 07CF
ENCODING 1999
SWIDTH 780 0
DWIDTH 13 0
BBX 10 12 1 2
BITMAP
FF80
FFC0
FFC0
00C0
00C0
00C0
00C0
00C0
00C0
00C0
FFC0
FF80
ENDCHAR
STARTCHAR 07D0
ENCODING 2000
SWIDTH 780 0
DWIDTH 13 0
BBX 10 15 1 2
BITMAP
3F00
7F80
E1C0
C0C0
C0C0
C0C0
C0C0
E1C0
7F80
3F00
0C00
0C00
0C00
FFC0
FFC0
ENDCHAR
STARTCHAR 07D1
ENCODING 2001
SWIDTH 780 0
DWIDTH 13 0
BBX 10 15 1 2
BITMAP
0300
0600
0C00
0C00
0C00
0000
0000
0000
0000
0000
0000
0000
0000
FFC0
FFC0
ENDCHAR
STARTCHAR 07D2
ENCODING 2002
SWIDTH 780 0
DWIDTH 13 0
BBX 10 15 1 2
BITMAP
3800
7C00
EE00
C600
C600
C600
E600
7F80
3FC0
06C0
06C0
00C0
00C0
00C0
00C0
ENDCHAR
STARTCHAR 07D3
ENCODING 2003
SWIDTH 780 0
DWIDTH 13 0
BBX 10 15 1 2
BITMAP
7FC0
FFC0
C000
C000
C000
C000
C000
FE00
FE00
C000
C000
C000
C000
C000
C000
ENDCHAR
STARTCHAR 07D4
ENCODING 2004
SWIDTH 780 0
DWIDTH 13 0
BBX 10 15 1 2
BITMAP
FF80
FFC0
00C0
00C0
00C0
00C0
00C0
1FC0
1FC0
00C0
00C0
00C0
00C0
00C0
00C0
ENDCHAR
STARTCHAR 07D5
ENCODING 2005
SWIDTH 780 0
DWIDTH 13 0
BBX 10 15 1 2
BITMAP
C000
C000
C000
C000
C000
C000
FF00
FF80
C1C0
C0C0
C0C0
C0C0
C1C0
FF80
7F00
ENDCHAR
STARTCHAR 07D6
ENCODING 2006
SWIDTH 780 0
DWIDTH 13 0
BBX 10 15 1 2
BITMAP
FFC0
FFC0
E000
7000
7800
3800
1C00
0C00
0C00
0C00
0C00
0C00
0C00
0C00
0C00
ENDCHAR
STARTCHAR 07D7
ENCODING 2007
SWIDTH 780 0
DWIDTH 13 0
BBX 5 15 2 2
BITMAP
18
38
78
F8
F8
D8
18
18
18
18
18
18
18
18
18
ENDCHAR
STARTCHAR 07D8
ENCODING 2008
SWIDTH 780 0
DWIDTH 13 0
BBX 10 12 1 2
BITMAP
0700
0F80
0F80
3DC0
7CC0
ECC0
CCC0
CCC0
CCC0
CCC0
FFC0
FFC0
ENDCHAR
STARTCHAR 07D9
ENCODING 2009
SWIDTH 780 0
DWIDTH 13 0
BBX 10 15 1 2
BITMAP
0C00
0C00
0C00
FFC0
FFC0
FFC0
0C00
0C00
0C00
0C00
0C00
0C00
0C00
0C00
0C00
ENDCHAR
STARTCHAR 07DA
ENCODING 2010
SWIDTH 780 0
DWIDTH 13 0
BBX 13 15 0 2
BITMAP
30C0
30C0
30C0
FFF8
FFF8
FFF8
30C0
30C0
30C0
30C0
30C0
30C0
30C0
3FC0
1F80
ENDCHAR
STARTCHAR 07DB
ENCODING 2011
SWIDTH 780 0
DWIDTH 13 0
BBX 10 12 1 2
BITMAP
3FC0
7FC0
7FC0
E0C0
C0C0
C0C0
C0C0
C0C0
C0C0
C0C0
FFC0
FFC0
ENDCHAR
STARTCHAR 07DC
ENCODING 2012
SWIDTH 780 0
DWIDTH 13 0
BBX 10 15 1 2
BITMAP
FFC0
FFC0
C0C0
6180
6180
6180
6180
3300
3300
3300
1E00
1E00
1E00
0C00
0C00
ENDCHAR
STARTCHAR 07DD
ENCODING 2013
SWIDTH 780 0
DWIDTH 13 0
BBX 10 15 1 2
BITMAP
0300
0780
0FC0
0CC0
0CC0
0CC0
0DC0
3F80
7F00
EC00
CC00
CC00
DC00
F800
7000
ENDCHAR
STARTCHAR 07DE
ENCODING 2014
SWIDTH 780 0
DWIDTH 13 0
BBX 10 15 1 2
BITMAP
00C0
00C0
00C0
C0C0
C0C0
C0C0
FFC0
FFC0
C0C0
C0C0
00C0
00C0
00C0
00C0
00C0
ENDCHAR
STARTCHAR 07DF
ENCODING 2015
SWIDTH 780 0
DWIDTH 13 0
BBX 10 15 1 2
BITMAP
3C00
7E00
E700
C300
C300
C300
C300
E300
7FC0
3FC0
0300
0300
0300
0300
0300
ENDCHAR
STARTCHAR 07E0
ENCODING 2016
SWIDTH 780 0
DWIDTH 13 0
BBX 10 15 1 2
BITMAP
FFC0
FFC0
0C00
0C00
0C00
0C00
0C00
0C00
0C00
0C00
0C00
0C00
0C00
0C00
0C00
ENDCHAR
STARTCHAR 07E1
ENCODING 2017
SWIDTH 780 0
DWIDTH 13 0
BBX 10 15 1 2
BITMAP
0C00
0C00
1E00
1E00
1E00
1E00
3300
3300
3300
6180
6180
6180
C0C0
FFC0
FFC0
ENDCHAR
STARTCHAR 07E2
ENCODING 2018
SWIDTH 780 0
DWIDTH 13 0
BBX 12 15 1 2
BITMAP
FE00
FF00
0300
0300
0300
0300
0300
0FC0
1870
1870
0FC0
0300
0300
0300
0300
ENDCHAR
STARTCHAR 07E3
ENCODING 2019
SWIDTH 780 0
DWIDTH 13 0
BBX 10 15 1 2
BITMAP
7F80
FFC0
C0C0
C0C0
C0C0
C0C0
00C0
00C0
00C0
00C0
00C0
00C0
00C0
00C0
00C0
ENDCHAR
STARTCHAR 07E4
ENCODING 2020
SWIDTH 780 0
DWIDTH 13 0
BBX 10 15 1 2
BITMAP
C000
C000
C000
FF80
FFC0
FFC0
C0C0
C0C0
C0C0
00C0
00C0
00C0
00C0
00C0
00C0
ENDCHAR
STARTCHAR 07E5
ENCODING 2021
SWIDTH 780 0
DWIDTH 13 0
BBX 10 15 1 2
BITMAP
FFC0
FFC0
00C0
00C0
00C0
00C0
3FC0
7FC0
E0C0
C0C0
C0C0
C0C0
C0C0
FFC0
FFC0
ENDCHAR
STARTCHAR 07E6
ENCODING 2022
SWIDTH 780 0
DWIDTH 13 0
BBX 8 15 2 2
BITMAP
18
18
18
18
18
18
7E
C3
C3
7E
18
18
18
18
18
ENDCHAR
STARTCHAR 07E7
ENCODING 2023
SWIDTH 780 0
DWIDTH 13 0
BBX 12 15 1 2
BITMAP
FFF0
FFF0
0C00
0C00
0C00
0C00
3F00
6180
6180
3F00
0C00
0C00
0C00
0C00
0C00
ENDCHAR
STARTCHAR 07E8
ENCODING 2024
SWIDTH 780 0
DWIDTH 13 0
BBX 10 14 1 0
BITMAP
0C00
0C00
0C00
0C00
0C00
0C00
FC00
FC00
0C00
0C00
0CC0
0DC0
0F80
0F00
ENDCHAR
STARTCHAR 07E9
ENCODING 2025
SWIDTH 780 0
DWIDTH 13 0
BBX 10 14 1 0
BITMAP
0C00
0C00
0C00
0C00
0C00
0C00
FC00
FC00
0F00
0F80
0DC0
0DC0
0F80
0F00
ENDCHAR
STARTCHAR 07EA
ENCODING 2026
SWIDTH 780 0
DWIDTH 13 0
BBX 10 14 1 0
BITMAP
0C00
0C00
0C00
0C00
0C00
0C00
FFC0
FFC0
0C00
0C00
0C00
0C00
0C00
0C00
ENDCHAR
STARTCHAR 07EB
ENCODING 2027
SWIDTH 780 0
DWIDTH 13 0
BBX 6 2 3 15
BITMAP
FC
FC
ENDCHAR
STARTCHAR 07EC
ENCODING 2028
SWIDTH 780 0
DWIDTH 13 0
BBX 6 2 3 15
BITMAP
6C
D8
ENDCHAR
STARTCHAR 07ED
ENCODING 2029
SWIDTH 780 0
DWIDTH 13 0
BBX 2 2 5 15
BITMAP
C0
C0
ENDCHAR
STARTCHAR 07EE
ENCODING 2030
SWIDTH 780 0
DWIDTH 13 0
BBX 6 2 3 15
BITMAP
78
CC
ENDCHAR
STARTCHAR 07EF
ENCODING 2031
SWIDTH 780 0
DWIDTH 13 0
BBX 6 2 3 15
BITMAP
18
FC
ENDCHAR
STARTCHAR 07F0
ENCODING 2032
SWIDTH 780 0
DWIDTH 13 0
BBX 6 2 3 15
BITMAP
D8
6C
ENDCHAR
STARTCHAR 07F1
ENCODING 2033
SWIDTH 780 0
DWIDTH 13 0
BBX 6 2 3 15
BITMAP
60
FC
ENDCHAR
STARTCHAR 07F2
ENCODING 2034
SWIDTH 780 0
DWIDTH 13 0
BBX 2 2 5 0
BITMAP
C0
C0
ENDCHAR
STARTCHAR 07F3
ENCODING 2035
SWIDTH 780 0
DWIDTH 13 0
BBX 6 2 3 15
BITMAP
CC
CC
ENDCHAR
STARTCHAR 07F4
ENCODING 2036
SWIDTH 780 0
DWIDTH 13 0
BBX 3 3 4 14
BITMAP
60
60
C0
ENDCHAR
STARTCHAR 07F5
ENCODING 2037
SWIDTH 780 0
DWIDTH 13 0
BBX 3 3 5 14
BITMAP
60
C0
C0
ENDCHAR
STARTCHAR 07F6
ENCODING 2038
SWIDTH 780 0
DWIDTH 13 0
BBX 10 15 1 2
BITMAP
3F00
7F80
E1C0
C0C0
E0C0
E0C0
71C0
3B80
1F00
0E00
1C00
3800
7000
FFC0
FFC0
ENDCHAR
STARTCHAR 07F7
ENCODING 2039
SWIDTH 780 0
DWIDTH 13 0
BBX 13 14 0 2
BITMAP
1F80
3FC0
70E0
76E0
6660
6060
39C0
79E0
E078
D6B8
D6B8
EF78
7FE0
39C0
ENDCHAR
STARTCHAR 07F8
ENCODING 2040
SWIDTH 780 0
DWIDTH 13 0
BBX 10 9 1 2
BITMAP
0C00
0C00
0000
0000
0000
0000
0000
FFC0
FFC0
ENDCHAR
STARTCHAR 07F9
ENCODING 2041
SWIDTH 780 0
DWIDTH 13 0
BBX 10 12 1 2
BITMAP
FFC0
FFC0
FFC0
0000
0000
0000
0C00
0C00
0000
0000
0C00
0C00
ENDCHAR
STARTCHAR 07FA
ENCODING 2042
SWIDTH 780 0
DWIDTH 13 0
BBX 10 2 1 2
BITMAP
FFC0
FFC0
ENDCHAR
STARTCHAR 07FB
ENCODING 2043
SWIDTH 780 0
DWIDTH 13 0
BBX 8 2 2 2
BITMAP
FF
FF
ENDCHAR
STARTCHAR 07FD
ENCODING 2045
SWIDTH 780 0
DWIDTH 13 0
BBX 10 2 1 0
BITMAP
FFC0
C0C0
ENDCHAR
STARTCHAR 07FE
ENCODING 2046
SWIDTH 780 0
DWIDTH 13 0
BBX 10 15 1 2
BITMAP
0700
0F80
3DC0
7CC0
FCC0
ECC0
CCC0
FFC0
FFC0
0C00
0C00
3F80
3F80
0C00
0C00
ENDCHAR
STARTCHAR 07FF
ENCODING 2047
SWIDTH 780 0
DWIDTH 13 0
BBX 11 15 0 2
BITMAP
3000
3000
FC00
FC00
FC00
3000
3000
3F80
3FC0
30E0
3060
3060
30E0
3FC0
3F80
ENDCHAR
STARTCHAR 0D9E
ENCODING 3486
SWIDTH 780 0
DWIDTH 13 0
BBX 13 15 0 2
BITMAP
1F00
2080
7880
8440
8460
8460
7858
4058
4058
4058
4058
5C60
4A40
4A40
3180
ENDCHAR
STARTCHAR 0E01
ENCODING 3585
SWIDTH 780 0
DWIDTH 13 0
BBX 10 12 1 2
BITMAP
FF00
FF80
61C0
60C0
C0C0
C0C0
C0C0
C0C0
C0C0
C0C0
C0C0
C0C0
ENDCHAR
STARTCHAR 0E02
ENCODING 3586
SWIDTH 780 0
DWIDTH 13 0
BBX 10 12 1 2
BITMAP
F0C0
F0C0
30C0
30C0
30C0
30C0
30C0
30C0
30C0
39C0
1F80
0F00
ENDCHAR
STARTCHAR 0E03
ENCODING 3587
SWIDTH 780 0
DWIDTH 13 0
BBX 10 12 1 2
BITMAP
CCC0
FCC0
78C0
30C0
30C0
30C0
30C0
30C0
30C0
39C0
1F80
0F00
ENDCHAR
STARTCHAR 0E04
ENCODING 3588
SWIDTH 780 0
DWIDTH 13 0
BBX 10 12 1 2
BITMAP
3F00
7F80
E1C0
C0C0
C0C0
C0C0
FCC0
FCC0
FCC0
C0C0
C0C0
C0C0
ENDCHAR
STARTCHAR 0E05
ENCODING 3589
SWIDTH 780 0
DWIDTH 13 0
BBX 10 12 1 2
BITMAP
3300
7F80
EDC0
C0C0
C0C0
C0C0
C0C0
FCC0
FCC0
C0C0
C0C0
C0C0
ENDCHAR
STARTCHAR 0E06
ENCODING 3590
SWIDTH 780 0
DWIDTH 13 0
BBX 10 12 1 2
BITMAP
CCC0
FCC0
78C0
30C0
30C0
30C0
30C0
30C0
30C0
7DC0
7F80
3700
ENDCHAR
STARTCHAR 0E07
ENCODING 3591
SWIDTH 780 0
DWIDTH 13 0
BBX 7 12 4 2
BITMAP
1E
1E
06
06
06
C6
66
66
36
36
1E
1E
ENDCHAR
STARTCHAR 0E08
ENCODING 3592
SWIDTH 780 0
DWIDTH 13 0
BBX 10 12 1 2
BITMAP
3F00
7F80
E1C0
C0C0
00C0
00C0
00C0
0FC0
0FC0
00C0
00C0
00C0
ENDCHAR
STARTCHAR 0E09
ENCODING 3593
SWIDTH 780 0
DWIDTH 13 0
BBX 11 12 1 2
BITMAP
3E00
7F00
E380
C180
0180
0180
0180
3180
3980
1FE0
1FE0
1980
ENDCHAR
STARTCHAR 0E0A
ENCODING 3594
SWIDTH 780 0
DWIDTH 13 0
BBX 10 12 1 2
BITMAP
E0C0
F1C0
3780
3780
31C0
30C0
30C0
30C0
30C0
38C0
1FC0
0FC0
ENDCHAR
STARTCHAR 0E0B
ENCODING 3595
SWIDTH 780 0
DWIDTH 13 0
BBX 10 12 1 2
BITMAP
CCC0
FDC0
7D80
30C0
30C0
30C0
30C0
30C0
30C0
38C0
1FC0
0FC0
ENDCHAR
STARTCHAR 0E0C
ENCODING 3596
SWIDTH 780 0
DWIDTH 13 0
BBX 10 12 1 2
BITMAP
F8C0
FCC0
CCC0
6CC0
6CC0
CCC0
CCC0
CCC0
CCC0
DFC0
FFC0
ECC0
ENDCHAR
STARTCHAR 0E0D
ENCODING 3597
SWIDTH 780 0
DWIDTH 13 0
BBX 10 14 1 0
BITMAP
F8C0
FCC0
6CC0
6CC0
CCC0
CCC0
CCC0
CCC0
CCC0
6FC0
6FC0
00C0
0780
0700
ENDCHAR
STARTCHAR 0E0E
ENCODING 3598
SWIDTH 780 0
DWIDTH 13 0
BBX 9 14 2 0
BITMAP
FE00
FF00
3380
7180
6180
6180
6180
6180
6180
E180
E180
0D80
3F80
3380
ENDCHAR
STARTCHAR 0E0F
ENCODING 3599
SWIDTH 780 0
DWIDTH 13 0
BBX 9 14 2 0
BITMAP
FE00
FF00
3380
7180
6180
6180
6180
6180
6180
E180
E180
0180
6D80
3B80
ENDCHAR
STARTCHAR 0E10
ENCODING 3600
SWIDTH 780 0
DWIDTH 13 0
BBX 10 14 1 0
BITMAP
00C0
3EC0
7FC0
E1C0
C0C0
00C0
00C0
0FC0
0FC0
00C0
00C0
0000
16C0
1DC0
ENDCHAR
STARTCHAR 0E11
ENCODING 3601
SWIDTH 780 0
DWIDTH 13 0
BBX 11 12 0 2
BITMAP
EDC0
FFE0
3E60
1C60
1860
1860
1860
1860
1860
1860
1860
1860
ENDCHAR
STARTCHAR 0E12
ENCODING 3602
SWIDTH 780 0
DWIDTH 13 0
BBX 10 12 1 2
BITMAP
D8C0
FCC0
FCC0
CCC0
CCC0
CCC0
CCC0
CCC0
CCC0
CCC0
EFC0
6F80
ENDCHAR
STARTCHAR 0E13
ENCODING 3603
SWIDTH 780 0
DWIDTH 13 0
BBX 10 12 1 2
BITMAP
F8C0
FCC0
6CC0
ECC0
CCC0
CCC0
CCC0
CCC0
CCC0
CEC0
EFC0
ED80
ENDCHAR
STARTCHAR 0E14
ENCODING 3604
SWIDTH 780 0
DWIDTH 13 0
BBX 10 12 1 2
BITMAP
3F00
7F80
E1C0
C0C0
C0C0
C0C0
F0C0
F8C0
C8C0
C8C0
F8C0
70C0
ENDCHAR
STARTCHAR 0E15
ENCODING 3605
SWIDTH 780 0
DWIDTH 13 0
BBX 10 12 1 2
BITMAP
3300
7F80
EDC0
C0C0
C0C0
C0C0
F0C0
F8C0
C8C0
C8C0
F8C0
70C0
ENDCHAR
STARTCHAR 0E16
ENCODING 3606
SWIDTH 780 0
DWIDTH 13 0
BBX 10 12 1 2
BITMAP
FF00
FF80
61C0
E0C0
C0C0
C0C0
C0C0
C0C0
C0C0
C0C0
E0C0
60C0
ENDCHAR
STARTCHAR 0E17
ENCODING 3607
SWIDTH 780 0
DWIDTH 13 0
BBX 10 12 1 2
BITMAP
E700
EF80
7DC0
78C0
70C0
60C0
60C0
60C0
60C0
60C0
60C0
60C0
ENDCHAR
STARTCHAR 0E18
ENCODING 3608
SWIDTH 780 0
DWIDTH 13 0
BBX 10 12 1 2
BITMAP
3FC0
7FC0
E000
C000
FFC0
FFC0
FFC0
00C0
C0C0
C0C0
FFC0
7F80
ENDCHAR
STARTCHAR 0E19
ENCODING 3609
SWIDTH 780 0
DWIDTH 13 0
BBX 10 12 1 2
BITMAP
E180
E180
6180
6180
6180
6180
6180
6180
6180
67C0
7FC0
7980
ENDCHAR
STARTCHAR 0E1A
ENCODING 3610
SWIDTH 780 0
DWIDTH 13 0
BBX 10 12 1 2
BITMAP
F0C0
F0C0
30C0
30C0
30C0
30C0
30C0
30C0
30C0
30C0
3FC0
3FC0
ENDCHAR
STARTCHAR 0E1B
ENCODING 3611
SWIDTH 780 0
DWIDTH 13 0
BBX 10 15 1 2
BITMAP
00C0
00C0
00C0
F0C0
F0C0
30C0
30C0
30C0
30C0
30C0
30C0
30C0
30C0
3FC0
3FC0
ENDCHAR
STARTCHAR 0E1C
ENCODING 3612
SWIDTH 780 0
DWIDTH 13 0
BBX 10 12 1 2
BITMAP
E0C0
E0C0
C0C0
C0C0
CCC0
CCC0
CCC0
CCC0
CCC0
CCC0
FFC0
7F80
ENDCHAR
STARTCHAR 0E1D
ENCODING 3613
SWIDTH 780 0
DWIDTH 13 0
BBX 10 15 1 2
BITMAP
00C0
00C0
00C0
E0C0
E0C0
C0C0
C0C0
CCC0
CCC0
CCC0
CCC0
CCC0
CCC0
FFC0
7F80
ENDCHAR
STARTCHAR 0E1E
ENCODING 3614
SWIDTH 780 0
DWIDTH 13 0
BBX 10 12 1 2
BITMAP
E0C0
E0C0
E0C0
60C0
64C0
64C0
6EC0
6EC0
7BC0
7BC0
71C0
71C0
ENDCHAR
STARTCHAR 0E1F
ENCODING 3615
SWIDTH 780 0
DWIDTH 13 0
BBX 10 15 1 2
BITMAP
00C0
00C0
00C0
E0C0
E0C0
E0C0
60C0
64C0
64C0
6EC0
6EC0
7BC0
7BC0
71C0
71C0
ENDCHAR
STARTCHAR 0E20
ENCODING 3616
SWIDTH 780 0
DWIDTH 13 0
BBX 10 12 1 2
BITMAP
7F00
7F80
31C0
30C0
60C0
60C0
60C0
60C0
60C0
60C0
E0C0
E0C0
ENDCHAR
STARTCHAR 0E21
ENCODING 3617
SWIDTH 780 0
DWIDTH 13 0
BBX 10 12 1 2
BITMAP
E0C0
E0C0
60C0
60C0
60C0
60C0
60C0
60C0
60C0
FCC0
FFC0
6780
ENDCHAR
STARTCHAR 0E22
ENCODING 3618
SWIDTH 780 0
DWIDTH 13 0
BBX 10 12 1 2
BITMAP
E0C0
E0C0
C0C0
C0C0
C0C0
F0C0
70C0
C0C0
C0C0
C0C0
FFC0
7FC0
ENDCHAR
STARTCHAR 0E23
ENCODING 3619
SWIDTH 780 0
DWIDTH 13 0
BBX 10 12 1 2
BITMAP
3FC0
7FC0
E000
C000
C000
FF00
FF80
01C0
00C0
00C0
03C0
0380
ENDCHAR
STARTCHAR 0E24
ENCODING 3620
SWIDTH 780 0
DWIDTH 13 0
BBX 10 14 1 0
BITMAP
FF00
FF80
61C0
E0C0
C0C0
C0C0
C0C0
C0C0
C0C0
C0C0
F0C0
70C0
00C0
00C0
ENDCHAR
STARTCHAR 0E25
ENCODING 3621
SWIDTH 780 0
DWIDTH 13 0
BBX 10 12 1 2
BITMAP
3F00
7F80
E1C0
C0C0
C0C0
3FC0
7FC0
E0C0
C0C0
C0C0
E0C0
60C0
ENDCHAR
STARTCHAR 0E26
ENCODING 3622
SWIDTH 780 0
DWIDTH 13 0
BBX 10 14 1 0
BITMAP
3F00
3F80
19C0
38C0
30C0
30C0
30C0
30C0
30C0
30C0
F0C0
E0C0
00C0
00C0
ENDCHAR
STARTCHAR 0E27
ENCODING 3623
SWIDTH 780 0
DWIDTH 13 0
BBX 10 12 1 2
BITMAP
7F00
FF80
C1C0
00C0
00C0
00C0
00C0
00C0
00C0
00C0
07C0
0780
ENDCHAR
STARTCHAR 0E28
ENCODING 3624
SWIDTH 780 0
DWIDTH 13 0
BBX 10 12 1 2
BITMAP
00C0
3FC0
7FC0
E0C0
C0C0
C0C0
FCC0
FCC0
FCC0
C0C0
C0C0
C0C0
ENDCHAR
STARTCHAR 0E29
ENCODING 3625
SWIDTH 780 0
DWIDTH 13 0
BBX 10 12 1 2
BITMAP
E180
E180
E180
6180
6180
6D80
6FC0
6FC0
6180
6180
7F80
7F00
ENDCHAR
STARTCHAR 0E2A
ENCODING 3626
SWIDTH 780 0
DWIDTH 13 0
BBX 10 12 1 2
BITMAP
00C0
3FC0
7FC0
E0C0
C0C0
C0C0
3FC0
7FC0
E0C0
C0C0
E0C0
60C0
ENDCHAR
STARTCHAR 0E2B
ENCODING 3627
SWIDTH 780 0
DWIDTH 13 0
BBX 10 12 1 2
BITMAP
E7C0
E780
E780
67C0
6EC0
7CC0
78C0
70C0
60C0
60C0
60C0
60C0
ENDCHAR
STARTCHAR 0E2C
ENCODING 3628
SWIDTH 780 0
DWIDTH 13 0
BBX 10 15 1 2
BITMAP
00C0
00C0
0180
E0C0
E0C0
E0C0
60C0
64C0
64C0
6EC0
6EC0
7BC0
7BC0
71C0
71C0
ENDCHAR
STARTCHAR 0E2D
ENCODING 3629
SWIDTH 780 0
DWIDTH 13 0
BBX 10 12 1 2
BITMAP
3F00
7F80
E1C0
C0C0
00C0
F0C0
F0C0
F0C0
C0C0
C0C0
FFC0
FFC0
ENDCHAR
STARTCHAR 0E2E
ENCODING 3630
SWIDTH 780 0
DWIDTH 13 0
BBX 10 12 1 2
BITMAP
00C0
3FC0
7FC0
E0C0
00C0
F0C0
F0C0
F0C0
C0C0
C0C0
FFC0
FFC0
ENDCHAR
STARTCHAR 0E2F
ENCODING 3631
SWIDTH 780 0
DWIDTH 13 0
BBX 10 12 1 2
BITMAP
01C0
E3C0
E7C0
7EC0
3CC0
00C0
00C0
00C0
00C0
00C0
00C0
00C0
ENDCHAR
STARTCHAR 0E30
ENCODING 3632
SWIDTH 780 0
DWIDTH 13 0
BBX 6 8 3 4
BITMAP
C0
FC
FC
7C
00
C0
FC
7C
ENDCHAR
STARTCHAR 0E31
ENCODING 3633
SWIDTH 780 0
DWIDTH 13 0
BBX 6 2 3 15
BITMAP
CC
F8
ENDCHAR
STARTCHAR 0E32
ENCODING 3634
SWIDTH 780 0
DWIDTH 13 0
BBX 8 12 2 2
BITMAP
7C
FE
C7
03
03
03
03
03
03
03
03
03
ENDCHAR
STARTCHAR 0E33
ENCODING 3635
SWIDTH 780 0
DWIDTH 13 0
BBX 10 14 1 2
BITMAP
C000
C000
DF00
3F80
31C0
00C0
00C0
00C0
00C0
00C0
00C0
00C0
00C0
00C0
ENDCHAR
STARTCHAR 0E34
ENCODING 3636
SWIDTH 780 0
DWIDTH 13 0
BBX 8 2 2 14
BITMAP
7E
FF
ENDCHAR
STARTCHAR 0E35
ENCODING 3637
SWIDTH 780 0
DWIDTH 13 0
BBX 8 3 2 14
BITMAP
03
7F
FF
ENDCHAR
STARTCHAR 0E36
ENCODING 3638
SWIDTH 780 0
DWIDTH 13 0
BBX 8 3 2 14
BITMAP
07
7D
FE
ENDCHAR
STARTCHAR 0E37
ENCODING 3639
SWIDTH 780 0
DWIDTH 13 0
BBX 8 3 2 14
BITMAP
05
7D
FF
ENDCHAR
STARTCHAR 0E38
ENCODING 3640
SWIDTH 780 0
DWIDTH 13 0
BBX 4 2 4 0
BITMAP
F0
30
ENDCHAR
STARTCHAR 0E39
ENCODING 3641
SWIDTH 780 0
DWIDTH 13 0
BBX 6 2 3 0
BITMAP
E4
FC
ENDCHAR
STARTCHAR 0E3A
ENCODING 3642
SWIDTH 780 0
DWIDTH 13 0
BBX 2 2 5 0
BITMAP
C0
C0
ENDCHAR
STARTCHAR 0E3F
ENCODING 3647
SWIDTH 780 0
DWIDTH 13 0
BBX 11 17 1 0
BITMAP
0C00
0C00
FF00
FFC0
CDE0
CCE0
CDE0
FFC0
FFC0
CDE0
CCE0
CCE0
CDE0
FFC0
FF00
0C00
0C00
ENDCHAR
STARTCHAR 0E40
ENCODING 3648
SWIDTH 780 0
DWIDTH 13 0
BBX 3 12 5 2
BITMAP
C0
C0
C0
C0
C0
C0
C0
C0
C0
C0
E0
60
ENDCHAR
STARTCHAR 0E41
ENCODING 3649
SWIDTH 780 0
DWIDTH 13 0
BBX 7 12 3 2
BITMAP
CC
CC
CC
CC
CC
CC
CC
CC
CC
CC
EE
66
ENDCHAR
STARTCHAR 0E42
ENCODING 3650
SWIDTH 780 0
DWIDTH 13 0
BBX 5 15 3 2
BITMAP
38
78
E0
C0
F0
F0
30
30
30
30
30
30
30
38
18
ENDCHAR
STARTCHAR 0E43
ENCODING 3651
SWIDTH 780 0
DWIDTH 13 0
BBX 6 15 3 2
BITMAP
70
F8
D8
18
18
18
18
18
18
18
18
18
18
1C
0C
ENDCHAR
STARTCHAR 0E44
ENCODING 3652
SWIDTH 780 0
DWIDTH 13 0
BBX 6 15 3 2
BITMAP
D8
F8
78
18
18
18
18
18
18
18
18
18
18
1C
0C
ENDCHAR
STARTCHAR 0E45
ENCODING 3653
SWIDTH 780 0
DWIDTH 13 0
BBX 10 14 1 0
BITMAP
7F00
FF80
C1C0
00C0
00C0
00C0
00C0
00C0
00C0
00C0
00C0
00C0
00C0
00C0
ENDCHAR
STARTCHAR 0E46
ENCODING 3654
SWIDTH 780 0
DWIDTH 13 0
BBX 8 14 2 0
BITMAP
66
FF
FF
C3
E3
E3
03
03
03
03
03
03
03
03
ENDCHAR
STARTCHAR 0E47
ENCODING 3655
SWIDTH 780 0
DWIDTH 13 0
BBX 6 3 3 14
BITMAP
7C
C0
FC
ENDCHAR
STARTCHAR 0E48
ENCODING 3656
SWIDTH 780 0
DWIDTH 13 0
BBX 2 3 5 14
BITMAP
C0
C0
C0
ENDCHAR
STARTCHAR 0E49
ENCODING 3657
SWIDTH 780 0
DWIDTH 13 0
BBX 7 3 3 14
BITMAP
E6
7C
78
ENDCHAR
STARTCHAR 0E4A
ENCODING 3658
SWIDTH 780 0
DWIDTH 13 0
BBX 7 3 3 14
BITMAP
F6
DC
D8
ENDCHAR
STARTCHAR 0E4B
ENCODING 3659
SWIDTH 780 0
DWIDTH 13 0
BBX 6 3 3 14
BITMAP
30
FC
30
ENDCHAR
STARTCHAR 0E4C
ENCODING 3660
SWIDTH 780 0
DWIDTH 13 0
BBX 5 3 4 14
BITMAP
18
F0
C0
ENDCHAR
STARTCHAR 0E4D
ENCODING 3661
SWIDTH 780 0
DWIDTH 13 0
BBX 6 3 3 14
BITMAP
78
CC
78
ENDCHAR
STARTCHAR 0E4E
ENCODING 3662
SWIDTH 780 0
DWIDTH 13 0
BBX 3 3 4 14
BITMAP
60
C0
60
ENDCHAR
ENDFONT
